<?xml version="1.0" standalone="no"?>
<!DOCTYPE svg PUBLIC "-//W3C//DTD SVG 20010904//EN"
 "http://www.w3.org/TR/2001/REC-SVG-20010904/DTD/svg10.dtd">
<svg version="1.0" xmlns="http://www.w3.org/2000/svg"
 width="500.000000pt" height="500.000000pt" viewBox="0 0 500.000000 500.000000"
 preserveAspectRatio="xMidYMid meet">

<g transform="translate(0.000000,500.000000) scale(0.100000,-0.100000)"
fill="#000000" stroke="none">
<path d="M0 2500 l0 -2500 2500 0 2500 0 0 2500 0 2500 -2500 0 -2500 0 0
-2500z m1874 1269 c43 -44 91 -86 105 -93 14 -7 55 -16 91 -18 93 -7 139 -35
263 -159 99 -99 108 -111 105 -141 -3 -33 -30 -54 -92 -73 -17 -5 -10 -15 48
-72 37 -36 73 -75 81 -87 19 -27 19 -76 0 -104 -11 -15 -14 -33 -10 -56 14
-71 -49 -127 -117 -104 -19 7 -35 5 -58 -7 -19 -10 -50 -16 -74 -14 -22 1 -54
-3 -71 -11 -40 -18 -94 -16 -132 3 -52 27 -200 174 -248 247 -54 81 -70 123
-90 238 -16 95 -51 157 -125 226 -38 35 -49 59 -32 70 11 7 146 -132 165 -169
15 -31 31 -98 43 -175 12 -85 82 -199 180 -296 109 -107 184 -145 214 -109 11
13 -1 30 -78 109 -51 51 -92 98 -92 104 0 15 191 202 207 202 24 0 14 -24 -29
-67 l-42 -43 129 -130 c72 -72 140 -133 152 -136 28 -7 63 12 63 35 0 17 -81
100 -199 204 -34 30 -51 52 -47 62 10 27 7 29 160 -109 64 -57 78 -66 91 -56
36 30 19 60 -102 177 -64 63 -128 116 -141 120 -12 3 -40 3 -60 -1 -55 -8
-106 10 -141 50 -29 33 -41 74 -22 74 5 0 30 -12 56 -26 40 -23 55 -26 105
-21 55 5 60 3 87 -25 43 -45 93 -68 132 -59 60 12 61 33 6 93 -68 72 -164 157
-198 174 -15 9 -61 19 -100 24 -40 4 -81 11 -92 15 -31 12 -195 177 -195 197
0 33 23 19 104 -63z m564 -131 c4 -18 -30 -29 -49 -17 -11 8 -10 12 6 24 22
18 39 15 43 -7z m283 -14 c84 -25 220 -100 287 -161 182 -161 278 -381 270
-613 -2 -69 -6 -85 -19 -88 -14 -3 -17 14 -21 120 -10 215 -77 370 -228 518
-94 93 -197 155 -307 186 -48 13 -63 22 -63 36 0 22 11 22 81 2z m181 -689
c14 -14 36 -45 49 -70 23 -44 39 -57 39 -33 0 6 10 22 22 35 49 52 118 9 118
-74 1 -26 5 -79 9 -116 9 -65 12 -71 68 -130 33 -34 74 -84 93 -111 31 -47 33
-55 36 -144 l2 -95 64 -66 c113 -117 109 -104 58 -156 -24 -25 -48 -45 -54
-45 -5 0 -37 29 -70 65 -58 62 -63 65 -81 50 -19 -14 -18 -17 48 -81 63 -61
76 -83 51 -91 -5 -2 -47 31 -92 72 -69 63 -88 75 -120 77 -94 4 -122 8 -187
30 -38 13 -83 32 -100 43 -25 17 -47 20 -160 21 -153 1 -168 6 -255 95 -78 79
-82 94 -36 136 46 43 105 46 156 8 35 -25 92 -32 134 -16 17 6 7 17 -60 68
-139 106 -238 197 -257 236 -18 36 -18 38 0 75 14 29 26 39 55 46 39 10 58 4
108 -31 l24 -18 -23 38 c-41 67 -16 148 50 161 46 9 76 -9 155 -92 l74 -77
-21 55 c-32 82 -33 88 -15 116 32 47 82 56 118 19z m-1167 -127 c15 -142 63
-278 136 -385 72 -104 218 -221 332 -264 41 -16 57 -27 55 -38 -5 -21 -35 -17
-95 11 -95 43 -173 101 -251 183 -122 129 -194 287 -217 477 -7 61 -2 78 20
78 9 0 15 -20 20 -62z m694 -707 c19 -12 7 -40 -16 -36 -10 2 -21 4 -25 4 -13
2 -9 29 5 34 18 8 21 8 36 -2z m-272 -471 c23 -80 42 -151 43 -157 0 -8 -14
-13 -40 -13 -37 0 -41 3 -47 30 -6 31 -6 31 -67 28 -58 -3 -61 -4 -64 -30 -3
-26 -7 -28 -48 -28 -24 0 -44 3 -44 7 0 4 11 43 24 87 14 45 34 114 46 154
l21 73 66 -3 67 -3 43 -145z m253 120 c0 -20 -5 -30 -15 -30 -12 0 -15 -18
-15 -99 0 -85 2 -100 17 -103 10 -2 17 -13 17 -30 l2 -28 -73 0 -73 0 0 30 c0
20 5 30 15 30 12 0 15 18 15 100 0 82 -3 100 -15 100 -10 0 -15 10 -15 30 l0
30 70 0 70 0 0 -30z m334 8 c-1 -10 -2 -25 -3 -33 -1 -12 -17 -15 -76 -15
l-75 0 0 -32 0 -33 64 3 c56 3 65 1 70 -16 13 -41 -2 -52 -70 -52 l-64 0 0
-61 0 -60 -42 3 -43 3 -3 158 -3 158 123 -3 c110 -3 123 -5 122 -20z m276 17
c0 -4 71 -249 86 -297 5 -15 -1 -18 -39 -18 -41 0 -45 2 -50 30 -6 29 -8 30
-65 30 -58 0 -60 -1 -65 -30 -6 -27 -10 -30 -47 -30 -25 0 -40 5 -40 12 0 7
19 79 42 160 l43 148 67 0 c38 0 68 -2 68 -5z m-1275 -496 c19 -57 16 -66 -14
-47 -17 11 -25 11 -42 0 -30 -19 -33 -10 -12 47 24 68 46 68 68 0z m145 -4 c0
-30 -4 -55 -10 -55 -5 0 -10 25 -10 55 0 30 5 55 10 55 6 0 10 -25 10 -55z
m310 45 c0 -5 -11 -10 -25 -10 -16 0 -25 -6 -25 -15 0 -9 9 -15 25 -15 14 0
25 -4 25 -10 0 -5 -11 -10 -25 -10 -18 0 -25 -5 -25 -20 0 -11 -7 -20 -15 -20
-12 0 -15 13 -15 55 l0 55 40 0 c22 0 40 -4 40 -10z m188 -2 c7 -7 12 -26 12
-43 0 -38 -16 -55 -51 -55 -21 0 -29 7 -38 30 -15 45 1 80 37 80 15 0 33 -5
40 -12z m201 -6 c6 -11 6 -24 0 -35 -7 -11 -6 -24 1 -37 9 -16 8 -20 -4 -20
-9 0 -20 9 -26 20 -6 11 -15 20 -20 20 -6 0 -10 -9 -10 -20 0 -11 -4 -20 -10
-20 -5 0 -10 25 -10 55 l0 55 35 0 c23 0 38 -6 44 -18z m314 -36 c18 -50 16
-69 -5 -48 -16 16 -55 15 -61 0 -2 -7 -8 -10 -12 -6 -4 4 1 30 10 58 21 65 43
63 68 -4z m147 9 c0 -41 2 -45 25 -45 14 0 25 -4 25 -10 0 -5 -18 -10 -40 -10
l-40 0 0 55 c0 42 3 55 15 55 11 0 15 -12 15 -45z m180 0 c0 -41 2 -45 25 -45
14 0 25 -4 25 -10 0 -5 -18 -10 -40 -10 l-40 0 0 55 c0 42 3 55 15 55 11 0 15
-12 15 -45z"/>
<path d="M2025 3110 l-29 -30 35 -37 c79 -85 156 -154 177 -159 29 -8 72 3 72
19 0 7 -51 63 -113 125 l-113 112 -29 -30z"/>
<path d="M2827 2906 c-20 -20 -10 -70 12 -60 9 3 24 9 34 11 20 6 23 33 5 51
-16 16 -33 15 -51 -2z"/>
<path d="M2582 2864 c-28 -19 -28 -57 0 -97 12 -18 22 -33 23 -35 3 -5 85 77
85 86 0 13 -42 49 -65 56 -12 3 -30 -1 -43 -10z"/>
<path d="M2885 2823 c-11 -3 -24 -9 -29 -13 -8 -8 9 -77 24 -94 6 -6 64 7 88
20 7 4 -43 94 -52 93 -6 -1 -20 -3 -31 -6z"/>
<path d="M2674 2736 c-19 -19 -34 -38 -34 -43 0 -5 18 -29 40 -53 40 -45 40
-45 58 -25 9 11 32 31 50 44 l34 24 -43 43 c-24 24 -49 44 -57 44 -8 0 -29
-15 -48 -34z"/>
<path d="M2428 2718 c-32 -26 -29 -48 12 -91 39 -41 41 -41 55 -22 9 11 22 28
30 38 22 25 19 34 -22 62 -43 28 -53 30 -75 13z"/>
<path d="M2922 2674 c-20 -14 -21 -17 -8 -43 25 -47 38 -53 80 -36 40 17 42
23 21 65 -18 34 -56 40 -93 14z"/>
<path d="M2573 2633 c-7 -2 -22 -21 -34 -40 l-23 -36 49 -44 49 -45 14 29 c8
15 23 38 34 49 19 21 19 22 -19 51 -48 38 -55 41 -70 36z"/>
<path d="M2810 2625 c-14 -7 -32 -25 -40 -39 -12 -23 -11 -28 6 -47 37 -40 52
-43 92 -13 20 15 38 28 40 30 7 5 -51 84 -62 84 -6 -1 -22 -7 -36 -15z"/>
<path d="M3045 2571 c-91 -22 -265 -152 -265 -199 0 -12 10 -39 23 -60 13 -20
36 -71 51 -114 l28 -76 61 -22 c34 -13 81 -25 104 -28 39 -4 45 -1 99 49 58
55 136 165 147 208 3 14 -1 37 -10 55 -34 67 -141 186 -167 186 -8 0 -20 2
-28 4 -7 2 -27 1 -43 -3z m185 -241 c0 -13 -7 -20 -20 -20 -19 0 -27 20 -13
33 13 14 33 6 33 -13z m-82 -77 c-2 -10 -10 -18 -18 -18 -8 0 -16 8 -18 18 -2
12 3 17 18 17 15 0 20 -5 18 -17z m-83 -83 c0 -8 -8 -16 -17 -18 -13 -2 -18 3
-18 18 0 15 5 20 18 18 9 -2 17 -10 17 -18z"/>
<path d="M2681 2501 c-30 -41 -26 -62 15 -90 l35 -24 15 21 c8 12 21 28 29 36
21 21 19 31 -16 60 -39 33 -53 33 -78 -3z"/>
<path d="M2452 2334 c-18 -7 -32 -20 -32 -29 0 -9 28 -44 62 -78 59 -58 63
-61 66 -37 6 52 13 70 27 70 16 0 18 -6 15 -62 l-2 -38 70 0 c38 0 71 3 74 6
4 3 0 21 -8 39 -8 19 -14 47 -14 63 l0 28 -60 -4 c-51 -4 -66 -1 -98 20 -53
35 -64 37 -100 22z"/>
<path d="M3277 2211 c-10 -17 -43 -58 -74 -91 -51 -55 -53 -60 -31 -60 62 0
132 81 126 145 l-3 37 -18 -31z"/>
<path d="M2031 1684 c-26 -101 -27 -94 13 -94 40 0 41 2 25 68 -16 65 -26 71
-38 26z"/>
<path d="M2932 1673 c-6 -27 -14 -56 -17 -65 -6 -15 -1 -18 34 -18 23 0 41 3
41 7 0 19 -34 123 -40 123 -3 0 -12 -21 -18 -47z"/>
<path d="M1700 1275 c0 -8 5 -15 10 -15 6 0 10 7 10 15 0 8 -4 15 -10 15 -5 0
-10 -7 -10 -15z"/>
<path d="M2334 1296 c-9 -24 0 -51 19 -54 14 -3 17 4 17 32 0 26 -4 36 -15 36
-9 0 -18 -6 -21 -14z"/>
<path d="M2530 1294 c0 -9 7 -14 17 -12 25 5 28 28 4 28 -12 0 -21 -6 -21 -16z"/>
<path d="M2860 1283 c0 -13 5 -23 10 -23 13 0 13 11 0 30 -8 12 -10 11 -10 -7z"/>
</g>
</svg>
