<?xml version="1.0" encoding="UTF-8"?>
<!DOCTYPE svg PUBLIC "-//W3C//DTD SVG 1.1//EN" "http://www.w3.org/Graphics/SVG/1.1/DTD/svg11.dtd">
<svg xmlns="http://www.w3.org/2000/svg" version="1.1" width="238px" height="238px" style="shape-rendering:geometricPrecision; text-rendering:geometricPrecision; image-rendering:optimizeQuality; fill-rule:evenodd; clip-rule:evenodd" xmlns:xlink="http://www.w3.org/1999/xlink">
<g><path style="opacity:0.989" fill="#010101" d="M 100.5,-0.5 C 112.5,-0.5 124.5,-0.5 136.5,-0.5C 191.833,11.5 225.5,45.1667 237.5,100.5C 237.5,112.5 237.5,124.5 237.5,136.5C 225.5,191.833 191.833,225.5 136.5,237.5C 124.5,237.5 112.5,237.5 100.5,237.5C 45.1667,225.5 11.5,191.833 -0.5,136.5C -0.5,124.5 -0.5,112.5 -0.5,100.5C 11.5,45.1667 45.1667,11.5 100.5,-0.5 Z"/></g>
<g><path style="opacity:1" fill="#adc58d" d="M 112.5,60.5 C 113.675,60.281 114.675,60.6143 115.5,61.5C 113.948,62.7979 112.948,62.4646 112.5,60.5 Z"/></g>
<g><path style="opacity:1" fill="#99bb68" d="M 111.5,80.5 C 110.308,79.4341 110.641,78.6008 112.5,78C 110.942,77.79 109.609,77.29 108.5,76.5C 109.833,76.5 111.167,76.5 112.5,76.5C 110.88,72.3576 108.214,68.8576 104.5,66C 99.6236,64.1498 94.6236,62.4831 89.5,61C 86.4489,58.2857 83.7822,55.2857 81.5,52C 81.8333,51.5 82.1667,51 82.5,50.5C 85.6511,53.1504 88.6511,55.9838 91.5,59C 101.2,59.9887 109.033,64.4887 115,72.5C 116.22,76.2931 115.053,78.9598 111.5,80.5 Z"/></g>
<g><path style="opacity:1" fill="#9fc46d" d="M 125.5,61.5 C 141.428,64.5882 151.928,73.9215 157,89.5C 157.305,110.744 156.305,110.744 154,89.5C 149.334,76.1675 140.167,67.6675 126.5,64C 125.748,63.3292 125.414,62.4959 125.5,61.5 Z"/></g>
<g><path style="opacity:1" fill="#a1c56e" d="M 108.5,76.5 C 109.609,77.29 110.942,77.79 112.5,78C 110.641,78.6008 110.308,79.4341 111.5,80.5C 113.65,82.7596 115.817,85.0929 118,87.5C 118.051,91.1566 117.718,94.8233 117,98.5C 116.5,99 116,99.5 115.5,100C 108.728,100.919 102.061,101.919 95.5,103C 84.187,96.3527 77.687,86.5194 76,73.5C 73.5923,69.624 71.0923,65.9573 68.5,62.5C 71.6916,64.1721 74.525,66.5054 77,69.5C 79,75.5 81,81.5 83,87.5C 86.5,92.3333 90.6667,96.5 95.5,100C 96.9437,100.781 98.277,100.614 99.5,99.5C 96.5,96.1667 93.5,92.8333 90.5,89.5C 93.5316,85.6341 97.0316,82.3008 101,79.5C 101.5,79.8333 102,80.1667 102.5,80.5C 101.352,82.1487 100.019,83.6487 98.5,85C 102.833,89.3333 107.167,93.6667 111.5,98C 112.965,98.6013 113.965,98.1013 114.5,96.5C 111.167,92.5 107.5,88.8333 103.5,85.5C 102.614,84.675 102.281,83.675 102.5,82.5C 107.014,84.6631 111.014,87.6631 114.5,91.5C 115.614,90.277 115.781,88.9437 115,87.5C 109.746,80.5231 102.913,76.6898 94.5,76C 92.393,74.7365 91.393,72.9032 91.5,70.5C 97.7127,71.227 103.379,73.227 108.5,76.5 Z"/></g>
<g><path style="opacity:1" fill="#060c09" d="M 95.5,87.5 C 99.9046,90.3958 103.905,93.8958 107.5,98C 106.407,99.3654 105.074,99.6987 103.5,99C 100.333,96.5 97.5,93.6667 95,90.5C 94.5304,89.4232 94.6971,88.4232 95.5,87.5 Z"/></g>
<g><path style="opacity:1" fill="#93b667" d="M 150.5,109.5 C 149.683,107.031 149.183,104.365 149,101.5C 147.301,100.594 145.467,100.261 143.5,100.5C 145.54,97.8661 147.707,97.8661 150,100.5C 150.498,103.482 150.665,106.482 150.5,109.5 Z"/></g>
<g><path style="opacity:1" fill="#b4df76" d="M 140.5,99.5 C 140.157,101.225 139.157,101.725 137.5,101C 138.774,100.023 138.774,99.1894 137.5,98.5C 136.791,97.596 135.791,97.2627 134.5,97.5C 134.5,98.5 134.5,99.5 134.5,100.5C 135.167,101.167 135.833,101.833 136.5,102.5C 136.629,104.216 136.962,105.883 137.5,107.5C 138.167,108.167 138.833,108.833 139.5,109.5C 138.9,110.9 137.9,111.9 136.5,112.5C 135.878,110.878 134.878,109.545 133.5,108.5C 133.33,107.178 133.663,106.011 134.5,105C 133.934,104.005 133.267,103.172 132.5,102.5C 131.079,96.8868 133.079,94.7201 138.5,96C 139.823,96.8159 140.489,97.9826 140.5,99.5 Z"/></g>
<g><path style="opacity:1" fill="#1b2516" d="M 137.5,98.5 C 137.027,99.9063 136.027,100.573 134.5,100.5C 134.5,99.5 134.5,98.5 134.5,97.5C 135.791,97.2627 136.791,97.596 137.5,98.5 Z"/></g>
<g><path style="opacity:1" fill="#060708" d="M 136.5,102.5 C 139.114,102.277 140.781,103.444 141.5,106C 140.099,106.41 138.766,106.91 137.5,107.5C 136.962,105.883 136.629,104.216 136.5,102.5 Z"/></g>
<g><path style="opacity:1" fill="#8db363" d="M 137.5,98.5 C 138.774,99.1894 138.774,100.023 137.5,101C 139.157,101.725 140.157,101.225 140.5,99.5C 141.391,100.11 142.391,100.443 143.5,100.5C 141.56,103.271 141.56,106.271 143.5,109.5C 142.167,109.5 140.833,109.5 139.5,109.5C 138.833,108.833 138.167,108.167 137.5,107.5C 138.766,106.91 140.099,106.41 141.5,106C 140.781,103.444 139.114,102.277 136.5,102.5C 135.833,101.833 135.167,101.167 134.5,100.5C 136.027,100.573 137.027,99.9063 137.5,98.5 Z"/></g>
<g><path style="opacity:1" fill="#bef876" d="M 143.5,100.5 C 145.467,100.261 147.301,100.594 149,101.5C 149.183,104.365 149.683,107.031 150.5,109.5C 150.5,111.167 150.5,112.833 150.5,114.5C 148.473,114.662 146.473,114.495 144.5,114C 145.774,113.023 145.774,112.189 144.5,111.5C 144.167,110.833 143.833,110.167 143.5,109.5C 141.56,106.271 141.56,103.271 143.5,100.5 Z"/></g>
<g><path style="opacity:1" fill="#030403" d="M 135.5,131.5 C 135.34,129.847 134.674,128.514 133.5,127.5C 133.586,126.504 133.252,125.671 132.5,125C 136.949,118.775 142.949,115.775 150.5,116C 155.285,119.398 157.452,123.898 157,129.5C 154.537,132.965 151.704,136.131 148.5,139C 144.678,139.585 141.011,139.085 137.5,137.5C 137.405,135.214 136.738,133.214 135.5,131.5 Z"/></g>
<g><path style="opacity:1" fill="#9dbe6b" d="M 77.5,99.5 C 78.5,99.5 79.5,99.5 80.5,99.5C 81.2433,117.671 89.91,130.337 106.5,137.5C 105.833,137.833 105.167,138.167 104.5,138.5C 87.246,131.241 78.246,118.241 77.5,99.5 Z"/></g>
<g><path style="opacity:1" fill="#bdf673" d="M 133.5,127.5 C 134.674,128.514 135.34,129.847 135.5,131.5C 135.357,133.262 135.691,134.929 136.5,136.5C 135.675,137.386 134.675,137.719 133.5,137.5C 132.791,136.596 131.791,136.263 130.5,136.5C 130.737,135.209 130.404,134.209 129.5,133.5C 129.5,133.167 129.5,132.833 129.5,132.5C 129.386,130.282 128.72,128.282 127.5,126.5C 127.833,126.5 128.167,126.5 128.5,126.5C 129.151,125.909 129.818,125.243 130.5,124.5C 131.288,125.77 132.288,126.77 133.5,127.5 Z"/></g>
<g><path style="opacity:1" fill="#82916f" d="M 152.5,125.5 C 153.5,125.5 154.5,125.5 155.5,125.5C 155.5,126.5 155.5,127.5 155.5,128.5C 154.5,128.5 153.5,128.5 152.5,128.5C 152.5,127.5 152.5,126.5 152.5,125.5 Z"/></g>
<g><path style="opacity:1" fill="#060703" d="M 129.5,132.5 C 129.5,132.833 129.5,133.167 129.5,133.5C 128.082,135.308 126.082,135.975 123.5,135.5C 123.5,133.5 123.5,131.5 123.5,129.5C 125.167,129.5 126.833,129.5 128.5,129.5C 128.263,130.791 128.596,131.791 129.5,132.5 Z"/></g>
<g><path style="opacity:1" fill="#71825c" d="M 148.5,129.5 C 149.5,129.5 150.5,129.5 151.5,129.5C 151.5,130.5 151.5,131.5 151.5,132.5C 150.5,132.5 149.5,132.5 148.5,132.5C 148.5,131.5 148.5,130.5 148.5,129.5 Z"/></g>
<g><path style="opacity:1" fill="#96b762" d="M 127.5,126.5 C 128.72,128.282 129.386,130.282 129.5,132.5C 128.596,131.791 128.263,130.791 128.5,129.5C 126.833,129.5 125.167,129.5 123.5,129.5C 123.5,131.5 123.5,133.5 123.5,135.5C 126.082,135.975 128.082,135.308 129.5,133.5C 130.404,134.209 130.737,135.209 130.5,136.5C 131.791,136.263 132.791,136.596 133.5,137.5C 133.5,137.833 133.5,138.167 133.5,138.5C 124.112,140.55 116.946,137.55 112,129.5C 111.735,127.837 112.235,126.337 113.5,125C 118.367,124.36 123.034,124.86 127.5,126.5 Z"/></g>
<g><path style="opacity:1" fill="#0d120b" d="M 115.5,126.5 C 121.206,126.517 122.539,128.85 119.5,133.5C 116.184,131.944 114.851,129.611 115.5,126.5 Z"/></g>
<g><path style="opacity:1" fill="#95b073" d="M 112.5,137.5 C 113.5,137.5 114.5,137.5 115.5,137.5C 115.5,138.5 115.5,139.5 115.5,140.5C 114.5,140.5 113.5,140.5 112.5,140.5C 112.5,139.5 112.5,138.5 112.5,137.5 Z"/></g>
<g><path style="opacity:1" fill="#2e3e22" d="M 165.5,146.5 C 164.791,147.404 163.791,147.737 162.5,147.5C 162.5,148.5 162.5,149.5 162.5,150.5C 161.209,150.737 160.209,150.404 159.5,149.5C 160.376,149.631 161.043,149.298 161.5,148.5C 160.185,146.684 158.685,145.017 157,143.5C 156.312,142.668 156.479,142.002 157.5,141.5C 159.316,142.815 160.983,144.315 162.5,146C 163.448,146.483 164.448,146.649 165.5,146.5 Z"/></g>
<g><path style="opacity:1" fill="#a3c86d" d="M 132.5,102.5 C 133.267,103.172 133.934,104.005 134.5,105C 133.663,106.011 133.33,107.178 133.5,108.5C 134.878,109.545 135.878,110.878 136.5,112.5C 137.9,111.9 138.9,110.9 139.5,109.5C 139.176,112.68 140.51,113.847 143.5,113C 144.056,112.617 144.389,112.117 144.5,111.5C 145.774,112.189 145.774,113.023 144.5,114C 146.473,114.495 148.473,114.662 150.5,114.5C 150.5,112.833 150.5,111.167 150.5,109.5C 152.962,114.162 156.129,118.495 160,122.5C 159.605,128.282 161.105,133.282 164.5,137.5C 169.349,140.036 169.682,143.036 165.5,146.5C 164.448,146.649 163.448,146.483 162.5,146C 160.983,144.315 159.316,142.815 157.5,141.5C 156.479,142.002 156.312,142.668 157,143.5C 158.685,145.017 160.185,146.684 161.5,148.5C 161.043,149.298 160.376,149.631 159.5,149.5C 157.396,147.901 155.396,146.068 153.5,144C 146.427,143.33 139.76,141.496 133.5,138.5C 133.5,138.167 133.5,137.833 133.5,137.5C 134.675,137.719 135.675,137.386 136.5,136.5C 135.691,134.929 135.357,133.262 135.5,131.5C 136.738,133.214 137.405,135.214 137.5,137.5C 141.011,139.085 144.678,139.585 148.5,139C 151.704,136.131 154.537,132.965 157,129.5C 157.452,123.898 155.285,119.398 150.5,116C 142.949,115.775 136.949,118.775 132.5,125C 133.252,125.671 133.586,126.504 133.5,127.5C 132.288,126.77 131.288,125.77 130.5,124.5C 129.818,125.243 129.151,125.909 128.5,126.5C 123.231,122.407 118.065,118.074 113,113.5C 109.886,106.632 111.886,103.965 119,105.5C 118.299,99.5333 120.799,97.0333 126.5,98C 128.413,99.7242 130.413,101.224 132.5,102.5 Z"/></g>
<g><path style="opacity:1" fill="#bdfc6d" d="M 164.5,137.5 C 165.219,139.764 165.552,142.097 165.5,144.5C 162.63,143.97 160.63,142.303 159.5,139.5C 160.269,136.376 161.936,135.709 164.5,137.5 Z"/></g>
<g><path style="opacity:1" fill="#80905d" d="M 144.5,133.5 C 145.5,133.5 146.5,133.5 147.5,133.5C 147.5,134.5 147.5,135.5 147.5,136.5C 146.5,136.5 145.5,136.5 144.5,136.5C 144.5,135.5 144.5,134.5 144.5,133.5 Z"/></g>
<g><path style="opacity:1" fill="#161f0f" d="M 157.5,132.5 C 158.431,137.09 156.431,139.59 151.5,140C 154.094,137.914 156.094,135.414 157.5,132.5 Z"/></g>
<g><path style="opacity:1" fill="#080e0c" d="M 128.5,117.5 C 133.416,118.747 133.749,120.747 129.5,123.5C 126.025,121.916 125.692,119.916 128.5,117.5 Z"/></g>
<g><path style="opacity:1" fill="#000204" d="M 136.5,112.5 C 138.84,115.705 137.84,117.205 133.5,117C 131.839,113.85 132.839,112.35 136.5,112.5 Z"/></g>
<g><path style="opacity:1" fill="#010502" d="M 121.5,112.5 C 126.868,113.235 127.702,115.568 124,119.5C 120.838,117.845 120.005,115.512 121.5,112.5 Z"/></g>
<g><path style="opacity:1" fill="#080d08" d="M 139.5,109.5 C 140.833,109.5 142.167,109.5 143.5,109.5C 143.833,110.167 144.167,110.833 144.5,111.5C 144.389,112.117 144.056,112.617 143.5,113C 140.51,113.847 139.176,112.68 139.5,109.5 Z"/></g>
<g><path style="opacity:1" fill="#050509" d="M 133.5,108.5 C 131.215,113.352 128.882,113.518 126.5,109C 128.631,104.557 130.964,104.39 133.5,108.5 Z"/></g>
<g><path style="opacity:1" fill="#0d1306" d="M 114.5,107.5 C 120.454,107.706 121.454,109.706 117.5,113.5C 115.022,112.278 114.022,110.278 114.5,107.5 Z"/></g>
<g><path style="opacity:1" fill="#151a13" d="M 122.5,99.5 C 128.384,100.612 128.884,102.945 124,106.5C 121.637,104.478 121.137,102.145 122.5,99.5 Z"/></g>
<g><path style="opacity:1" fill="#e2e2e2" d="M 91.5,154.5 C 94.2469,154.187 96.9135,154.52 99.5,155.5C 101.305,160.389 102.639,165.389 103.5,170.5C 101.833,170.5 100.167,170.5 98.5,170.5C 98.5,169.5 98.5,168.5 98.5,167.5C 94.7887,167.614 91.4554,168.614 88.5,170.5C 89.0794,165.093 90.0794,159.76 91.5,154.5 Z"/></g>
<g><path style="opacity:1" fill="#e9e9e9" d="M 106.5,154.5 C 109.167,154.5 111.833,154.5 114.5,154.5C 113.587,157.055 112.92,159.721 112.5,162.5C 112.92,165.279 113.587,167.945 114.5,170.5C 111.833,170.5 109.167,170.5 106.5,170.5C 107.368,168.103 108.035,165.603 108.5,163C 107.896,160.113 107.229,157.28 106.5,154.5 Z"/></g>
<g><path style="opacity:1" fill="#eaeaea" d="M 130.5,154.5 C 130.5,155.5 130.5,156.5 130.5,157.5C 127.833,157.5 125.167,157.5 122.5,157.5C 122.5,158.833 122.5,160.167 122.5,161.5C 124.833,161.5 127.167,161.5 129.5,161.5C 129.5,162.5 129.5,163.5 129.5,164.5C 127.5,164.5 125.5,164.5 123.5,164.5C 123.5,166.5 123.5,168.5 123.5,170.5C 121.833,170.5 120.167,170.5 118.5,170.5C 118.5,165.167 118.5,159.833 118.5,154.5C 122.5,154.5 126.5,154.5 130.5,154.5 Z"/></g>
<g><path style="opacity:1" fill="#e3e3e3" d="M 137.5,154.5 C 140.167,154.5 142.833,154.5 145.5,154.5C 146.504,159.842 147.504,165.175 148.5,170.5C 147.167,170.5 145.833,170.5 144.5,170.5C 144.5,169.5 144.5,168.5 144.5,167.5C 140.476,167.738 136.81,168.738 133.5,170.5C 134.226,164.993 135.56,159.659 137.5,154.5 Z"/></g>
<g><path style="opacity:1" fill="#7e7e7e" d="M 130.5,154.5 C 131.434,155.568 131.768,156.901 131.5,158.5C 128.753,158.187 126.086,158.52 123.5,159.5C 125.631,160.169 127.631,160.835 129.5,161.5C 127.167,161.5 124.833,161.5 122.5,161.5C 122.5,160.167 122.5,158.833 122.5,157.5C 125.167,157.5 127.833,157.5 130.5,157.5C 130.5,156.5 130.5,155.5 130.5,154.5 Z"/></g>
<g><path style="opacity:1" fill="#262626" d="M 140.5,158.5 C 142.074,160.102 142.741,162.102 142.5,164.5C 141.5,164.5 140.5,164.5 139.5,164.5C 139.517,162.435 139.85,160.435 140.5,158.5 Z"/></g>
<g><path style="opacity:1" fill="#202020" d="M 95.5,158.5 C 96.7384,160.214 97.405,162.214 97.5,164.5C 96.5,164.5 95.5,164.5 94.5,164.5C 94.5172,162.435 94.8505,160.435 95.5,158.5 Z"/></g>
<g><path style="opacity:1" fill="#a7a7a7" d="M 86.5,176.5 C 87.6935,176.97 88.3601,177.97 88.5,179.5C 88.1667,180.5 87.8333,181.5 87.5,182.5C 86.5344,180.604 86.2011,178.604 86.5,176.5 Z"/></g>
<g><path style="opacity:1" fill="#b3b3b3" d="M 99.5,176.5 C 100.978,176.238 102.311,176.571 103.5,177.5C 101.009,178.541 101.009,179.374 103.5,180C 102.354,180.645 101.354,181.478 100.5,182.5C 99.5344,180.604 99.2011,178.604 99.5,176.5 Z"/></g>
<g><path style="opacity:1" fill="#bababa" d="M 153.5,176.5 C 154.919,178.151 156.253,179.984 157.5,182C 156.207,182.49 154.873,182.657 153.5,182.5C 153.5,180.5 153.5,178.5 153.5,176.5 Z"/></g>
<g><path style="opacity:1" fill="#b6b6b6" d="M 77.5,176.5 C 78.5,176.5 79.5,176.5 80.5,176.5C 80.8333,178.5 81.1667,180.5 81.5,182.5C 79.8333,182.5 78.1667,182.5 76.5,182.5C 76.5172,180.435 76.8505,178.435 77.5,176.5 Z"/></g>
<g><path style="opacity:1" fill="#a9a9a9" d="M 109.5,176.5 C 113.068,176.759 114.401,178.759 113.5,182.5C 111.833,182.5 110.167,182.5 108.5,182.5C 108.325,180.379 108.659,178.379 109.5,176.5 Z"/></g>
<g><path style="opacity:1" fill="#a7a7a7" d="M 118.5,176.5 C 123.241,176.161 124.574,178.161 122.5,182.5C 121.5,181.167 120.5,181.167 119.5,182.5C 118.534,180.604 118.201,178.604 118.5,176.5 Z"/></g>
<g><path style="opacity:1" fill="#b1b1b1" d="M 135.5,176.5 C 136.5,176.5 137.5,176.5 138.5,176.5C 138.833,178.5 139.167,180.5 139.5,182.5C 137.833,182.5 136.167,182.5 134.5,182.5C 134.833,180.5 135.167,178.5 135.5,176.5 Z"/></g>
<g><path style="opacity:1" fill="#a6a6a6" d="M 144.5,176.5 C 146.015,178.207 147.348,180.207 148.5,182.5C 147.311,183.429 145.978,183.762 144.5,183.5C 144.5,181.167 144.5,178.833 144.5,176.5 Z"/></g>
</svg>
