<?xml version="1.0" standalone="no"?>
<!DOCTYPE svg PUBLIC "-//W3C//DTD SVG 20010904//EN"
 "http://www.w3.org/TR/2001/REC-SVG-20010904/DTD/svg10.dtd">
<svg version="1.0" xmlns="http://www.w3.org/2000/svg"
 width="2000.000000pt" height="526.000000pt" viewBox="0 0 2000.000000 526.000000"
 preserveAspectRatio="xMidYMid meet">

<g transform="translate(0.000000,526.000000) scale(0.100000,-0.100000)"
fill="#000000" stroke="none">
<path d="M0 2630 l0 -2630 10000 0 10000 0 0 2630 0 2630 -10000 0 -10000 0 0
-2630z m6172 1330 c114 -118 149 -140 226 -140 72 0 161 -27 217 -65 124 -85
315 -286 315 -331 0 -35 -52 -82 -107 -97 l-43 -11 94 -96 c51 -52 99 -105
105 -117 19 -37 13 -95 -13 -134 -17 -24 -21 -40 -15 -50 5 -8 9 -31 9 -52 0
-31 -7 -46 -34 -73 -28 -28 -42 -34 -76 -34 -23 0 -50 5 -61 11 -15 8 -27 6
-52 -9 -40 -24 -93 -34 -131 -24 -22 6 -40 2 -74 -15 -90 -46 -161 -22 -303
101 -108 93 -205 214 -259 320 -32 63 -45 106 -60 193 -26 152 -44 189 -146
293 -84 87 -101 120 -63 128 23 4 190 -174 218 -233 13 -27 32 -99 43 -160 11
-60 28 -131 38 -157 22 -59 94 -166 159 -240 70 -78 205 -188 248 -203 33 -11
95 -6 111 9 3 4 -49 61 -116 128 -67 67 -124 130 -128 141 -5 15 19 45 112
139 137 138 150 147 172 124 15 -15 12 -21 -44 -77 l-60 -60 181 -179 c180
-179 205 -196 241 -172 22 14 34 50 25 74 -5 13 -79 86 -165 162 -97 86 -156
145 -156 157 0 41 43 18 157 -83 63 -57 127 -113 143 -126 l29 -24 16 31 c9
18 13 41 9 55 -8 32 -282 302 -324 320 -22 9 -55 12 -96 8 -34 -2 -78 -2 -98
2 -58 11 -136 91 -136 139 0 26 31 28 63 3 49 -37 102 -49 177 -43 66 5 68 5
96 -25 48 -51 114 -88 156 -88 44 0 98 24 98 44 0 19 -147 173 -227 238 -94
76 -120 88 -231 100 -56 6 -113 19 -135 30 -34 17 -236 214 -245 239 -6 16 7
39 21 39 8 0 61 -50 119 -110z m753 -175 c0 -16 -8 -21 -37 -23 -32 -3 -38 0
-38 16 0 27 10 33 45 30 22 -2 30 -8 30 -23z m387 -21 c166 -53 300 -134 423
-258 96 -96 152 -176 211 -300 54 -115 81 -220 95 -366 14 -136 5 -205 -26
-205 -19 0 -20 10 -26 140 -9 200 -46 334 -134 485 -129 220 -345 390 -587
461 -56 17 -78 28 -78 39 0 37 14 38 122 4z m2826 -846 c128 -436 236 -808
241 -825 l10 -33 -223 0 -222 0 -40 163 -40 162 -297 3 -296 2 -10 -37 c-6
-21 -24 -95 -42 -165 l-31 -128 -219 0 c-136 0 -219 4 -219 10 0 8 463 1595
475 1628 3 9 81 12 343 12 l338 0 232 -792z m1102 632 l0 -160 -90 0 -90 0 0
-505 0 -505 90 0 90 0 0 -160 0 -160 -380 0 -381 0 3 158 3 157 88 3 87 3 0
504 0 505 -90 0 -90 0 0 160 0 160 380 0 380 0 0 -160z m1488 -12 l2 -168
-410 0 -410 0 0 -175 0 -175 355 0 355 0 0 -160 0 -160 -355 0 -355 0 0 -320
0 -320 -210 0 -210 0 0 825 0 825 618 -2 617 -3 3 -167z m1343 -333 c81 -275
189 -645 241 -822 l95 -323 -222 0 -223 0 -31 128 c-18 70 -36 144 -42 165
l-10 37 -296 -2 -297 -3 -40 -162 -40 -163 -223 0 c-174 0 -221 3 -218 13 3 6
111 374 240 816 130 442 238 808 241 812 3 5 156 8 342 7 l337 -3 146 -500z
m-6537 -336 c15 -11 45 -54 68 -96 l41 -74 17 38 c29 66 102 83 150 35 26 -26
28 -37 35 -128 13 -196 15 -200 92 -280 37 -39 93 -106 123 -150 56 -80 62
-102 50 -194 -1 -8 4 -44 10 -80 12 -64 14 -67 111 -165 54 -55 99 -106 99
-114 0 -14 -83 -111 -107 -125 -12 -6 -37 13 -102 78 -84 84 -89 87 -114 75
-15 -7 -27 -15 -27 -18 0 -3 40 -42 89 -86 60 -54 90 -87 90 -102 2 -43 -36
-24 -139 71 -102 93 -103 94 -164 100 -33 3 -77 6 -97 6 -45 -1 -221 54 -269
84 -67 41 -97 46 -246 39 -135 -6 -144 -5 -190 17 -58 28 -210 176 -219 213
-15 56 60 117 144 117 56 0 79 -9 125 -47 26 -22 34 -23 100 -17 39 3 74 9 78
13 4 4 -32 35 -80 69 -49 34 -149 115 -223 180 -105 92 -137 127 -147 157 -26
77 31 155 113 155 33 0 55 -8 96 -37 51 -34 53 -35 36 -10 -9 15 -24 38 -33
52 -12 18 -15 40 -12 75 6 60 34 95 89 111 61 19 94 0 207 -115 56 -57 102
-102 102 -101 0 2 -13 35 -30 73 -33 77 -37 114 -16 151 28 51 104 66 150 30z
m-1552 -134 c3 -22 11 -79 17 -126 42 -330 287 -642 605 -769 75 -30 99 -51
79 -71 -26 -26 -227 70 -361 173 -119 92 -263 285 -316 426 -52 136 -91 349
-72 397 11 31 41 12 48 -30z m936 -974 c22 -14 10 -46 -18 -49 -33 -4 -65 20
-57 42 7 17 52 22 75 7z m3370 -168 c46 -123 46 -123 23 -123 -11 0 -25 9 -31
20 -8 14 -21 20 -45 20 -24 0 -37 -6 -45 -20 -10 -18 -50 -29 -50 -14 0 6 35
105 59 167 7 19 18 27 35 27 21 0 28 -10 54 -77z m262 -23 c0 -93 -1 -100 -20
-100 -19 0 -20 7 -20 100 0 93 1 100 20 100 19 0 20 -7 20 -100z m558 78 c3
-15 -4 -18 -47 -18 -48 0 -51 -2 -51 -25 0 -23 4 -25 45 -25 38 0 45 -3 45
-20 0 -17 -7 -20 -45 -20 -45 0 -45 0 -45 -35 0 -28 -4 -35 -20 -35 -19 0 -20
7 -20 100 l0 101 67 -3 c55 -2 68 -6 71 -20z m316 1 c23 -18 26 -28 26 -80 0
-73 -21 -99 -78 -99 -52 0 -79 22 -87 70 -17 102 65 167 139 109z m341 9 c34
-15 43 -54 21 -91 -15 -27 -15 -32 -1 -53 20 -31 19 -44 -4 -44 -11 0 -28 15
-40 35 -11 19 -27 35 -36 35 -11 0 -15 -10 -15 -35 0 -31 -3 -35 -25 -35 -25
0 -25 0 -25 93 0 52 3 97 7 100 11 11 90 8 118 -5z m573 -65 c46 -123 46 -123
23 -123 -11 0 -25 9 -31 20 -8 14 -21 20 -45 20 -24 0 -37 -6 -45 -20 -10 -18
-50 -29 -50 -14 0 6 35 105 59 167 7 19 18 27 35 27 21 0 28 -10 54 -77z m262
-2 l0 -80 48 -3 c34 -2 47 -7 47 -18 0 -12 -15 -16 -67 -18 l-68 -3 0 101 c0
93 1 100 20 100 18 0 20 -7 20 -79z m320 0 l0 -80 48 -3 c34 -2 47 -7 47 -18
0 -12 -15 -16 -67 -18 l-68 -3 0 101 c0 93 1 100 20 100 18 0 20 -7 20 -79z"/>
<path d="M6376 3091 l-39 -40 42 -48 c64 -74 211 -203 239 -210 29 -7 94 7 99
22 2 6 -66 79 -150 163 l-153 152 -38 -39z"/>
<path d="M9525 3378 c-3 -7 -42 -159 -88 -338 l-83 -325 210 -3 c115 -1 210
-1 212 1 2 1 -36 154 -83 340 l-86 337 -39 0 c-22 0 -41 -5 -43 -12z"/>
<path d="M13461 3063 c-46 -181 -86 -334 -88 -340 -4 -10 42 -13 210 -13 l215
0 -87 340 -86 340 -40 0 -41 0 -83 -327z"/>
<path d="M7440 2820 c-23 -23 -25 -39 -7 -64 12 -16 17 -17 37 -6 13 7 35 16
49 20 l26 6 -32 32 c-37 37 -46 39 -73 12z"/>
<path d="M7101 2754 c-12 -15 -21 -34 -21 -43 0 -13 48 -100 66 -120 1 -2 17
13 35 33 17 20 44 44 60 53 l29 17 -42 43 c-52 53 -94 58 -127 17z"/>
<path d="M7503 2705 c-18 -8 -33 -19 -33 -24 0 -10 39 -113 45 -119 2 -2 17 4
34 12 16 9 41 16 56 16 32 0 32 9 -6 75 -33 59 -44 63 -96 40z"/>
<path d="M7290 2638 c-28 -10 -77 -53 -91 -81 -8 -14 0 -31 43 -83 l53 -65 29
36 c16 20 46 45 68 56 l39 20 -39 47 c-62 73 -73 81 -102 70z"/>
<path d="M6902 2570 c-36 -34 -28 -67 28 -123 l51 -51 20 35 c11 19 32 44 47
56 14 12 24 24 22 26 -55 45 -107 77 -125 77 -11 0 -31 -9 -43 -20z"/>
<path d="M7573 2524 c-18 -9 -33 -20 -33 -25 0 -9 59 -109 65 -109 4 0 100 42
104 46 3 2 -6 27 -19 54 -21 44 -27 50 -54 50 -17 0 -46 -8 -63 -16z"/>
<path d="M7092 2454 c-12 -8 -32 -34 -43 -57 l-21 -41 28 -23 c16 -13 46 -37
66 -54 l37 -30 17 33 c9 18 28 45 41 60 14 14 23 31 19 36 -6 10 -110 92 -117
92 -3 0 -15 -7 -27 -16z"/>
<path d="M7424 2456 c-32 -14 -74 -60 -74 -82 0 -13 77 -84 92 -84 9 0 108 70
108 76 0 12 -76 104 -85 104 -5 -1 -24 -7 -41 -14z"/>
<path d="M7705 2371 c-103 -37 -180 -86 -272 -175 -35 -32 -63 -65 -63 -73 0
-7 20 -50 44 -96 25 -45 54 -112 66 -150 12 -37 28 -74 36 -82 22 -22 221 -83
251 -77 14 3 57 35 96 71 111 105 197 232 197 292 0 67 -169 279 -238 299 -49
13 -58 13 -117 -9z m270 -311 c0 -18 -6 -26 -23 -28 -13 -2 -25 3 -28 12 -10
26 4 48 28 44 17 -2 23 -10 23 -28z m-107 -98 c4 -28 -24 -41 -44 -20 -20 20
-7 50 20 46 13 -2 22 -12 24 -26z m-110 -94 c14 -14 -2 -48 -22 -48 -20 0 -37
25 -30 44 7 19 35 21 52 4z"/>
<path d="M7258 2303 c-29 -31 -51 -80 -43 -94 4 -5 27 -23 52 -41 35 -23 48
-28 51 -18 3 7 22 32 43 55 l38 41 -49 42 c-27 23 -53 42 -57 42 -5 0 -21 -12
-35 -27z"/>
<path d="M6923 2060 c-18 -11 -33 -25 -33 -31 0 -14 155 -169 169 -169 5 0 12
24 15 54 7 52 24 74 47 60 5 -3 9 -37 9 -76 l0 -71 92 7 c51 4 94 8 95 10 2 2
-4 19 -12 39 -8 20 -15 59 -15 87 l0 50 -87 -6 c-81 -5 -91 -3 -122 18 -83 56
-106 60 -158 28z"/>
<path d="M8031 1894 c-19 -27 -67 -82 -105 -123 l-71 -74 40 8 c107 19 183
108 173 204 l-3 34 -34 -49z"/>
<path d="M10222 1591 c-17 -47 -15 -51 13 -51 28 0 28 1 11 50 l-13 34 -11
-33z"/>
<path d="M11342 1618 c-17 -17 -15 -84 3 -102 28 -28 65 -1 65 47 0 56 -37 86
-68 55z"/>
<path d="M11690 1606 c0 -22 4 -26 31 -26 26 0 30 3 27 23 -2 16 -11 23 -30
25 -24 3 -28 0 -28 -22z"/>
<path d="M12272 1591 c-17 -47 -15 -51 13 -51 28 0 28 1 11 50 l-13 34 -11
-33z"/>
</g>
</svg>
