<svg version="1.1" id="Layer_1" xmlns="http://www.w3.org/2000/svg" xmlns:xlink="http://www.w3.org/1999/xlink" x="0px" y="0px"
	 width="100%" viewBox="0 0 311 162" enable-background="new 0 0 311 162" xml:space="preserve">
<path fill="#FBFCFD" opacity="1.000000" stroke="none" 
	d="
M190.000000,163.000000 
	C126.666672,163.000000 63.833347,163.000000 1.000017,163.000000 
	C1.000011,109.000015 1.000011,55.000027 1.000006,1.000031 
	C104.666634,1.000021 208.333267,1.000021 311.999939,1.000010 
	C311.999939,54.999969 311.999939,108.999939 311.999969,162.999954 
	C271.500000,163.000000 231.000000,163.000000 190.000000,163.000000 
M58.046692,115.557381 
	C58.358612,115.674278 58.670528,115.791176 59.899830,116.122246 
	C65.934608,116.061356 71.969383,116.000465 78.753868,116.106827 
	C80.524246,115.083641 80.524246,115.083641 77.981224,111.338257 
	C77.624619,110.886513 77.268013,110.434769 76.873199,109.447472 
	C76.601326,109.232315 76.329453,109.017166 75.961548,108.121140 
	C71.915619,101.437592 68.522629,94.226677 63.658340,88.204102 
	C57.590984,80.691986 57.885853,74.623405 63.557587,66.986404 
	C69.750084,58.648197 74.547340,49.273796 80.027733,40.227310 
	C79.064514,39.652798 78.500420,39.019260 77.962624,39.040844 
	C71.536118,39.298767 65.107368,39.575615 58.697231,40.077587 
	C57.843182,40.144463 56.862114,41.347000 56.322495,42.251808 
	C49.763237,53.249996 43.233192,64.266464 36.839119,75.360916 
	C36.237091,76.405495 36.047131,78.339737 36.613209,79.305809 
	C43.241432,90.617630 50.051136,101.823105 56.912128,113.645676 
	C57.268547,114.108284 57.624962,114.570900 58.005634,115.008507 
	C58.005634,115.008507 57.972023,115.012955 58.046692,115.557381 
M86.854958,41.918076 
	C86.909409,52.279091 86.963867,62.640106 86.991966,73.800446 
	C89.598991,74.154388 92.206024,74.508339 95.226349,74.918404 
	C95.226349,63.115337 95.238403,52.166172 95.174973,41.217442 
	C95.172806,40.843933 94.412651,40.474819 93.156441,39.946877 
	C91.433037,39.996841 89.709625,40.046803 87.406685,40.012550 
	C87.281822,40.339905 87.156952,40.667263 86.854958,41.918076 
M174.357101,49.922325 
	C174.210663,50.290371 174.064224,50.658417 173.713440,51.941277 
	C173.787872,58.954472 173.862305,65.967667 173.873398,73.662300 
	C174.222107,73.887207 174.570801,74.112114 175.625061,74.647049 
	C177.550446,74.647049 179.475830,74.647049 181.755554,74.647049 
	C181.755554,71.297165 181.809906,68.506897 181.745804,65.719345 
	C181.513565,55.619541 183.404984,56.724617 190.067673,56.741879 
	C190.317825,56.742523 190.568939,56.363503 190.748398,56.218822 
	C190.748398,53.892754 190.748398,51.640491 190.748398,49.959103 
	C185.278564,49.959103 180.144760,49.959103 174.357101,49.922325 
M29.010551,76.376434 
	C18.049351,80.859314 8.780202,87.261429 4.821271,99.076591 
	C2.756737,105.238052 5.018769,110.616653 9.582365,114.848862 
	C14.482169,119.392853 20.482279,119.333672 26.274010,117.191154 
	C31.942417,115.094261 34.034576,110.084885 34.066055,104.412018 
	C34.086075,100.804504 33.412437,97.172920 32.834084,93.586929 
	C31.915007,87.888390 30.815668,82.218933 29.010551,76.376434 
M104.683632,80.863686 
	C98.788864,81.195160 92.894096,81.526634 87.084366,81.853325 
	C87.084366,89.585030 87.084366,96.852821 87.084366,104.222855 
	C89.893433,104.222855 92.442528,104.222855 95.402969,104.222855 
	C95.402969,98.977432 95.402969,94.056816 95.402969,88.668076 
	C97.948990,88.668076 100.082985,88.575600 102.206520,88.685509 
	C108.438950,89.008095 111.792023,92.460808 111.785263,98.435745 
	C111.778481,104.429916 108.427193,107.932808 102.196899,108.130379 
	C97.240738,108.287544 92.275604,108.162056 87.388115,108.162056 
	C86.298782,115.900742 86.475922,116.120461 93.377464,116.124344 
	C96.208664,116.125938 99.039970,116.141037 101.871033,116.121414 
	C111.634766,116.053741 119.331642,110.776642 120.011391,103.199158 
	C121.110039,90.951881 118.799034,83.724861 104.683632,80.863686 
M229.834717,50.390648 
	C227.241638,50.315384 224.626282,49.992096 222.060669,50.222584 
	C218.144775,50.574383 213.846268,50.448219 210.466370,52.085732 
	C205.580917,54.452671 203.863068,60.806519 205.466019,65.947678 
	C207.130173,71.285103 211.729248,74.872864 217.269943,75.000877 
	C219.177246,75.044945 221.091736,74.778008 223.002945,74.653152 
	C223.161987,75.174599 223.321030,75.696053 223.480072,76.217499 
	C221.326935,76.874222 218.977142,78.429611 217.059570,78.009941 
	C212.337601,76.976532 210.453552,79.081360 209.350693,83.025734 
	C218.355057,87.320686 229.146347,85.712082 230.539474,78.587234 
	C232.300919,69.578659 231.228119,60.014965 231.338165,50.690243 
	C231.340714,50.472851 230.872269,50.249897 229.834717,50.390648 
M156.739716,104.170967 
	C159.231674,104.135071 161.737396,104.254044 164.212997,104.034134 
	C171.510147,103.385925 175.964386,97.730659 174.898590,90.639824 
	C173.910706,84.067314 167.741394,79.860161 161.032608,80.801529 
	C156.129700,81.489502 151.155914,81.672554 146.253143,82.077423 
	C146.253143,93.027527 146.253143,104.434319 146.253143,115.910858 
	C149.101715,115.910858 151.691116,115.910858 154.234192,115.910858 
	C154.778152,111.875465 155.291763,108.065247 156.739716,104.170967 
M215.250687,91.461136 
	C211.344360,91.461136 207.438034,91.461136 203.165909,91.461136 
	C203.165909,97.407906 203.165924,103.042534 203.165924,108.677170 
	C203.165924,114.443153 203.165909,120.209137 203.165909,126.435661 
	C205.945786,126.134880 209.470825,126.520012 209.880264,125.566833 
	C211.157410,122.593582 211.255905,119.114037 211.840164,115.660751 
	C212.480957,115.790070 213.132858,115.858955 213.744110,116.054764 
	C219.435349,117.877853 224.348892,116.553757 228.093674,111.984901 
	C231.410995,107.937576 232.210510,103.130791 229.683853,98.477600 
	C226.833786,93.228760 222.205627,90.570053 215.250687,91.461136 
M233.669983,125.967201 
	C235.789520,125.901176 239.453873,126.439690 239.757736,125.663147 
	C240.988907,122.517021 241.186600,118.966476 241.774017,115.515747 
	C242.731613,115.762421 243.683960,116.015297 244.640152,116.252831 
	C251.293381,117.905609 257.562653,114.818405 260.065338,108.660103 
	C262.505768,102.654984 260.244629,97.633133 254.326187,93.340172 
	C247.493134,88.383789 240.241943,94.392189 233.184845,90.390724 
	C233.184845,102.951149 233.184845,114.053337 233.669983,125.967201 
M288.650482,101.079651 
	C286.819214,94.765244 282.955353,90.866554 278.337738,90.673958 
	C270.140350,90.332054 265.480560,92.899445 263.434631,98.885109 
	C261.433777,104.738838 263.195129,111.523987 267.551056,114.742706 
	C272.208893,118.184502 279.971161,118.158485 284.694122,114.584015 
	C283.564301,112.812485 282.427948,111.030716 281.342957,109.329430 
	C277.542633,110.456940 274.055450,111.531105 271.139343,106.425201 
	C277.585663,106.425201 283.135132,106.425201 288.844421,106.425201 
	C288.844421,104.506676 288.844421,103.194656 288.650482,101.079651 
M175.415100,99.414223 
	C174.096558,105.536819 174.713928,111.231735 180.351440,114.939034 
	C185.625061,118.407005 191.252319,117.822105 197.296478,115.178101 
	C195.870911,112.863739 194.700089,110.962944 193.569565,109.127594 
	C189.579926,110.550255 186.085266,111.366493 183.408356,106.211212 
	C188.231430,106.211212 192.190536,106.236740 196.149185,106.204651 
	C200.937241,106.165840 201.939560,104.790398 200.698456,100.065422 
	C199.208237,94.392227 195.191010,90.870102 189.480484,90.230064 
	C183.401001,89.548676 178.773422,92.388023 175.415100,99.414223 
M125.445602,49.860088 
	C117.831276,54.207401 115.574036,62.592625 119.642471,69.806496 
	C122.501503,74.875923 132.615402,78.550179 139.888199,73.202835 
	C138.778519,71.398598 137.662430,69.583961 136.576416,67.818192 
	C129.731110,70.253548 129.507523,70.190483 126.938141,64.743530 
	C132.728912,64.743530 138.255692,64.743530 143.710587,64.743530 
	C144.221268,56.147739 140.833740,50.329823 134.500488,49.195362 
	C131.822189,48.715611 128.934814,49.403137 125.445602,49.860088 
M15.635948,58.877998 
	C19.471655,61.167343 23.307362,63.456688 27.098173,65.719231 
	C28.419685,59.930557 29.577934,55.308239 30.512606,50.641144 
	C31.530455,45.558720 29.301035,40.258522 25.449598,38.077999 
	C21.663492,35.934460 16.089361,36.614197 12.945385,39.602825 
	C9.620789,42.763149 8.527120,48.138367 10.729370,52.430046 
	C11.839553,54.593536 13.627202,56.409393 15.635948,58.877998 
M152.611374,50.812832 
	C150.505173,50.812832 148.398972,50.812832 146.075836,50.812832 
	C146.075836,55.214180 145.878372,60.042313 146.124054,64.847794 
	C146.457520,71.370537 150.778198,75.087181 157.739990,75.254120 
	C165.063980,75.429756 169.499710,72.309563 170.111984,65.817184 
	C170.571564,60.943703 170.202774,55.992104 170.202774,50.819878 
	C167.318527,50.819878 164.871704,50.819878 162.581055,50.819878 
	C160.396729,56.516060 165.892090,64.374229 156.770859,69.734703 
	C155.790970,66.364830 154.703171,63.612259 154.236923,60.758160 
	C153.710968,57.538559 153.744293,54.227604 152.611374,50.812832 
M114.236221,74.002487 
	C117.745689,74.062706 118.904007,72.882095 116.759331,69.596779 
	C114.587067,66.269218 112.367676,62.934364 110.637840,59.374821 
	C109.949081,57.957539 109.906174,55.606731 110.626427,54.236679 
	C113.119072,49.495216 116.076706,44.998196 119.190552,39.858120 
	C113.693039,40.342449 109.595062,38.938622 105.526840,44.341808 
	C98.315338,53.919731 99.602448,61.529747 106.377113,70.093323 
	C108.411560,72.664978 109.935982,74.663094 114.236221,74.002487 
M304.379456,91.677917 
	C300.360352,91.677917 296.341217,91.677917 291.868164,91.677917 
	C291.868164,97.422012 291.867645,103.211182 291.868286,109.000359 
	C291.869171,116.659622 292.004517,116.774864 299.972504,115.597511 
	C299.972504,111.517738 300.086151,107.378609 299.935425,103.249123 
	C299.821289,100.123444 301.275726,98.255478 304.208771,98.366798 
	C309.253510,98.558266 309.668701,95.976936 308.694885,91.972336 
	C307.471771,91.913651 306.326874,91.858727 304.379456,91.677917 
M132.130676,105.782196 
	C132.210205,99.114899 133.193298,98.103897 140.983643,96.722626 
	C140.983643,95.185707 140.983643,93.644844 140.983643,91.992508 
	C135.174347,91.992508 129.698242,91.992508 124.175110,91.992508 
	C124.175110,99.884811 124.175110,107.835732 124.175110,116.347763 
	C127.029602,115.753632 129.592484,115.220192 132.130692,114.691887 
	C132.130692,111.688438 132.130692,109.193375 132.130676,105.782196 
M202.084351,65.450775 
	C202.084351,60.671684 202.084351,55.892593 202.084351,51.056549 
	C199.133850,51.056549 196.731674,51.056549 194.344727,51.056549 
	C194.344727,59.027081 194.344727,66.735474 194.344727,74.290749 
	C197.111603,74.290749 199.500900,74.290749 202.084351,74.290749 
	C202.084351,71.412888 202.084351,68.922104 202.084351,65.450775 
M7.788088,72.653862 
	C12.327851,75.669540 16.904327,75.123207 17.833881,70.990372 
	C18.315304,68.849968 17.532061,65.141022 16.017399,64.167389 
	C14.206950,63.003613 10.552306,63.169762 8.510838,64.270386 
	C5.556635,65.863106 5.531623,69.118195 7.788088,72.653862 
M194.138733,44.139359 
	C195.867371,45.026485 197.586716,46.524590 199.328476,46.551121 
	C200.242645,46.565041 202.135300,43.802872 201.892334,42.651878 
	C201.593491,41.236229 199.007095,38.949425 198.328125,39.233650 
	C196.608704,39.953442 195.402771,41.899822 194.138733,44.139359 
M23.788042,68.227455 
	C23.279301,69.902260 22.571100,71.560471 22.429176,73.265816 
	C22.400600,73.609184 24.663162,74.672211 25.610807,74.422432 
	C26.603226,74.160835 28.149660,72.233162 27.949638,71.875885 
	C27.136997,70.424347 25.746653,69.296227 23.788042,68.227455 
z"/>
<path fill="#36373B" opacity="1.000000" stroke="none" 
	d="
M78.004158,115.939575 
	C71.969383,116.000465 65.934608,116.061356 59.326569,115.812149 
	C58.542156,115.260307 58.281731,115.097282 57.972023,115.012955 
	C57.972023,115.012955 58.005634,115.008507 57.956936,114.710678 
	C57.543133,113.960793 57.178028,113.508728 56.812927,113.056656 
	C50.051136,101.823105 43.241432,90.617630 36.613209,79.305809 
	C36.047131,78.339737 36.237091,76.405495 36.839119,75.360916 
	C43.233192,64.266464 49.763237,53.249996 56.322495,42.251808 
	C56.862114,41.347000 57.843182,40.144463 58.697231,40.077587 
	C65.107368,39.575615 71.536118,39.298767 77.962624,39.040844 
	C78.500420,39.019260 79.064514,39.652798 80.027733,40.227310 
	C74.547340,49.273796 69.750084,58.648197 63.557587,66.986404 
	C57.885853,74.623405 57.590984,80.691986 63.658340,88.204102 
	C68.522629,94.226677 71.915619,101.437592 76.089096,108.700310 
	C76.448235,109.513992 76.679817,109.748505 76.911407,109.983017 
	C77.268013,110.434769 77.624619,110.886513 78.005081,112.029655 
	C78.020676,113.793900 78.012421,114.866737 78.004158,115.939575 
z"/>
<path fill="#D02356" opacity="1.000000" stroke="none" 
	d="
M29.401566,76.456802 
	C30.815668,82.218933 31.915007,87.888390 32.834084,93.586929 
	C33.412437,97.172920 34.086075,100.804504 34.066055,104.412018 
	C34.034576,110.084885 31.942417,115.094261 26.274010,117.191154 
	C20.482279,119.333672 14.482169,119.392853 9.582365,114.848862 
	C5.018769,110.616653 2.756737,105.238052 4.821271,99.076591 
	C8.780202,87.261429 18.049351,80.859314 29.401566,76.456802 
z"/>
<path fill="#35363A" opacity="1.000000" stroke="none" 
	d="
M105.109108,80.895477 
	C118.799034,83.724861 121.110039,90.951881 120.011391,103.199158 
	C119.331642,110.776642 111.634766,116.053741 101.871033,116.121414 
	C99.039970,116.141037 96.208664,116.125938 93.377464,116.124344 
	C86.475922,116.120461 86.298782,115.900742 87.388115,108.162056 
	C92.275604,108.162056 97.240738,108.287544 102.196899,108.130379 
	C108.427193,107.932808 111.778481,104.429916 111.785263,98.435745 
	C111.792023,92.460808 108.438950,89.008095 102.206520,88.685509 
	C100.082985,88.575600 97.948990,88.668076 95.402969,88.668076 
	C95.402969,94.056816 95.402969,98.977432 95.402969,104.222855 
	C92.442528,104.222855 89.893433,104.222855 87.084366,104.222855 
	C87.084366,96.852821 87.084366,89.585030 87.084366,81.853325 
	C92.894096,81.526634 98.788864,81.195160 105.109108,80.895477 
z"/>
<path fill="#38383C" opacity="1.000000" stroke="none" 
	d="
M230.229126,50.210091 
	C230.872269,50.249897 231.340714,50.472851 231.338165,50.690243 
	C231.228119,60.014965 232.300919,69.578659 230.539474,78.587234 
	C229.146347,85.712082 218.355057,87.320686 209.350693,83.025734 
	C210.453552,79.081360 212.337601,76.976532 217.059570,78.009941 
	C218.977142,78.429611 221.326935,76.874222 223.480072,76.217499 
	C223.321030,75.696053 223.161987,75.174599 223.002945,74.653152 
	C221.091736,74.778008 219.177246,75.044945 217.269943,75.000877 
	C211.729248,74.872864 207.130173,71.285103 205.466019,65.947678 
	C203.863068,60.806519 205.580917,54.452671 210.466370,52.085732 
	C213.846268,50.448219 218.144775,50.574383 222.060669,50.222584 
	C224.626282,49.992096 227.241638,50.315384 230.229126,50.210091 
M212.539291,63.148434 
	C214.635956,67.649590 217.591980,69.265930 220.949036,67.555359 
	C224.126312,65.936401 225.217438,62.972157 223.674835,60.029438 
	C222.770218,58.303741 220.238480,56.491768 218.367905,56.413673 
	C214.834229,56.266140 212.732559,58.773335 212.539291,63.148434 
z"/>
<path fill="#38393D" opacity="1.000000" stroke="none" 
	d="
M156.272537,104.212997 
	C155.291763,108.065247 154.778152,111.875465 154.234192,115.910858 
	C151.691116,115.910858 149.101715,115.910858 146.253143,115.910858 
	C146.253143,104.434319 146.253143,93.027527 146.253143,82.077423 
	C151.155914,81.672554 156.129700,81.489502 161.032608,80.801529 
	C167.741394,79.860161 173.910706,84.067314 174.898590,90.639824 
	C175.964386,97.730659 171.510147,103.385925 164.212997,104.034134 
	C161.737396,104.254044 159.231674,104.135071 156.272537,104.212997 
M166.019150,91.684715 
	C163.485748,86.369431 158.971680,88.727463 155.122559,88.251778 
	C155.122559,91.763954 155.122559,94.662460 155.122559,98.649002 
	C158.994034,95.804146 164.798660,98.873886 166.019150,91.684715 
z"/>
<path fill="#3C3C40" opacity="1.000000" stroke="none" 
	d="
M215.634979,91.346481 
	C222.205627,90.570053 226.833786,93.228760 229.683853,98.477600 
	C232.210510,103.130791 231.410995,107.937576 228.093674,111.984901 
	C224.348892,116.553757 219.435349,117.877853 213.744110,116.054764 
	C213.132858,115.858955 212.480957,115.790070 211.840164,115.660751 
	C211.255905,119.114037 211.157410,122.593582 209.880264,125.566833 
	C209.470825,126.520012 205.945786,126.134880 203.165909,126.435661 
	C203.165909,120.209137 203.165924,114.443153 203.165924,108.677170 
	C203.165924,103.042534 203.165909,97.407906 203.165909,91.461136 
	C207.438034,91.461136 211.344360,91.461136 215.634979,91.346481 
M216.765640,109.874939 
	C222.822128,109.005608 225.713379,104.410797 222.305695,100.641312 
	C220.995407,99.191933 218.102921,98.026619 216.346481,98.450783 
	C214.606873,98.870895 212.712982,101.237961 212.097580,103.142326 
	C211.088074,106.266342 213.077652,108.454552 216.765640,109.874939 
z"/>
<path fill="#3C3C40" opacity="1.000000" stroke="none" 
	d="
M233.427414,125.561363 
	C233.184845,114.053337 233.184845,102.951149 233.184845,90.390724 
	C240.241943,94.392189 247.493134,88.383789 254.326187,93.340172 
	C260.244629,97.633133 262.505768,102.654984 260.065338,108.660103 
	C257.562653,114.818405 251.293381,117.905609 244.640152,116.252831 
	C243.683960,116.015297 242.731613,115.762421 241.774017,115.515747 
	C241.186600,118.966476 240.988907,122.517021 239.757736,125.663147 
	C239.453873,126.439690 235.789520,125.901176 233.427414,125.561363 
M243.314453,99.975937 
	C243.250168,102.563530 242.616562,105.333214 243.361435,107.661987 
	C243.734665,108.828880 246.755005,110.018028 248.343170,109.758598 
	C252.509064,109.078102 254.422379,105.593285 253.180069,102.157227 
	C251.770065,98.257362 248.452942,97.284805 243.314453,99.975937 
z"/>
<path fill="#3A3A3E" opacity="1.000000" stroke="none" 
	d="
M288.747437,101.481140 
	C288.844421,103.194656 288.844421,104.506676 288.844421,106.425201 
	C283.135132,106.425201 277.585663,106.425201 271.139343,106.425201 
	C274.055450,111.531105 277.542633,110.456940 281.342957,109.329430 
	C282.427948,111.030716 283.564301,112.812485 284.694122,114.584015 
	C279.971161,118.158485 272.208893,118.184502 267.551056,114.742706 
	C263.195129,111.523987 261.433777,104.738838 263.434631,98.885109 
	C265.480560,92.899445 270.140350,90.332054 278.337738,90.673958 
	C282.955353,90.866554 286.819214,94.765244 288.747437,101.481140 
M272.893066,101.145935 
	C275.232666,101.145935 277.572235,101.145935 279.911835,101.145935 
	C280.049194,100.570549 280.186584,99.995163 280.323975,99.419777 
	C278.602997,98.748962 276.840393,97.494331 275.175781,97.613083 
	C274.070435,97.691956 273.105194,99.734978 272.893066,101.145935 
z"/>
<path fill="#3A3A3E" opacity="1.000000" stroke="none" 
	d="
M175.575607,99.038719 
	C178.773422,92.388023 183.401001,89.548676 189.480484,90.230064 
	C195.191010,90.870102 199.208237,94.392227 200.698456,100.065422 
	C201.939560,104.790398 200.937241,106.165840 196.149185,106.204651 
	C192.190536,106.236740 188.231430,106.211212 183.408356,106.211212 
	C186.085266,111.366493 189.579926,110.550255 193.569565,109.127594 
	C194.700089,110.962944 195.870911,112.863739 197.296478,115.178101 
	C191.252319,117.822105 185.625061,118.407005 180.351440,114.939034 
	C174.713928,111.231735 174.096558,105.536819 175.575607,99.038719 
M191.562866,98.762527 
	C187.201828,96.345894 186.331894,96.551460 183.308716,101.983002 
	C186.933517,100.886208 189.463181,100.120789 191.562866,98.762527 
z"/>
<path fill="#3B3A3E" opacity="1.000000" stroke="none" 
	d="
M125.794037,49.710098 
	C128.934814,49.403137 131.822189,48.715611 134.500488,49.195362 
	C140.833740,50.329823 144.221268,56.147739 143.710587,64.743530 
	C138.255692,64.743530 132.728912,64.743530 126.938141,64.743530 
	C129.507523,70.190483 129.731110,70.253548 136.576416,67.818192 
	C137.662430,69.583961 138.778519,71.398598 139.888199,73.202835 
	C132.615402,78.550179 122.501503,74.875923 119.642471,69.806496 
	C115.574036,62.592625 117.831276,54.207401 125.794037,49.710098 
M130.715347,60.863373 
	C132.115326,60.777790 133.515305,60.692211 136.040192,60.537865 
	C134.731720,58.559891 134.157455,56.663521 133.094604,56.331604 
	C131.586319,55.860577 129.612381,56.261776 128.050751,56.853413 
	C127.320015,57.130260 127.088821,58.725708 126.631233,59.723545 
	C127.716164,60.103531 128.801086,60.483513 130.715347,60.863373 
z"/>
<path fill="#7CC245" opacity="1.000000" stroke="none" 
	d="
M15.372231,58.630219 
	C13.627202,56.409393 11.839553,54.593536 10.729370,52.430046 
	C8.527120,48.138367 9.620789,42.763149 12.945385,39.602825 
	C16.089361,36.614197 21.663492,35.934460 25.449598,38.077999 
	C29.301035,40.258522 31.530455,45.558720 30.512606,50.641144 
	C29.577934,55.308239 28.419685,59.930557 27.098173,65.719231 
	C23.307362,63.456688 19.471655,61.167343 15.372231,58.630219 
z"/>
<path fill="#3A3A3E" opacity="1.000000" stroke="none" 
	d="
M153.072876,50.884605 
	C153.744293,54.227604 153.710968,57.538559 154.236923,60.758160 
	C154.703171,63.612259 155.790970,66.364830 156.770859,69.734703 
	C165.892090,64.374229 160.396729,56.516060 162.581055,50.819878 
	C164.871704,50.819878 167.318527,50.819878 170.202774,50.819878 
	C170.202774,55.992104 170.571564,60.943703 170.111984,65.817184 
	C169.499710,72.309563 165.063980,75.429756 157.739990,75.254120 
	C150.778198,75.087181 146.457520,71.370537 146.124054,64.847794 
	C145.878372,60.042313 146.075836,55.214180 146.075836,50.812832 
	C148.398972,50.812832 150.505173,50.812832 153.072876,50.884605 
z"/>
<path fill="#38393D" opacity="1.000000" stroke="none" 
	d="
M113.816170,74.002548 
	C109.935982,74.663094 108.411560,72.664978 106.377113,70.093323 
	C99.602448,61.529747 98.315338,53.919731 105.526840,44.341808 
	C109.595062,38.938622 113.693039,40.342449 119.190552,39.858120 
	C116.076706,44.998196 113.119072,49.495216 110.626427,54.236679 
	C109.906174,55.606731 109.949081,57.957539 110.637840,59.374821 
	C112.367676,62.934364 114.587067,66.269218 116.759331,69.596779 
	C118.904007,72.882095 117.745689,74.062706 113.816170,74.002548 
z"/>
<path fill="#3D3D41" opacity="1.000000" stroke="none" 
	d="
M173.936737,72.980858 
	C173.862305,65.967667 173.787872,58.954472 174.072174,51.392845 
	C174.624237,50.549309 174.817581,50.254204 175.010925,49.959099 
	C180.144760,49.959103 185.278564,49.959103 190.748398,49.959103 
	C190.748398,51.640491 190.748398,53.892754 190.748398,56.218822 
	C190.568939,56.363503 190.317825,56.742523 190.067673,56.741879 
	C183.404984,56.724617 181.513565,55.619541 181.745804,65.719345 
	C181.809906,68.506897 181.755554,71.297165 181.755554,74.647049 
	C179.475830,74.647049 177.550446,74.647049 175.197754,74.205765 
	C174.492538,73.503273 174.214630,73.242065 173.936737,72.980858 
z"/>
<path fill="#38383C" opacity="1.000000" stroke="none" 
	d="
M304.780731,91.740860 
	C306.326874,91.858727 307.471771,91.913651 308.694885,91.972336 
	C309.668701,95.976936 309.253510,98.558266 304.208771,98.366798 
	C301.275726,98.255478 299.821289,100.123444 299.935425,103.249123 
	C300.086151,107.378609 299.972504,111.517738 299.972504,115.597511 
	C292.004517,116.774864 291.869171,116.659622 291.868286,109.000359 
	C291.867645,103.211182 291.868164,97.422012 291.868164,91.677917 
	C296.341217,91.677917 300.360352,91.677917 304.780731,91.740860 
z"/>
<path fill="#38373B" opacity="1.000000" stroke="none" 
	d="
M132.130676,106.240250 
	C132.130692,109.193375 132.130692,111.688438 132.130692,114.691887 
	C129.592484,115.220192 127.029602,115.753632 124.175110,116.347763 
	C124.175110,107.835732 124.175110,99.884811 124.175110,91.992508 
	C129.698242,91.992508 135.174347,91.992508 140.983643,91.992508 
	C140.983643,93.644844 140.983643,95.185707 140.983643,96.722626 
	C133.193298,98.103897 132.210205,99.114899 132.130676,106.240250 
z"/>
<path fill="#35363A" opacity="1.000000" stroke="none" 
	d="
M87.986221,40.096767 
	C89.709625,40.046803 91.433037,39.996841 93.577225,40.487183 
	C93.998016,51.476841 93.998016,61.926189 93.998016,73.001122 
	C91.246605,73.001122 89.132462,73.001122 87.018318,73.001122 
	C86.963867,62.640106 86.909409,52.279091 87.151077,41.364464 
	C87.708237,40.634243 87.887909,40.396217 87.986221,40.096767 
z"/>
<path fill="#36373B" opacity="1.000000" stroke="none" 
	d="
M202.084351,65.941055 
	C202.084351,68.922104 202.084351,71.412888 202.084351,74.290749 
	C199.500900,74.290749 197.111603,74.290749 194.344727,74.290749 
	C194.344727,66.735474 194.344727,59.027081 194.344727,51.056549 
	C196.731674,51.056549 199.133850,51.056549 202.084351,51.056549 
	C202.084351,55.892593 202.084351,60.671684 202.084351,65.941055 
z"/>
<path fill="#8E3F3C" opacity="1.000000" stroke="none" 
	d="
M7.537015,72.370155 
	C5.531623,69.118195 5.556635,65.863106 8.510838,64.270386 
	C10.552306,63.169762 14.206950,63.003613 16.017399,64.167389 
	C17.532061,65.141022 18.315304,68.849968 17.833881,70.990372 
	C16.904327,75.123207 12.327851,75.669540 7.537015,72.370155 
z"/>
<path fill="#2C2C32" opacity="1.000000" stroke="none" 
	d="
M87.005142,73.400787 
	C89.132462,73.001122 91.246605,73.001122 93.998016,73.001122 
	C93.998016,61.926189 93.998016,51.476841 94.001907,40.565575 
	C94.412651,40.474819 95.172806,40.843933 95.174973,41.217442 
	C95.238403,52.166172 95.226349,63.115337 95.226349,74.918404 
	C92.206024,74.508339 89.598991,74.154388 87.005142,73.400787 
z"/>
<path fill="#38393D" opacity="1.000000" stroke="none" 
	d="
M194.064957,43.747139 
	C195.402771,41.899822 196.608704,39.953442 198.328125,39.233650 
	C199.007095,38.949425 201.593491,41.236229 201.892334,42.651878 
	C202.135300,43.802872 200.242645,46.565041 199.328476,46.551121 
	C197.586716,46.524590 195.867371,45.026485 194.064957,43.747139 
z"/>
<path fill="#49C9F1" opacity="1.000000" stroke="none" 
	d="
M24.178684,68.138153 
	C25.746653,69.296227 27.136997,70.424347 27.949638,71.875885 
	C28.149660,72.233162 26.603226,74.160835 25.610807,74.422432 
	C24.663162,74.672211 22.400600,73.609184 22.429176,73.265816 
	C22.571100,71.560471 23.279301,69.902260 24.178684,68.138153 
z"/>
<path fill="#2C2C32" opacity="1.000000" stroke="none" 
	d="
M78.379013,116.023209 
	C78.012421,114.866737 78.020676,113.793900 78.028412,112.318726 
	C80.524246,115.083641 80.524246,115.083641 78.379013,116.023209 
z"/>
<path fill="#2C2C32" opacity="1.000000" stroke="none" 
	d="
M56.862526,113.351166 
	C57.178028,113.508728 57.543133,113.960793 57.944809,114.723183 
	C57.624962,114.570900 57.268547,114.108284 56.862526,113.351166 
z"/>
<path fill="#212329" opacity="1.000000" stroke="none" 
	d="
M174.684021,49.940712 
	C174.817581,50.254204 174.624237,50.549309 174.174347,50.935440 
	C174.064224,50.658417 174.210663,50.290371 174.684021,49.940712 
z"/>
<path fill="#212329" opacity="1.000000" stroke="none" 
	d="
M173.905060,73.321579 
	C174.214630,73.242065 174.492538,73.503273 174.844971,74.050751 
	C174.570801,74.112114 174.222107,73.887207 173.905060,73.321579 
z"/>
<path fill="#2C2C32" opacity="1.000000" stroke="none" 
	d="
M76.892303,109.715240 
	C76.679817,109.748505 76.448235,109.513992 76.137115,109.040741 
	C76.329453,109.017166 76.601326,109.232315 76.892303,109.715240 
z"/>
<path fill="#2C2C32" opacity="1.000000" stroke="none" 
	d="
M58.009357,115.285172 
	C58.281731,115.097282 58.542156,115.260307 58.867878,115.705063 
	C58.670528,115.791176 58.358612,115.674278 58.009357,115.285172 
z"/>
<path fill="#2C2C32" opacity="1.000000" stroke="none" 
	d="
M87.696457,40.054657 
	C87.887909,40.396217 87.708237,40.634243 87.239647,40.902733 
	C87.156952,40.667263 87.281822,40.339905 87.696457,40.054657 
z"/>
<path fill="#F5F6F7" opacity="1.000000" stroke="none" 
	d="
M212.454498,62.789276 
	C212.732559,58.773335 214.834229,56.266140 218.367905,56.413673 
	C220.238480,56.491768 222.770218,58.303741 223.674835,60.029438 
	C225.217438,62.972157 224.126312,65.936401 220.949036,67.555359 
	C217.591980,69.265930 214.635956,67.649590 212.454498,62.789276 
z"/>
<path fill="#EDEEEF" opacity="1.000000" stroke="none" 
	d="
M166.049408,92.088318 
	C164.798660,98.873886 158.994034,95.804146 155.122559,98.649002 
	C155.122559,94.662460 155.122559,91.763954 155.122559,88.251778 
	C158.971680,88.727463 163.485748,86.369431 166.049408,92.088318 
z"/>
<path fill="#F7F8F9" opacity="1.000000" stroke="none" 
	d="
M216.391708,109.769562 
	C213.077652,108.454552 211.088074,106.266342 212.097580,103.142326 
	C212.712982,101.237961 214.606873,98.870895 216.346481,98.450783 
	C218.102921,98.026619 220.995407,99.191933 222.305695,100.641312 
	C225.713379,104.410797 222.822128,109.005608 216.391708,109.769562 
z"/>
<path fill="#F7F8F9" opacity="1.000000" stroke="none" 
	d="
M243.607834,99.706337 
	C248.452942,97.284805 251.770065,98.257362 253.180069,102.157227 
	C254.422379,105.593285 252.509064,109.078102 248.343170,109.758598 
	C246.755005,110.018028 243.734665,108.828880 243.361435,107.661987 
	C242.616562,105.333214 243.250168,102.563530 243.607834,99.706337 
z"/>
<path fill="#EDEEEF" opacity="1.000000" stroke="none" 
	d="
M272.485168,101.022362 
	C273.105194,99.734978 274.070435,97.691956 275.175781,97.613083 
	C276.840393,97.494331 278.602997,98.748962 280.323975,99.419777 
	C280.186584,99.995163 280.049194,100.570549 279.911835,101.145935 
	C277.572235,101.145935 275.232666,101.145935 272.485168,101.022362 
z"/>
<path fill="#EDEEEF" opacity="1.000000" stroke="none" 
	d="
M191.777863,99.058945 
	C189.463181,100.120789 186.933517,100.886208 183.308716,101.983002 
	C186.331894,96.551460 187.201828,96.345894 191.777863,99.058945 
z"/>
<path fill="#DCDBDC" opacity="1.000000" stroke="none" 
	d="
M130.300690,60.863434 
	C128.801086,60.483513 127.716164,60.103531 126.631226,59.723541 
	C127.088821,58.725708 127.320015,57.130260 128.050751,56.853413 
	C129.612381,56.261776 131.586319,55.860577 133.094604,56.331604 
	C134.157455,56.663521 134.731720,58.559891 136.040192,60.537865 
	C133.515305,60.692211 132.115326,60.777790 130.300690,60.863434 
z"/>
</svg>