<svg version="1.1" id="Layer_1" xmlns="http://www.w3.org/2000/svg" xmlns:xlink="http://www.w3.org/1999/xlink" x="0px" y="0px"
	 width="100%" viewBox="0 0 622 263" enable-background="new 0 0 622 263" xml:space="preserve">
<path fill="#FFFFFF" opacity="1.000000" stroke="none" 
	d="
M559.000000,264.000000 
	C557.285645,264.000000 555.571289,264.000000 553.428467,263.531342 
	C553.000000,252.123962 553.000000,241.185242 553.000000,230.289520 
	C549.709412,230.289520 546.974792,230.289520 544.000000,230.289520 
	C544.000000,241.718338 544.000000,252.859161 544.000000,264.000000 
	C542.611084,264.000000 541.222229,264.000000 539.414062,263.626801 
	C535.447632,256.975555 531.900452,250.697510 528.347168,244.408585 
	C531.929443,239.910675 535.603210,235.297867 539.635559,230.234833 
	C527.988770,230.023590 530.410461,228.250992 523.501648,236.921616 
	C522.178955,238.581589 520.356140,239.843109 518.294495,241.714813 
	C517.448547,229.224289 517.448547,229.224289 508.000031,230.520401 
	C508.000031,240.249680 507.960449,250.030685 508.044525,259.810608 
	C508.056580,261.209717 508.666687,262.603668 509.000000,264.000000 
	C506.629425,264.000000 504.258881,264.000000 501.577515,263.603638 
	C501.574890,260.568542 501.883026,257.929840 502.244446,254.834839 
	C496.028381,254.834839 490.627228,254.834839 485.283813,254.834839 
	C485.283813,249.363083 485.283813,244.306763 485.283813,238.999924 
	C489.525970,238.999924 493.497253,238.821884 497.444519,239.053574 
	C500.901642,239.256485 502.426605,238.044861 502.026062,234.513733 
	C501.866882,233.110275 501.999908,231.673660 501.999908,230.000046 
	C495.148224,230.000046 488.860138,229.963272 482.572662,230.011520 
	C477.417328,230.051086 476.042267,231.475723 476.009033,236.764069 
	C475.970398,242.908096 476.204132,249.061966 475.921021,255.193161 
	C475.759399,258.692383 476.545074,261.561432 479.000000,264.000000 
	C475.969391,264.000000 472.938812,264.000000 469.454102,263.531342 
	C469.000000,254.067291 468.784668,245.064651 469.087250,236.079453 
	C469.248138,231.302078 466.842438,230.030899 462.850677,230.007507 
	C457.686829,229.977219 452.521301,230.074203 447.359100,229.977783 
	C442.817108,229.892975 440.902283,232.004135 440.963104,236.514587 
	C441.086700,245.674881 441.000000,254.838028 441.000000,264.000000 
	C438.958344,264.000000 436.916656,264.000000 434.437500,263.531342 
	C434.000000,252.134506 434.000000,241.206345 434.000000,230.269058 
	C430.740112,230.269058 428.007080,230.269058 424.865997,230.269058 
	C424.865997,234.273361 424.865997,238.022873 424.865997,241.713287 
	C421.370972,241.713287 418.303680,241.713287 414.831909,241.713287 
	C414.831909,237.687515 414.831909,233.939667 414.831909,230.305206 
	C411.674530,230.305206 408.941895,230.305206 406.000000,230.305206 
	C406.000000,241.739319 406.000000,252.869659 406.000000,264.000000 
	C398.645752,264.000000 391.291504,264.000000 383.595825,263.609863 
	C385.150146,255.858307 384.544403,255.001648 377.440063,255.000122 
	C373.993073,254.999390 370.546112,255.000000 367.099121,255.000000 
	C366.854218,254.473053 366.609314,253.946121 366.364410,253.419174 
	C367.436646,252.613190 368.403717,251.450180 369.608826,251.095230 
	C370.988281,250.688889 372.579193,251.000244 374.078217,251.000031 
	C381.341705,250.999054 381.341705,250.999084 380.675415,243.063995 
	C376.298370,243.063995 371.868439,243.063995 367.044373,243.063995 
	C367.152344,241.466202 367.231140,240.300125 367.319031,238.999756 
	C371.857147,238.999756 376.016266,238.865906 380.162170,239.042770 
	C383.383789,239.180222 384.111542,237.624969 384.053192,234.780777 
	C383.997162,232.049744 384.013641,229.835236 380.226501,229.948654 
	C373.902954,230.138046 367.565582,230.134827 361.242035,229.945068 
	C357.931732,229.845734 356.884613,231.100266 356.945679,234.322739 
	C357.106598,242.814178 356.954926,251.311157 357.044861,259.804688 
	C357.059723,261.206360 357.666687,262.601715 358.000000,264.000000 
	C354.638702,264.000000 351.277435,264.000000 347.572571,263.642120 
	C348.484711,261.575592 350.757141,259.906799 350.825958,258.151611 
	C351.188873,248.896774 350.996033,239.620117 350.996033,230.234360 
	C347.809723,230.234360 345.079620,230.234360 342.000000,230.234360 
	C342.000000,235.750671 342.049957,241.041016 341.988953,246.330063 
	C341.882538,255.558197 343.658783,255.120316 333.134827,254.932312 
	C332.862274,254.927444 332.594513,254.653580 331.916443,254.280807 
	C331.916443,246.437698 331.916443,238.363922 331.916443,230.000031 
	C330.378113,230.000031 329.226624,230.136566 328.118103,229.976273 
	C323.443573,229.300308 321.554962,230.926895 321.893738,235.938812 
	C322.330322,242.398453 322.020416,248.910004 321.991882,255.399033 
	C321.976440,258.914734 322.848846,261.978424 326.000000,264.000000 
	C321.643097,264.000000 317.286194,264.000000 312.579529,263.641724 
	C313.481659,262.114990 315.703308,261.030914 315.813629,259.763123 
	C316.237732,254.889328 315.985504,249.956696 315.985504,245.201111 
	C312.635193,245.201111 310.016205,245.201111 306.994354,245.201111 
	C306.994354,248.467285 306.994354,251.543411 306.994354,254.779419 
	C303.510284,254.779419 300.443848,254.779419 297.231445,254.779419 
	C297.231445,249.491638 297.231445,244.426376 297.231445,239.000000 
	C301.577118,239.000000 305.706116,238.881409 309.824646,239.037979 
	C313.052460,239.160690 315.166138,238.848618 315.129578,234.625473 
	C315.095917,230.731537 313.623138,229.780380 310.076538,229.940414 
	C304.927216,230.172760 299.759247,230.041687 294.600006,229.987411 
	C290.116943,229.940262 287.956116,232.070114 287.988525,236.562973 
	C288.034119,242.887558 288.254913,249.226837 287.905060,255.532333 
	C287.692932,259.355804 288.751465,262.084473 292.000000,264.000000 
	C288.638702,264.000000 285.277435,264.000000 281.597656,263.596771 
	C281.460754,253.977783 281.950500,244.752579 281.667908,235.551071 
	C281.559204,232.011414 279.295135,229.478882 274.720001,229.893707 
	C269.609283,230.357071 264.424042,230.017853 259.271423,229.994568 
	C254.971863,229.975128 252.968689,232.116440 252.989304,236.377762 
	C253.027069,244.189804 252.951401,252.002747 253.045044,259.813843 
	C253.061813,261.212860 253.666687,262.604797 254.000000,264.000000 
	C251.629440,264.000000 249.258896,264.000000 246.571381,263.609863 
	C248.151276,255.868958 247.540588,255.001694 240.464233,255.000122 
	C237.020584,254.999359 233.576920,255.000000 230.133270,255.000000 
	C229.901566,254.441925 229.669861,253.883865 229.438156,253.325790 
	C230.634827,252.550659 231.743332,251.497452 233.054001,251.081924 
	C234.262726,250.698715 235.688477,251.000137 237.018646,250.999985 
	C244.542587,250.999115 244.859436,250.611435 243.299622,242.824753 
	C238.958740,242.824753 234.536758,242.824753 230.114777,242.824753 
	C229.887222,242.316360 229.659668,241.807983 229.432114,241.299591 
	C230.639114,240.533203 231.794708,239.226318 233.063110,239.105667 
	C236.358719,238.792175 239.711411,238.861267 243.027161,239.040146 
	C246.121964,239.207108 247.289978,237.887680 247.012878,234.921341 
	C246.865631,233.345169 246.853592,231.756348 246.787094,230.315430 
	C237.963806,230.315430 229.575256,230.315430 221.000000,230.315430 
	C221.000000,241.753342 221.000000,252.876678 221.000000,264.000000 
	C219.933334,264.000000 218.866653,264.000000 217.399994,263.541046 
	C217.000000,260.480927 217.000000,257.879761 217.000000,254.891235 
	C212.092819,254.891235 207.684830,254.891235 202.903412,254.891235 
	C202.903412,246.422592 202.903412,238.360672 202.903412,230.252197 
	C199.769714,230.252197 197.041611,230.252197 194.000031,230.252197 
	C194.000031,240.272705 193.960434,250.044632 194.044540,259.815491 
	C194.056549,261.212982 194.666687,262.605286 195.000000,264.000000 
	C187.645752,264.000000 180.291504,264.000000 172.468445,263.617126 
	C170.307053,258.661774 165.665207,254.302200 170.984024,249.213806 
	C171.067749,249.133713 170.998886,248.892670 170.998886,248.726730 
	C170.999039,244.578049 171.243240,240.410736 170.929016,236.285980 
	C170.624054,232.282578 168.727219,229.712219 164.022186,229.936646 
	C158.392776,230.205154 152.730484,230.207428 147.102112,229.928253 
	C143.248199,229.737076 141.726089,230.849274 141.916718,234.933441 
	C142.225906,241.556900 141.898438,248.207596 142.045273,254.842239 
	C142.112946,257.900391 142.666656,260.947754 143.000000,264.000000 
	C139.307098,264.000000 135.614182,264.000000 131.582062,263.637451 
	C135.008575,262.918915 136.024307,260.467224 136.009338,257.137634 
	C135.977951,250.155899 135.992935,243.173935 136.002563,236.192093 
	C136.008087,232.196762 133.984406,230.087677 130.040207,230.022842 
	C124.555939,229.932678 119.067589,229.924240 113.583923,230.031265 
	C110.618576,230.089111 108.008415,230.882111 107.854095,234.612045 
	C107.575821,241.337799 106.834045,248.087662 107.198959,254.777664 
	C107.369896,257.911560 109.666664,260.929504 111.000000,264.000000 
	C106.643097,264.000000 102.286201,264.000000 97.579544,263.641724 
	C98.484756,261.954102 100.783012,260.658508 100.827309,259.289917 
	C101.141701,249.577332 100.994705,239.849808 100.994705,230.334351 
	C97.611580,230.334351 94.881996,230.334351 91.798172,230.334351 
	C91.798172,238.733200 91.798172,246.802505 91.798172,254.838699 
	C85.190582,255.127655 85.190582,255.127655 83.221344,245.354370 
	C80.511436,246.119370 76.762222,246.040833 75.403473,247.804230 
	C72.785858,251.201370 75.646530,261.473602 79.000000,264.000000 
	C76.629440,264.000000 74.258888,264.000000 71.444168,263.531342 
	C70.999992,254.067291 70.784645,245.064651 71.087242,236.079453 
	C71.248123,231.302063 68.842430,230.030899 64.850677,230.007492 
	C59.686836,229.977219 54.521294,230.074219 49.359074,229.977798 
	C44.817089,229.892960 42.902279,232.004181 42.963116,236.514587 
	C43.086681,245.674881 43.000019,254.838028 43.000000,264.000000 
	C40.958332,264.000000 38.916668,264.000000 36.437500,263.531342 
	C36.000000,254.251724 36.005745,245.440781 35.997887,236.629822 
	C35.993015,231.171951 34.924580,230.042099 29.427723,230.013641 
	C19.952045,229.964584 10.475931,230.000015 1.000000,230.000000 
	C1.000000,224.311966 1.000000,218.623917 1.355567,212.577484 
	C3.724952,213.145828 5.724176,214.836136 7.754963,214.874924 
	C20.582737,215.120102 33.418774,215.105499 46.249420,214.952850 
	C52.393814,214.879745 53.998837,212.977463 53.999043,206.869064 
	C54.000740,157.039108 53.999996,107.209160 54.000000,57.379208 
	C54.000000,55.631958 54.000004,53.884708 54.000004,52.236580 
	C65.027687,52.236580 75.303970,52.236580 86.000000,52.236580 
	C86.000000,54.257774 86.000000,56.048832 86.000000,57.839890 
	C86.000000,107.169868 85.998993,156.499847 86.001083,205.829834 
	C86.001396,213.322662 87.668892,214.976410 95.349060,214.994003 
	C105.848297,215.018036 116.347664,215.018295 126.846893,214.993149 
	C133.231979,214.977859 134.998932,213.176025 134.999130,206.800308 
	C135.000687,157.137009 135.000000,107.473724 135.000000,57.810429 
	C135.000000,56.021973 135.000000,54.233517 135.000000,52.260860 
	C146.172409,52.260860 156.899048,52.260860 168.000000,52.260860 
	C168.000000,54.314175 168.000000,56.111370 168.000000,57.908562 
	C168.000000,107.738510 167.997528,157.568451 168.003220,207.398407 
	C168.003906,213.469330 168.524597,213.990707 174.551544,213.996429 
	C187.050674,214.008286 199.549850,214.000443 212.048996,213.999847 
	C219.425247,213.999481 220.997528,212.447556 220.998001,205.098328 
	C221.001633,149.102127 221.067734,93.105789 220.955902,37.109818 
	C220.925079,21.677868 211.367081,7.879079 196.220078,2.980856 
	C194.149704,2.311341 192.073502,1.659841 190.000000,1.000000 
	C211.354233,1.000000 232.708450,1.000000 254.422379,1.355910 
	C253.854721,4.390913 252.123856,7.068144 252.117645,9.749378 
	C251.966843,74.740540 251.999924,139.732117 252.000092,204.723633 
	C252.000107,213.697708 253.289078,214.998260 262.236511,214.998795 
	C306.730682,215.001434 351.224884,215.000076 395.719055,214.999527 
	C396.885529,214.999512 398.063599,215.097580 399.216431,214.970352 
	C403.786774,214.466019 406.155212,212.281219 406.069946,207.266571 
	C405.857422,194.771820 406.027771,182.270935 405.987823,169.772705 
	C405.968781,163.814743 404.033173,162.001678 397.924225,162.001099 
	C370.927734,161.998550 343.931274,162.002762 316.934784,161.998154 
	C309.698883,161.996918 308.001770,160.275726 308.001373,152.947952 
	C307.998718,104.454285 307.964813,55.960537 308.086639,7.467176 
	C308.094025,4.532740 307.454041,2.481123 305.000000,1.000000 
	C350.020905,1.000000 395.041779,1.000000 440.385315,1.336227 
	C439.471924,4.113769 437.163605,6.551913 437.156403,8.996866 
	C436.960510,75.278038 436.995514,141.559891 437.007935,207.841644 
	C437.009033,213.700012 438.356659,214.985703 444.390137,214.993896 
	C458.379211,215.012909 472.368378,215.007935 486.357483,214.996246 
	C492.352966,214.991241 493.993378,213.359848 493.996063,207.383530 
	C494.006012,185.400635 493.998352,163.417755 494.001007,141.434860 
	C494.001831,134.858246 494.815277,134.013138 501.407898,134.006546 
	C520.060059,133.987915 538.712158,133.998611 557.364319,134.000671 
	C565.051880,134.001526 565.997864,134.920609 565.998962,142.410934 
	C566.002075,164.227280 565.989075,186.043655 566.007751,207.859985 
	C566.012329,213.191818 567.801147,214.982422 573.119751,214.991852 
	C586.775818,215.016052 600.433350,214.888519 614.086853,215.076797 
	C617.589600,215.125092 620.534912,214.501999 623.000000,212.000000 
	C623.000000,222.687561 623.000000,233.375122 622.547974,244.531342 
	C619.331848,245.234879 615.323486,244.457718 614.107971,245.952164 
	C612.462585,247.975143 612.960022,251.740921 612.545410,254.706879 
	C609.698975,254.706879 606.965515,254.706879 604.305420,254.706879 
	C604.305420,249.342026 604.305420,244.275345 604.305420,238.796814 
	C610.018433,238.796814 615.429321,238.796814 620.671265,238.796814 
	C620.671265,235.634384 620.671265,232.899139 620.671265,230.000061 
	C613.695740,230.000061 607.046692,230.076202 600.400757,229.966339 
	C597.305725,229.915192 595.137817,230.837906 594.957886,234.207092 
	C594.571960,241.435928 593.920349,248.686615 594.199463,255.896545 
	C594.305786,258.642609 596.666626,261.301422 598.000000,264.000000 
	C594.638733,264.000000 591.277405,264.000000 587.597656,263.596802 
	C587.505371,253.477341 587.979187,243.753510 587.683289,234.053162 
	C587.640259,232.644531 583.997131,230.368927 581.874023,230.185760 
	C575.772217,229.659348 569.589050,230.170929 563.450928,229.934982 
	C559.862244,229.797058 558.880310,231.195724 558.939636,234.594269 
	C559.110657,244.393539 559.000000,254.197739 559.000000,264.000000 
z"/>
<path fill="#E93227" opacity="1.000000" stroke="none" 
	d="
M189.531342,1.000000 
	C192.073502,1.659841 194.149704,2.311341 196.220078,2.980856 
	C211.367081,7.879079 220.925079,21.677868 220.955902,37.109818 
	C221.067734,93.105789 221.001633,149.102127 220.998001,205.098328 
	C220.997528,212.447556 219.425247,213.999481 212.048996,213.999847 
	C199.549850,214.000443 187.050674,214.008286 174.551544,213.996429 
	C168.524597,213.990707 168.003906,213.469330 168.003220,207.398407 
	C167.997528,157.568451 168.000000,107.738510 168.000000,57.908562 
	C168.000000,56.111370 168.000000,54.314175 168.000000,52.260860 
	C156.899048,52.260860 146.172409,52.260860 135.000000,52.260860 
	C135.000000,54.233517 135.000000,56.021973 135.000000,57.810429 
	C135.000000,107.473724 135.000687,157.137009 134.999130,206.800308 
	C134.998932,213.176025 133.231979,214.977859 126.846893,214.993149 
	C116.347664,215.018295 105.848297,215.018036 95.349060,214.994003 
	C87.668892,214.976410 86.001396,213.322662 86.001083,205.829834 
	C85.998993,156.499847 86.000000,107.169868 86.000000,57.839890 
	C86.000000,56.048832 86.000000,54.257774 86.000000,52.236580 
	C75.303970,52.236580 65.027687,52.236580 54.000004,52.236580 
	C54.000004,53.884708 54.000000,55.631958 54.000000,57.379208 
	C53.999996,107.209160 54.000740,157.039108 53.999043,206.869064 
	C53.998837,212.977463 52.393814,214.879745 46.249420,214.952850 
	C33.418774,215.105499 20.582737,215.120102 7.754963,214.874924 
	C5.724176,214.836136 3.724952,213.145828 1.355567,212.109558 
	C1.000000,142.312439 1.000000,72.624878 1.356689,2.468572 
	C2.475586,1.666553 3.237793,1.333277 4.000000,1.000000 
	C65.687561,1.000000 127.375122,1.000000 189.531342,1.000000 
z"/>
<path fill="#F9BA29" opacity="1.000000" stroke="none" 
	d="
M623.000000,211.531342 
	C620.534912,214.501999 617.589600,215.125092 614.086853,215.076797 
	C600.433350,214.888519 586.775818,215.016052 573.119751,214.991852 
	C567.801147,214.982422 566.012329,213.191818 566.007751,207.859985 
	C565.989075,186.043655 566.002075,164.227280 565.998962,142.410934 
	C565.997864,134.920609 565.051880,134.001526 557.364319,134.000671 
	C538.712158,133.998611 520.060059,133.987915 501.407898,134.006546 
	C494.815277,134.013138 494.001831,134.858246 494.001007,141.434860 
	C493.998352,163.417755 494.006012,185.400635 493.996063,207.383530 
	C493.993378,213.359848 492.352966,214.991241 486.357483,214.996246 
	C472.368378,215.007935 458.379211,215.012909 444.390137,214.993896 
	C438.356659,214.985703 437.009033,213.700012 437.007935,207.841644 
	C436.995514,141.559891 436.960510,75.278038 437.156403,8.996866 
	C437.163605,6.551913 439.471924,4.113769 440.853943,1.336227 
	C457.020905,1.000000 473.041779,1.000000 489.677368,1.336231 
	C494.026642,3.091936 494.008698,6.272156 494.006744,9.487381 
	C493.993774,30.784132 493.998810,52.080894 494.000702,73.377655 
	C494.001312,80.259430 494.723999,80.991531 501.707367,80.995941 
	C520.508423,81.007812 539.309448,81.004669 558.110535,80.997406 
	C564.489136,80.994942 565.995056,79.496353 565.997253,73.143555 
	C566.004456,52.013176 566.073425,30.882305 565.931702,9.752876 
	C565.906494,5.991656 566.845154,3.085018 570.000000,1.000000 
	C586.020874,1.000000 602.041809,1.000000 618.650879,1.318306 
	C620.492676,2.091076 621.746338,2.545539 623.000000,3.000001 
	C623.000000,72.354225 623.000000,141.708450 623.000000,211.531342 
z"/>
<path fill="#1853A0" opacity="1.000000" stroke="none" 
	d="
M304.531342,1.000000 
	C307.454041,2.481123 308.094025,4.532740 308.086639,7.467176 
	C307.964813,55.960537 307.998718,104.454285 308.001373,152.947952 
	C308.001770,160.275726 309.698883,161.996918 316.934784,161.998154 
	C343.931274,162.002762 370.927734,161.998550 397.924225,162.001099 
	C404.033173,162.001678 405.968781,163.814743 405.987823,169.772705 
	C406.027771,182.270935 405.857422,194.771820 406.069946,207.266571 
	C406.155212,212.281219 403.786774,214.466019 399.216431,214.970352 
	C398.063599,215.097580 396.885529,214.999512 395.719055,214.999527 
	C351.224884,215.000076 306.730682,215.001434 262.236511,214.998795 
	C253.289078,214.998260 252.000107,213.697708 252.000092,204.723633 
	C251.999924,139.732117 251.966843,74.740540 252.117645,9.749378 
	C252.123856,7.068144 253.854721,4.390913 254.891037,1.355910 
	C271.354218,1.000000 287.708466,1.000000 304.531342,1.000000 
z"/>
<path fill="#FFFFFF" opacity="1.000000" stroke="none" 
	d="
M569.531372,1.000000 
	C566.845154,3.085018 565.906494,5.991656 565.931702,9.752876 
	C566.073425,30.882305 566.004456,52.013176 565.997253,73.143555 
	C565.995056,79.496353 564.489136,80.994942 558.110535,80.997406 
	C539.309448,81.004669 520.508423,81.007812 501.707367,80.995941 
	C494.723999,80.991531 494.001312,80.259430 494.000702,73.377655 
	C493.998810,52.080894 493.993774,30.784132 494.006744,9.487381 
	C494.008698,6.272156 494.026642,3.091936 490.146057,1.336231 
	C516.354248,1.000000 542.708435,1.000000 569.531372,1.000000 
z"/>
<path fill="#242424" opacity="1.000000" stroke="none" 
	d="
M1.000000,230.468658 
	C10.475931,230.000015 19.952045,229.964584 29.427723,230.013641 
	C34.924580,230.042099 35.993015,231.171951 35.997887,236.629822 
	C36.005745,245.440781 36.000000,254.251724 36.000000,263.531342 
	C33.629440,264.000000 31.258884,264.000000 28.304604,263.596802 
	C27.350182,255.173981 26.979481,247.154373 26.608780,239.134781 
	C26.171732,238.914795 25.734686,238.694809 25.297638,238.474823 
	C24.531889,239.661530 23.137520,240.830444 23.103380,242.037842 
	C22.896515,249.353683 23.000130,256.678314 23.000000,264.000000 
	C20.629442,264.000000 18.258884,264.000000 15.304605,263.596802 
	C14.350182,255.173981 13.979481,247.154373 13.608780,239.134781 
	C13.171729,238.914795 12.734679,238.694809 12.297629,238.474823 
	C11.531883,239.661530 10.137518,240.830444 10.103378,242.037842 
	C9.896514,249.353683 10.000130,256.678314 10.000000,264.000000 
	C7.030869,264.000000 4.061739,264.000000 1.000000,264.000000 
	C1.000000,252.979248 1.000000,241.958282 1.000000,230.468658 
z"/>
<path fill="#242424" opacity="1.000000" stroke="none" 
	d="
M143.444168,264.000000 
	C142.666656,260.947754 142.112946,257.900391 142.045273,254.842239 
	C141.898438,248.207596 142.225906,241.556900 141.916718,234.933441 
	C141.726089,230.849274 143.248199,229.737076 147.102112,229.928253 
	C152.730484,230.207428 158.392776,230.205154 164.022186,229.936646 
	C168.727219,229.712219 170.624054,232.282578 170.929016,236.285980 
	C171.243240,240.410736 170.999039,244.578049 170.998886,248.726730 
	C170.998886,248.892670 171.067749,249.133713 170.984024,249.213806 
	C165.665207,254.302200 170.307053,258.661774 171.999817,263.617126 
	C168.969406,264.000000 165.938812,264.000000 162.363403,263.650574 
	C160.868256,261.457092 160.029053,259.544250 158.940598,257.785645 
	C157.444748,255.368805 156.015884,252.555222 152.508957,254.301193 
	C151.987656,257.651855 151.493820,260.825928 151.000000,264.000000 
	C148.629440,264.000000 146.258896,264.000000 143.444168,264.000000 
M161.205414,245.934296 
	C161.546738,243.782959 161.888077,241.631622 162.272552,239.208252 
	C158.206375,239.208252 154.801041,239.208252 151.205322,239.208252 
	C151.205322,241.475098 151.205322,243.539658 151.205322,245.993958 
	C154.353378,245.993958 157.310760,245.993958 161.205414,245.934296 
z"/>
<path fill="#242424" opacity="1.000000" stroke="none" 
	d="
M254.444153,264.000000 
	C253.666687,262.604797 253.061813,261.212860 253.045044,259.813843 
	C252.951401,252.002747 253.027069,244.189804 252.989304,236.377762 
	C252.968689,232.116440 254.971863,229.975128 259.271423,229.994568 
	C264.424042,230.017853 269.609283,230.357071 274.720001,229.893707 
	C279.295135,229.478882 281.559204,232.011414 281.667908,235.551071 
	C281.950500,244.752579 281.460754,253.977783 281.139587,263.596771 
	C278.629425,264.000000 276.258881,264.000000 273.312012,263.604431 
	C272.335602,260.879059 271.935516,258.549316 271.546509,256.284149 
	C268.342133,256.284149 265.262634,256.284149 262.000000,256.284149 
	C262.000000,259.043335 262.000000,261.521667 262.000000,264.000000 
	C259.629456,264.000000 257.258881,264.000000 254.444153,264.000000 
M271.999939,242.462784 
	C271.917236,241.035538 271.834503,239.608307 271.759094,238.307434 
	C268.305267,238.307434 265.235413,238.307434 262.317230,238.307434 
	C262.317230,241.025604 262.317230,243.428314 262.317230,245.998123 
	C264.945862,245.998123 267.297882,246.242706 269.552124,245.879837 
	C270.476562,245.731033 271.189941,244.271118 271.999939,242.462784 
z"/>
<path fill="#242424" opacity="1.000000" stroke="none" 
	d="
M111.468399,264.000000 
	C109.666664,260.929504 107.369896,257.911560 107.198959,254.777664 
	C106.834045,248.087662 107.575821,241.337799 107.854095,234.612045 
	C108.008415,230.882111 110.618576,230.089111 113.583923,230.031265 
	C119.067589,229.924240 124.555939,229.932678 130.040207,230.022842 
	C133.984406,230.087677 136.008087,232.196762 136.002563,236.192093 
	C135.992935,243.173935 135.977951,250.155899 136.009338,257.137634 
	C136.024307,260.467224 135.008575,262.918915 131.121429,263.637451 
	C124.645599,264.000000 118.291206,264.000000 111.468399,264.000000 
M117.071579,239.766281 
	C117.071579,244.711990 117.071579,249.657715 117.071579,254.789886 
	C120.475807,254.789886 123.538620,254.789886 126.785324,254.789886 
	C126.785324,249.515076 126.785324,244.451126 126.785324,239.078873 
	C123.631073,239.078873 120.680206,239.078873 117.071579,239.766281 
z"/>
<path fill="#242424" opacity="1.000000" stroke="none" 
	d="
M441.449982,264.000000 
	C441.000000,254.838028 441.086700,245.674881 440.963104,236.514587 
	C440.902283,232.004135 442.817108,229.892975 447.359100,229.977783 
	C452.521301,230.074203 457.686829,229.977219 462.850677,230.007507 
	C466.842438,230.030899 469.248138,231.302078 469.087250,236.079453 
	C468.784668,245.064651 469.000000,254.067291 469.000000,263.531342 
	C466.629425,264.000000 464.258881,264.000000 461.308716,263.601135 
	C460.344330,260.203491 459.959503,257.204681 459.586090,254.294647 
	C456.329498,254.294647 453.261108,254.294647 450.000000,254.294647 
	C450.000000,257.725128 450.000000,260.862579 450.000000,264.000000 
	C447.299988,264.000000 444.599976,264.000000 441.449982,264.000000 
M454.523071,237.999985 
	C453.085297,238.076965 451.647491,238.153946 450.290192,238.226624 
	C450.290192,240.975281 450.290192,243.376282 450.290192,245.708588 
	C453.658691,245.708588 456.729919,245.708588 459.700470,245.708588 
	C459.700470,243.007843 459.700470,240.606903 459.700470,238.000000 
	C458.092377,238.000000 456.782562,238.000000 454.523071,237.999985 
z"/>
<path fill="#242424" opacity="1.000000" stroke="none" 
	d="
M43.449982,264.000000 
	C43.000019,254.838028 43.086681,245.674881 42.963116,236.514587 
	C42.902279,232.004181 44.817089,229.892960 49.359074,229.977798 
	C54.521294,230.074219 59.686836,229.977219 64.850677,230.007492 
	C68.842430,230.030899 71.248123,231.302063 71.087242,236.079453 
	C70.784645,245.064651 70.999992,254.067291 71.000000,263.531342 
	C68.629440,264.000000 66.258888,264.000000 63.308762,263.601135 
	C62.344360,260.203491 61.959534,257.204681 61.586094,254.294647 
	C58.330807,254.294647 55.262157,254.294647 52.000000,254.294647 
	C52.000000,257.725128 52.000000,260.862579 52.000000,264.000000 
	C49.299988,264.000000 46.599972,264.000000 43.449982,264.000000 
M56.523102,238.000000 
	C55.085308,238.076981 53.647514,238.153961 52.290173,238.226639 
	C52.290173,240.975266 52.290173,243.376251 52.290173,245.708603 
	C55.658653,245.708603 58.729881,245.708603 61.700485,245.708603 
	C61.700485,243.007874 61.700485,240.606918 61.700485,238.274490 
	C61.090065,238.148132 60.778542,238.036591 60.463978,238.027252 
	C59.467518,237.997620 58.469921,238.006195 56.523102,238.000000 
z"/>
<path fill="#242424" opacity="1.000000" stroke="none" 
	d="
M358.468628,264.000000 
	C357.666687,262.601715 357.059723,261.206360 357.044861,259.804688 
	C356.954926,251.311157 357.106598,242.814178 356.945679,234.322739 
	C356.884613,231.100266 357.931732,229.845734 361.242035,229.945068 
	C367.565582,230.134827 373.902954,230.138046 380.226501,229.948654 
	C384.013641,229.835236 383.997162,232.049744 384.053192,234.780777 
	C384.111542,237.624969 383.383789,239.180222 380.162170,239.042770 
	C376.016266,238.865906 371.857147,238.999756 367.319031,238.999756 
	C367.231140,240.300125 367.152344,241.466202 367.044373,243.063995 
	C371.868439,243.063995 376.298370,243.063995 380.675415,243.063995 
	C381.341705,250.999084 381.341705,250.999054 374.078217,251.000031 
	C372.579193,251.000244 370.988281,250.688889 369.608826,251.095230 
	C368.403717,251.450180 367.436646,252.613190 366.364410,253.419174 
	C366.609314,253.946121 366.854218,254.473053 367.099121,255.000000 
	C370.546112,255.000000 373.993073,254.999390 377.440063,255.000122 
	C384.544403,255.001648 385.150146,255.858307 383.127197,263.609863 
	C374.979095,264.000000 366.958191,264.000000 358.468628,264.000000 
z"/>
<path fill="#242424" opacity="1.000000" stroke="none" 
	d="
M598.468506,264.000000 
	C596.666626,261.301422 594.305786,258.642609 594.199463,255.896545 
	C593.920349,248.686615 594.571960,241.435928 594.957886,234.207092 
	C595.137817,230.837906 597.305725,229.915192 600.400757,229.966339 
	C607.046692,230.076202 613.695740,230.000061 620.671265,230.000061 
	C620.671265,232.899139 620.671265,235.634384 620.671265,238.796814 
	C615.429321,238.796814 610.018433,238.796814 604.305420,238.796814 
	C604.305420,244.275345 604.305420,249.342026 604.305420,254.706879 
	C606.965515,254.706879 609.698975,254.706879 612.545410,254.706879 
	C612.960022,251.740921 612.462585,247.975143 614.107971,245.952164 
	C615.323486,244.457718 619.331848,245.234879 622.547974,245.000000 
	C623.000000,250.354935 623.000000,255.709854 622.645691,261.534363 
	C621.194275,262.669281 620.097107,263.334625 619.000000,264.000000 
	C612.312378,264.000000 605.624695,264.000000 598.468506,264.000000 
z"/>
<path fill="#242424" opacity="1.000000" stroke="none" 
	d="
M559.449951,264.000000 
	C559.000000,254.197739 559.110657,244.393539 558.939636,234.594269 
	C558.880310,231.195724 559.862244,229.797058 563.450928,229.934982 
	C569.589050,230.170929 575.772217,229.659348 581.874023,230.185760 
	C583.997131,230.368927 587.640259,232.644531 587.683289,234.053162 
	C587.979187,243.753510 587.505371,253.477341 587.139526,263.596802 
	C584.629456,264.000000 582.258850,264.000000 579.444153,263.531342 
	C579.000000,255.146011 579.000000,247.229324 579.000000,239.248627 
	C575.440430,239.248627 572.380127,239.248627 569.000000,239.248627 
	C569.000000,243.609558 569.130066,247.734451 568.963196,251.847290 
	C568.798523,255.904541 568.333313,259.949585 568.000000,264.000000 
	C565.299988,264.000000 562.599976,264.000000 559.449951,264.000000 
z"/>
<path fill="#242424" opacity="1.000000" stroke="none" 
	d="
M221.468643,264.000000 
	C221.000000,252.876678 221.000000,241.753342 221.000000,230.315430 
	C229.575256,230.315430 237.963806,230.315430 246.787094,230.315430 
	C246.853592,231.756348 246.865631,233.345169 247.012878,234.921341 
	C247.289978,237.887680 246.121964,239.207108 243.027161,239.040146 
	C239.711411,238.861267 236.358719,238.792175 233.063110,239.105667 
	C231.794708,239.226318 230.639114,240.533203 229.432114,241.299591 
	C229.659668,241.807983 229.887222,242.316360 230.114777,242.824753 
	C234.536758,242.824753 238.958740,242.824753 243.299622,242.824753 
	C244.859436,250.611435 244.542587,250.999115 237.018646,250.999985 
	C235.688477,251.000137 234.262726,250.698715 233.054001,251.081924 
	C231.743332,251.497452 230.634827,252.550659 229.438156,253.325790 
	C229.669861,253.883865 229.901566,254.441925 230.133270,255.000000 
	C233.576920,255.000000 237.020584,254.999359 240.464233,255.000122 
	C247.540588,255.001694 248.151276,255.868958 246.127197,263.609863 
	C237.979095,264.000000 229.958191,264.000000 221.468643,264.000000 
z"/>
<path fill="#242424" opacity="1.000000" stroke="none" 
	d="
M326.468536,264.000000 
	C322.848846,261.978424 321.976440,258.914734 321.991882,255.399033 
	C322.020416,248.910004 322.330322,242.398453 321.893738,235.938812 
	C321.554962,230.926895 323.443573,229.300308 328.118103,229.976273 
	C329.226624,230.136566 330.378113,230.000031 331.916443,230.000031 
	C331.916443,238.363922 331.916443,246.437698 331.916443,254.280807 
	C332.594513,254.653580 332.862274,254.927444 333.134827,254.932312 
	C343.658783,255.120316 341.882538,255.558197 341.988953,246.330063 
	C342.049957,241.041016 342.000000,235.750671 342.000000,230.234360 
	C345.079620,230.234360 347.809723,230.234360 350.996033,230.234360 
	C350.996033,239.620117 351.188873,248.896774 350.825958,258.151611 
	C350.757141,259.906799 348.484711,261.575592 347.114502,263.642120 
	C340.312347,264.000000 333.624725,264.000000 326.468536,264.000000 
z"/>
<path fill="#242424" opacity="1.000000" stroke="none" 
	d="
M509.444153,264.000000 
	C508.666687,262.603668 508.056580,261.209717 508.044525,259.810608 
	C507.960449,250.030685 508.000031,240.249680 508.000031,230.520401 
	C517.448547,229.224289 517.448547,229.224289 518.294495,241.714813 
	C520.356140,239.843109 522.178955,238.581589 523.501648,236.921616 
	C530.410461,228.250992 527.988770,230.023590 539.635559,230.234833 
	C535.603210,235.297867 531.929443,239.910675 528.347168,244.408585 
	C531.900452,250.697510 535.447632,256.975555 538.997437,263.626801 
	C535.307068,264.000000 531.614197,264.000000 527.460632,263.600647 
	C525.341309,259.137573 523.682617,255.073853 522.115173,251.233658 
	C515.653442,253.886505 517.091370,259.216949 517.000000,264.000000 
	C514.629456,264.000000 512.258850,264.000000 509.444153,264.000000 
z"/>
<path fill="#242424" opacity="1.000000" stroke="none" 
	d="
M292.468384,264.000000 
	C288.751465,262.084473 287.692932,259.355804 287.905060,255.532333 
	C288.254913,249.226837 288.034119,242.887558 287.988525,236.562973 
	C287.956116,232.070114 290.116943,229.940262 294.600006,229.987411 
	C299.759247,230.041687 304.927216,230.172760 310.076538,229.940414 
	C313.623138,229.780380 315.095917,230.731537 315.129578,234.625473 
	C315.166138,238.848618 313.052460,239.160690 309.824646,239.037979 
	C305.706116,238.881409 301.577118,239.000000 297.231445,239.000000 
	C297.231445,244.426376 297.231445,249.491638 297.231445,254.779419 
	C300.443848,254.779419 303.510284,254.779419 306.994354,254.779419 
	C306.994354,251.543411 306.994354,248.467285 306.994354,245.201111 
	C310.016205,245.201111 312.635193,245.201111 315.985504,245.201111 
	C315.985504,249.956696 316.237732,254.889328 315.813629,259.763123 
	C315.703308,261.030914 313.481659,262.114990 312.114868,263.641724 
	C305.645599,264.000000 299.291199,264.000000 292.468384,264.000000 
z"/>
<path fill="#242424" opacity="1.000000" stroke="none" 
	d="
M406.449982,264.000000 
	C406.000000,252.869659 406.000000,241.739319 406.000000,230.305206 
	C408.941895,230.305206 411.674530,230.305206 414.831909,230.305206 
	C414.831909,233.939667 414.831909,237.687515 414.831909,241.713287 
	C418.303680,241.713287 421.370972,241.713287 424.865997,241.713287 
	C424.865997,238.022873 424.865997,234.273361 424.865997,230.269058 
	C428.007080,230.269058 430.740112,230.269058 434.000000,230.269058 
	C434.000000,241.206345 434.000000,252.134506 434.000000,263.531342 
	C431.629425,264.000000 429.258881,264.000000 426.306244,263.598724 
	C425.343903,259.196442 424.963654,255.195450 424.593597,251.301880 
	C421.330109,251.301880 418.265015,251.301880 415.000000,251.301880 
	C415.000000,255.733566 415.000000,259.866791 415.000000,264.000000 
	C412.299988,264.000000 409.599976,264.000000 406.449982,264.000000 
z"/>
<path fill="#242424" opacity="1.000000" stroke="none" 
	d="
M479.468567,264.000000 
	C476.545074,261.561432 475.759399,258.692383 475.921021,255.193161 
	C476.204132,249.061966 475.970398,242.908096 476.009033,236.764069 
	C476.042267,231.475723 477.417328,230.051086 482.572662,230.011520 
	C488.860138,229.963272 495.148224,230.000046 501.999908,230.000046 
	C501.999908,231.673660 501.866882,233.110275 502.026062,234.513733 
	C502.426605,238.044861 500.901642,239.256485 497.444519,239.053574 
	C493.497253,238.821884 489.525970,238.999924 485.283813,238.999924 
	C485.283813,244.306763 485.283813,249.363083 485.283813,254.834839 
	C490.627228,254.834839 496.028381,254.834839 502.244446,254.834839 
	C501.883026,257.929840 501.574890,260.568542 501.133362,263.603638 
	C493.979034,264.000000 486.958099,264.000000 479.468567,264.000000 
z"/>
<path fill="#242424" opacity="1.000000" stroke="none" 
	d="
M79.467941,264.000000 
	C75.646530,261.473602 72.785858,251.201370 75.403473,247.804230 
	C76.762222,246.040833 80.511436,246.119370 83.221344,245.354370 
	C85.190582,255.127655 85.190582,255.127655 91.798172,254.838699 
	C91.798172,246.802505 91.798172,238.733200 91.798172,230.334351 
	C94.881996,230.334351 97.611580,230.334351 100.994705,230.334351 
	C100.994705,239.849808 101.141701,249.577332 100.827309,259.289917 
	C100.783012,260.658508 98.484756,261.954102 97.114891,263.641724 
	C91.311958,264.000000 85.623917,264.000000 79.467941,264.000000 
z"/>
<path fill="#242424" opacity="1.000000" stroke="none" 
	d="
M195.468582,264.000000 
	C194.666687,262.605286 194.056549,261.212982 194.044540,259.815491 
	C193.960434,250.044632 194.000031,240.272705 194.000031,230.252197 
	C197.041611,230.252197 199.769714,230.252197 202.903412,230.252197 
	C202.903412,238.360672 202.903412,246.422592 202.903412,254.891235 
	C207.684830,254.891235 212.092819,254.891235 217.000000,254.891235 
	C217.000000,257.879761 217.000000,260.480927 217.000000,263.541046 
	C209.979050,264.000000 202.958099,264.000000 195.468582,264.000000 
z"/>
<path fill="#242424" opacity="1.000000" stroke="none" 
	d="
M544.449951,264.000000 
	C544.000000,252.859161 544.000000,241.718338 544.000000,230.289520 
	C546.974792,230.289520 549.709412,230.289520 553.000000,230.289520 
	C553.000000,241.185242 553.000000,252.123962 553.000000,263.531342 
	C550.299988,264.000000 547.599976,264.000000 544.449951,264.000000 
z"/>
<path fill="#FFFFFF" opacity="1.000000" stroke="none" 
	d="
M568.458069,264.000000 
	C568.333313,259.949585 568.798523,255.904541 568.963196,251.847290 
	C569.130066,247.734451 569.000000,243.609558 569.000000,239.248627 
	C572.380127,239.248627 575.440430,239.248627 579.000000,239.248627 
	C579.000000,247.229324 579.000000,255.146011 579.000000,263.531342 
	C575.638733,264.000000 572.277405,264.000000 568.458069,264.000000 
z"/>
<path fill="#FFFFFF" opacity="1.000000" stroke="none" 
	d="
M415.458069,264.000000 
	C415.000000,259.866791 415.000000,255.733566 415.000000,251.301880 
	C418.265015,251.301880 421.330109,251.301880 424.593597,251.301880 
	C424.963654,255.195450 425.343903,259.196442 425.862091,263.598724 
	C422.638702,264.000000 419.277435,264.000000 415.458069,264.000000 
z"/>
<path fill="#FFFFFF" opacity="1.000000" stroke="none" 
	d="
M450.458069,264.000000 
	C450.000000,260.862579 450.000000,257.725128 450.000000,254.294647 
	C453.261108,254.294647 456.329498,254.294647 459.586090,254.294647 
	C459.959503,257.204681 460.344330,260.203491 460.864563,263.601135 
	C457.638702,264.000000 454.277435,264.000000 450.458069,264.000000 
z"/>
<path fill="#FFFFFF" opacity="1.000000" stroke="none" 
	d="
M52.458069,264.000000 
	C52.000000,260.862579 52.000000,257.725128 52.000000,254.294647 
	C55.262157,254.294647 58.330807,254.294647 61.586094,254.294647 
	C61.959534,257.204681 62.344360,260.203491 62.864594,263.601135 
	C59.638714,264.000000 56.277424,264.000000 52.458069,264.000000 
z"/>
<path fill="#FFFFFF" opacity="1.000000" stroke="none" 
	d="
M23.416666,264.000000 
	C23.000130,256.678314 22.896515,249.353683 23.103380,242.037842 
	C23.137520,240.830444 24.531889,239.661530 25.297638,238.474823 
	C25.734686,238.694809 26.171732,238.914795 26.608780,239.134781 
	C26.979481,247.154373 27.350182,255.173981 27.860441,263.596802 
	C26.611111,264.000000 25.222221,264.000000 23.416666,264.000000 
z"/>
<path fill="#FFFFFF" opacity="1.000000" stroke="none" 
	d="
M10.416666,264.000000 
	C10.000130,256.678314 9.896514,249.353683 10.103378,242.037842 
	C10.137518,240.830444 11.531883,239.661530 12.297629,238.474823 
	C12.734679,238.694809 13.171729,238.914795 13.608780,239.134781 
	C13.979481,247.154373 14.350182,255.173981 14.860441,263.596802 
	C13.611111,264.000000 12.222222,264.000000 10.416666,264.000000 
z"/>
<path fill="#FFFFFF" opacity="1.000000" stroke="none" 
	d="
M517.454102,264.000000 
	C517.091370,259.216949 515.653442,253.886505 522.115173,251.233658 
	C523.682617,255.073853 525.341309,259.137573 527.000000,263.600647 
	C523.969421,264.000000 520.938782,264.000000 517.454102,264.000000 
z"/>
<path fill="#FFFFFF" opacity="1.000000" stroke="none" 
	d="
M262.458069,264.000000 
	C262.000000,261.521667 262.000000,259.043335 262.000000,256.284149 
	C265.262634,256.284149 268.342133,256.284149 271.546509,256.284149 
	C271.935516,258.549316 272.335602,260.879059 272.867859,263.604431 
	C269.638702,264.000000 266.277435,264.000000 262.458069,264.000000 
z"/>
<path fill="#FFFFFF" opacity="1.000000" stroke="none" 
	d="
M151.458069,264.000000 
	C151.493820,260.825928 151.987656,257.651855 152.508957,254.301193 
	C156.015884,252.555222 157.444748,255.368805 158.940598,257.785645 
	C160.029053,259.544250 160.868256,261.457092 161.909302,263.650574 
	C158.638718,264.000000 155.277420,264.000000 151.458069,264.000000 
z"/>
<path fill="#FFFFFF" opacity="1.000000" stroke="none" 
	d="
M619.499878,264.000000 
	C620.097107,263.334625 621.194275,262.669281 622.645691,262.001953 
	C623.511658,264.934418 621.305908,263.792511 619.499878,264.000000 
z"/>
<path fill="#FFFFFF" opacity="1.000000" stroke="none" 
	d="
M623.000000,2.499997 
	C621.746338,2.545539 620.492676,2.091076 619.119507,1.318303 
	C620.333313,1.333326 621.666687,1.666659 623.000000,2.499997 
z"/>
<path fill="#FFFFFF" opacity="1.000000" stroke="none" 
	d="
M3.500000,1.000000 
	C3.237793,1.333277 2.475586,1.666553 1.356689,1.999915 
	C1.666667,1.666667 2.333333,1.333333 3.500000,1.000000 
z"/>
<path fill="#FFFFFF" opacity="1.000000" stroke="none" 
	d="
M160.736786,245.964127 
	C157.310760,245.993958 154.353378,245.993958 151.205322,245.993958 
	C151.205322,243.539658 151.205322,241.475098 151.205322,239.208252 
	C154.801041,239.208252 158.206375,239.208252 162.272552,239.208252 
	C161.888077,241.631622 161.546738,243.782959 160.736786,245.964127 
z"/>
<path fill="#FFFFFF" opacity="1.000000" stroke="none" 
	d="
M271.999634,242.935211 
	C271.189941,244.271118 270.476562,245.731033 269.552124,245.879837 
	C267.297882,246.242706 264.945862,245.998123 262.317230,245.998123 
	C262.317230,243.428314 262.317230,241.025604 262.317230,238.307434 
	C265.235413,238.307434 268.305267,238.307434 271.759094,238.307434 
	C271.834503,239.608307 271.917236,241.035538 271.999634,242.935211 
z"/>
<path fill="#FFFFFF" opacity="1.000000" stroke="none" 
	d="
M117.400459,239.422577 
	C120.680206,239.078873 123.631073,239.078873 126.785324,239.078873 
	C126.785324,244.451126 126.785324,249.515076 126.785324,254.789886 
	C123.538620,254.789886 120.475807,254.789886 117.071579,254.789886 
	C117.071579,249.657715 117.071579,244.711990 117.400459,239.422577 
z"/>
<path fill="#FFFFFF" opacity="1.000000" stroke="none" 
	d="
M454.997894,238.000000 
	C456.782562,238.000000 458.092377,238.000000 459.700470,238.000000 
	C459.700470,240.606903 459.700470,243.007843 459.700470,245.708588 
	C456.729919,245.708588 453.658691,245.708588 450.290192,245.708588 
	C450.290192,243.376282 450.290192,240.975281 450.290192,238.226624 
	C451.647491,238.153946 453.085297,238.076965 454.997894,238.000000 
z"/>
<path fill="#FFFFFF" opacity="1.000000" stroke="none" 
	d="
M56.997932,238.000000 
	C58.469921,238.006195 59.467518,237.997620 60.463978,238.027252 
	C60.778542,238.036591 61.090065,238.148132 61.700485,238.274490 
	C61.700485,240.606918 61.700485,243.007874 61.700485,245.708603 
	C58.729881,245.708603 55.658653,245.708603 52.290173,245.708603 
	C52.290173,243.376251 52.290173,240.975266 52.290173,238.226639 
	C53.647514,238.153961 55.085308,238.076981 56.997932,238.000000 
z"/>
</svg>