<svg version="1.1" id="Layer_1" xmlns="http://www.w3.org/2000/svg" xmlns:xlink="http://www.w3.org/1999/xlink" x="0px" y="0px"
	 width="100%" viewBox="0 0 800 321" enable-background="new 0 0 800 321" xml:space="preserve">
<path fill="#000000" opacity="1.000000" stroke="none" 
	d="
M497.000000,322.000000 
	C331.370148,322.000000 166.240326,322.000000 1.055243,322.000000 
	C1.055243,215.060715 1.055243,108.121391 1.055243,1.091032 
	C267.546478,1.091032 534.093018,1.091032 800.819763,1.091032 
	C800.819763,107.999763 800.819763,214.999847 800.819763,322.000000 
	C699.788086,322.000000 598.644043,322.000000 497.000000,322.000000 
M339.028015,127.931213 
	C339.074402,150.276627 339.120758,172.622025 339.028931,195.758987 
	C339.049042,200.020248 337.076416,202.325500 332.746063,203.123276 
	C330.647217,203.509918 326.571838,203.273285 328.571014,207.758072 
	C329.065063,207.848862 329.388031,207.959747 329.711121,207.960144 
	C345.204773,207.979416 360.698700,207.938889 376.192017,208.018341 
	C385.839905,208.067825 394.652618,205.214813 402.501404,199.895233 
	C421.531494,186.997437 426.265930,166.059265 420.125427,144.724823 
	C414.571533,125.428589 399.825500,115.877190 380.891602,114.312553 
	C363.536377,112.878372 345.969330,114.008080 328.596161,114.008080 
	C326.564209,118.231407 330.125305,118.608093 332.013519,118.797554 
	C337.246429,119.322632 339.099213,122.250359 339.028015,127.931213 
M95.962723,138.993057 
	C68.719292,138.993057 41.475864,138.993057 13.316838,138.993057 
	C14.365302,141.283920 14.676575,143.053787 15.720049,144.076889 
	C27.254238,155.385941 37.648804,167.977875 51.785042,176.399445 
	C52.730988,176.962982 53.564911,178.107025 53.946697,179.163315 
	C57.141319,188.001892 59.949535,196.990692 63.443539,205.705978 
	C65.180595,210.038803 68.755547,212.835663 73.546249,214.360123 
	C77.794243,215.711853 81.852386,217.926025 85.682266,220.269501 
	C93.211716,224.876694 101.066147,220.871628 102.080711,211.860779 
	C102.349602,209.472610 102.950912,205.885513 104.513367,205.118912 
	C108.647881,203.090332 113.382408,202.267303 117.909737,201.085495 
	C118.328354,200.976242 119.129326,201.614609 119.488289,202.101013 
	C125.395370,210.105057 133.680008,213.667328 143.201797,215.166245 
	C145.176270,215.477051 147.777954,216.202881 148.750031,217.642593 
	C151.474380,221.677490 153.661728,226.107513 155.765747,230.522339 
	C161.110168,241.736435 166.487442,252.888153 176.263626,261.140381 
	C177.066467,261.818054 177.522446,263.001556 177.934784,264.031952 
	C181.313339,272.474884 184.600266,280.954803 188.043625,289.370880 
	C188.463974,290.398285 189.492065,291.563477 190.496933,291.905518 
	C200.489243,295.306427 210.512573,298.621277 220.575790,301.806854 
	C226.855621,303.794800 233.135849,306.640198 240.216110,303.065887 
	C239.776489,301.611603 239.203552,300.108582 238.872162,298.554047 
	C237.213806,290.774719 234.406296,282.990631 234.349869,275.191254 
	C234.295807,267.717316 237.090042,260.215973 238.691071,252.739243 
	C239.747543,247.805511 242.681137,244.767914 247.194046,242.159683 
	C261.782440,233.728378 275.895752,224.605103 288.097046,212.690308 
	C292.297485,208.588470 297.901184,205.600876 303.337738,203.159607 
	C312.646942,198.979340 315.190369,196.997849 315.957855,185.213257 
	C316.238861,180.898026 315.216888,176.352661 316.208252,172.255630 
	C319.446899,158.871155 312.315063,148.830795 305.899048,138.669693 
	C304.241608,136.044754 302.902252,133.936127 302.940704,130.757309 
	C303.087555,118.623283 303.000000,106.486412 303.000000,95.073936 
	C296.389587,92.949974 290.231049,91.408241 284.431091,89.002090 
	C276.347504,85.648537 268.732635,84.142982 260.007568,87.645668 
	C255.191116,89.579247 249.229187,88.778061 243.775177,88.972130 
	C238.119202,89.173378 232.297226,88.291489 226.836761,89.359917 
	C221.764511,90.352394 217.503723,89.633110 213.090286,87.590904 
	C208.962189,85.680740 204.919662,82.860970 200.591461,82.275749 
	C193.896790,81.370560 187.835037,79.909767 182.639008,75.371681 
	C181.541000,74.412712 179.607407,74.156258 178.026321,74.047180 
	C169.760132,73.476898 166.999908,70.726379 166.999863,62.783833 
	C166.999771,49.003593 166.999832,35.223354 166.999832,21.303265 
	C165.872574,21.165594 165.241150,21.021494 164.609634,21.021049 
	C143.112091,21.005938 121.614525,20.991085 100.117126,21.044085 
	C99.135880,21.046505 98.156181,21.677879 97.029404,22.941591 
	C96.981293,61.614086 96.933189,100.286583 95.962723,138.993057 
M453.128479,184.998642 
	C455.565552,184.578491 457.182434,185.414917 458.000366,187.873123 
	C458.923401,190.647049 460.111725,193.332443 461.043152,196.103882 
	C463.027985,202.009476 462.031158,203.688690 455.964691,203.936264 
	C452.613770,204.072983 452.531494,205.404907 453.635712,207.999985 
	C486.137085,207.999985 518.460388,207.999969 550.783630,207.999969 
	C559.679871,207.999969 559.841309,208.034943 561.676270,199.561752 
	C563.042297,193.253860 563.921509,186.840515 564.993591,180.613342 
	C561.546997,179.023636 560.650452,180.737778 559.198181,183.134430 
	C556.040894,188.344528 553.068970,194.359161 548.366272,197.748856 
	C543.512146,201.247726 536.821350,202.893585 530.707031,203.775146 
	C522.867676,204.905472 520.002319,201.541992 520.000916,193.554581 
	C519.997925,176.721527 519.956848,159.888306 520.016663,143.055466 
	C520.051392,133.266159 521.340454,131.852356 530.458191,129.896896 
	C531.562683,129.660019 532.367920,128.027740 534.112549,126.206223 
	C518.289185,126.206223 504.328125,126.206223 490.367035,126.206223 
	C490.093689,126.618973 489.820343,127.031723 489.546967,127.444473 
	C490.665192,128.313782 491.662720,129.475540 492.924744,129.996460 
	C496.427856,131.442398 500.090668,132.266693 500.055084,137.396973 
	C499.917450,157.229034 499.975342,177.062653 500.020172,196.895569 
	C500.028320,200.505356 498.532013,203.276901 495.042389,203.783585 
	C491.847321,204.247498 487.976471,205.335281 485.976746,200.957123 
	C482.061615,192.385208 477.843201,183.946869 474.107910,175.298782 
	C466.764801,158.297745 459.666199,141.191132 452.036011,123.108177 
	C450.248688,124.355141 447.969299,125.079346 447.350037,126.518074 
	C443.362152,135.783463 439.807587,145.233978 435.977051,154.568848 
	C430.047577,169.018661 424.145386,183.483276 417.889984,197.792252 
	C416.825653,200.226852 414.022461,201.886353 412.081726,203.959274 
	C411.175049,204.927734 410.409454,206.028229 408.983765,207.816711 
	C418.566681,207.816711 426.526917,207.816711 434.487152,207.816711 
	C434.781281,207.423050 435.075378,207.029388 435.369507,206.635742 
	C434.311981,205.757919 433.346619,204.281677 432.181519,204.102203 
	C425.952057,203.142624 424.850189,201.601471 426.802917,195.581039 
	C427.944092,192.062653 429.200531,188.581650 430.434509,184.998428 
	C437.889313,184.998428 445.047394,184.998428 453.128479,184.998642 
M747.392273,175.075531 
	C751.172058,177.034073 754.995422,178.913757 758.721375,180.969864 
	C764.176636,183.980240 767.684631,189.323135 766.924744,193.200104 
	C765.090027,202.560837 757.086060,206.979050 747.669739,204.300232 
	C736.853210,201.223053 732.913513,192.649765 730.046082,183.156738 
	C728.819763,179.096649 729.031067,179.032822 725.180664,179.735168 
	C725.180664,189.696228 725.180664,199.663376 725.180664,210.424652 
	C726.990784,209.715363 729.179443,209.532791 729.618530,208.560287 
	C730.990967,205.520432 732.654663,206.320053 735.173035,206.838318 
	C741.862061,208.214844 748.680603,209.858322 755.438171,209.817413 
	C769.253540,209.733734 778.263489,202.482040 781.522034,189.567657 
	C784.021423,179.661758 781.266235,169.188614 768.418335,162.122330 
	C760.989502,158.036499 753.358765,154.298218 746.080017,149.964966 
	C739.922424,146.299210 738.200806,140.587708 740.908630,135.280457 
	C743.545166,130.112930 749.964050,127.981728 756.216797,129.599304 
	C765.883362,132.100052 769.789917,139.829254 773.276245,147.871796 
	C774.470520,150.626663 775.675964,151.877258 778.760376,150.512741 
	C778.760376,141.819489 778.760376,133.051758 778.760376,123.676483 
	C776.945923,124.167862 774.548889,124.174805 774.206116,125.017403 
	C772.413208,129.424988 769.541016,127.880722 766.519592,127.040504 
	C763.392090,126.170799 760.154724,125.704430 757.003113,124.911827 
	C744.817993,121.847397 732.050476,126.925545 727.212463,139.265625 
	C724.769470,145.496719 725.066833,159.647812 731.187988,163.753601 
	C736.466125,167.293915 741.507996,171.186523 747.392273,175.075531 
M686.055420,187.261429 
	C687.172485,190.135284 688.567444,192.935944 689.348145,195.898438 
	C690.911194,201.830368 690.475220,204.317154 683.959229,203.993393 
	C680.584839,203.825745 680.554932,205.431137 681.544006,207.785446 
	C694.776733,207.785446 707.727478,207.785446 721.562622,207.785446 
	C720.713806,206.184799 720.176636,204.197128 719.564331,204.173691 
	C715.234558,204.007935 713.779297,200.722977 712.370850,197.694427 
	C709.077698,190.613174 706.059692,183.402939 702.980713,176.223312 
	C695.991760,159.926743 689.074524,143.599136 681.986877,127.345757 
	C681.399536,125.998917 679.743103,125.118248 678.583435,124.020973 
	C677.418640,125.256561 675.756714,126.291183 675.163757,127.757950 
	C666.512207,149.158875 658.126221,170.667892 649.369263,192.024994 
	C647.326721,197.006546 645.629211,202.750748 639.030212,204.228058 
	C638.452393,204.357422 638.309387,206.429199 637.905701,207.797852 
	C646.960083,207.797852 655.243774,207.797852 663.492004,207.797852 
	C665.084351,203.873138 662.663513,204.057114 660.147034,203.963608 
	C654.948486,203.770370 653.639465,201.983978 654.981750,196.894852 
	C655.722778,194.085190 657.112976,191.422867 657.643127,188.588013 
	C658.193420,185.645248 659.649292,184.887177 662.412720,184.951141 
	C668.902710,185.101379 675.400330,184.919769 681.890564,185.065170 
	C683.222839,185.095016 684.536316,185.966095 686.055420,187.261429 
M604.432922,129.974533 
	C605.017944,128.845169 605.602905,127.715790 606.393188,126.190033 
	C591.340332,126.190033 577.385559,126.190033 563.430786,126.190033 
	C563.131714,126.536385 562.832581,126.882736 562.533508,127.229088 
	C563.465210,128.155792 564.239929,129.572235 565.354187,129.929611 
	C572.504761,132.222885 572.999878,132.778564 572.999878,140.315491 
	C572.999939,157.807007 572.999512,175.298523 572.999695,192.790039 
	C572.999817,202.608261 572.682495,202.995483 562.907288,205.191391 
	C563.739502,206.439331 564.892639,207.890320 566.054932,207.897766 
	C587.377075,208.034286 608.700317,207.973877 630.023193,208.028625 
	C632.673950,208.035431 634.114746,207.255295 634.045105,204.352158 
	C634.014648,203.082840 634.529663,201.805710 634.751343,200.524246 
	C635.908447,193.834778 637.050720,187.142746 638.198242,180.451614 
	C637.645752,180.065948 637.093262,179.680298 636.540833,179.294647 
	C635.052795,180.730469 633.326904,181.991882 632.121948,183.635254 
	C628.680542,188.328537 625.963562,193.663025 622.005493,197.839020 
	C617.276489,202.828430 610.212036,203.126114 603.831238,203.861649 
	C596.062012,204.757263 594.001526,202.380981 594.001465,194.397415 
	C594.001282,176.739319 594.001831,159.081207 594.000916,141.423111 
	C594.000427,132.029449 593.999329,132.029449 604.432922,129.974533 
M709.672729,226.133087 
	C706.565857,219.960205 701.167114,222.391937 696.331787,222.199997 
	C696.331787,226.974533 696.331787,231.354889 696.331787,235.701691 
	C707.892456,236.658661 709.680542,235.472855 709.672729,226.133087 
M367.008301,230.026733 
	C367.004578,228.360229 366.925140,226.689728 367.013214,225.028091 
	C367.185883,221.771362 365.669983,221.515778 363.000275,222.574402 
	C363.000275,225.263901 363.109772,227.758514 362.975067,230.239868 
	C362.762634,234.153793 364.263092,236.085663 368.420349,236.058121 
	C372.420990,236.031631 375.781036,235.557068 375.982208,230.561157 
	C376.062622,228.564606 376.329193,226.480484 375.868378,224.593109 
	C375.594788,223.472397 374.069000,222.657394 373.106232,221.704941 
	C372.694824,222.048996 372.283447,222.393036 371.872070,222.737091 
	C371.872070,225.220383 372.350739,227.827408 371.748993,230.155136 
	C371.022186,232.966644 369.287506,234.918869 367.008301,230.026733 
M523.008911,229.832504 
	C523.222351,235.395386 524.876770,236.633347 530.862549,236.014938 
	C535.063171,235.580978 535.677673,232.556763 534.786743,229.630997 
	C534.238647,227.831085 531.693420,225.258713 530.288635,225.403168 
	C527.779785,225.661179 525.455383,227.712067 523.008911,229.832504 
M580.770325,234.916275 
	C586.326904,237.089493 590.674072,236.163116 590.804993,232.456055 
	C590.878479,230.374527 589.793457,227.250473 588.233032,226.376297 
	C586.439514,225.371429 583.038818,225.519455 581.244568,226.631836 
	C578.525940,228.317398 578.283386,231.479034 580.770325,234.916275 
M662.536499,236.000137 
	C663.963196,235.906403 665.389893,235.812683 666.756531,235.722885 
	C667.454834,225.126419 665.922913,223.672775 657.408691,226.393311 
	C656.081177,235.878632 656.081177,235.878632 662.536499,236.000137 
M428.621033,226.108444 
	C428.083405,228.060974 427.088379,230.017288 427.104523,231.965225 
	C427.136993,235.878479 430.114960,236.116028 433.141083,236.007629 
	C436.042908,235.903656 438.161224,235.381714 438.077606,231.574097 
	C437.948608,225.699356 435.569733,224.005112 428.621033,226.108444 
M762.417603,226.116257 
	C759.854736,226.353363 756.348877,225.675171 754.987244,227.078125 
	C753.549622,228.559433 753.284119,233.955383 754.021667,234.288696 
	C757.169312,235.711227 760.877197,235.894012 764.720093,236.590652 
	C764.059631,232.628555 763.560486,229.633911 762.417603,226.116257 
M723.608093,226.008011 
	C721.351074,226.247009 718.002258,225.676971 717.087952,226.910889 
	C715.645142,228.858032 715.836914,232.016449 715.336792,234.662170 
	C718.723572,235.265442 722.110291,235.868698 726.956482,236.731918 
	C725.880981,232.193939 725.161377,229.157471 723.608093,226.008011 
M619.051819,225.547501 
	C613.943848,225.273865 611.184448,227.426697 612.348816,232.791824 
	C613.818237,239.562515 619.813110,234.272583 622.995178,236.065109 
	C622.995178,233.531113 623.385986,231.324905 622.859009,229.365540 
	C622.502319,228.039429 620.854492,227.060562 619.051819,225.547501 
M327.463440,235.971283 
	C327.964203,235.461212 328.975433,234.824203 328.885162,234.461105 
	C328.149597,231.503082 327.208130,228.596252 326.329315,225.673843 
	C322.673584,226.976929 322.329132,221.367096 318.943207,222.144028 
	C318.681122,222.204193 318.471832,222.494308 318.186279,222.718079 
	C318.186279,226.949966 318.186279,231.218765 318.186279,235.793106 
	C319.121918,235.844879 320.487610,236.115448 320.571899,235.895294 
	C321.533600,233.383896 322.299957,230.797684 323.118439,228.231461 
	C324.376038,229.618362 324.586731,231.091644 325.030670,232.490921 
	C325.412781,233.695297 326.060913,234.815292 327.463440,235.971283 
M338.724579,235.987015 
	C341.660828,235.988770 345.004761,236.662262 345.931183,232.610870 
	C346.760406,228.984482 345.193787,226.083435 341.666473,225.510727 
	C339.678619,225.187973 335.918274,226.391190 335.508820,227.703400 
	C334.671387,230.387161 333.206665,234.361008 338.724579,235.987015 
M770.376526,229.847580 
	C770.702698,230.222931 771.352844,230.644897 771.306519,230.966660 
	C770.579224,236.020981 771.441711,236.793716 777.068542,235.992279 
	C780.613892,235.487335 781.675903,233.201050 779.742188,230.247284 
	C779.501160,229.879044 779.035706,229.217255 779.107849,229.148804 
	C781.063293,227.294922 780.150146,226.680466 778.076172,225.907883 
	C774.265198,224.488297 771.517456,225.044662 770.376526,229.847580 
M632.375000,225.907883 
	C629.699097,226.877182 627.931946,233.636627 629.913879,235.345139 
	C630.152527,235.550903 630.448059,235.835876 630.718323,235.836975 
	C633.015930,235.846375 635.478699,236.279480 637.544189,235.571243 
	C638.627380,235.199875 639.473328,232.830139 639.581421,231.303009 
	C639.681885,229.884430 638.659790,228.386383 637.812073,226.036926 
	C636.980469,225.938446 635.006287,225.704681 632.375000,225.907883 
M460.830627,235.998459 
	C461.820587,235.996368 462.935944,236.283875 463.770294,235.922485 
	C464.943848,235.414169 466.654907,234.532776 466.788239,233.615097 
	C466.988007,232.240082 466.017090,230.694962 465.506744,229.105850 
	C465.735992,228.943695 466.422455,228.458206 467.108917,227.972702 
	C467.061646,227.412552 467.014343,226.852417 466.967072,226.292267 
	C464.364441,226.184921 461.208405,225.135254 459.320190,226.244247 
	C457.552338,227.282578 456.736786,230.543106 456.336029,232.963730 
	C456.205933,233.749710 458.707428,234.971375 460.830627,235.998459 
M570.433533,235.980743 
	C571.185425,232.548248 571.937256,229.115768 572.717529,225.553696 
	C573.668396,224.946304 574.956848,224.123306 576.245239,223.300308 
	C576.057983,222.989853 575.870728,222.679382 575.683411,222.368927 
	C571.506531,222.368927 567.329651,222.368927 563.152771,222.368927 
	C563.008606,222.748291 562.864502,223.127655 562.720337,223.507019 
	C564.110352,224.320633 565.500366,225.134232 567.001648,226.012970 
	C567.001648,228.434540 566.769897,230.952347 567.116638,233.387802 
	C567.253845,234.351303 568.677673,235.131607 570.433533,235.980743 
M495.658325,227.090561 
	C496.621338,231.130356 497.584320,235.170135 498.650452,239.642471 
	C501.672607,239.842194 504.248505,236.148972 506.973785,224.617767 
	C504.196350,226.720154 502.510895,227.995972 500.825439,229.271790 
	C500.990295,228.848892 501.155151,228.426010 501.320007,228.003128 
	C499.341248,227.457123 497.362488,226.911118 495.658325,227.090561 
M303.653076,221.999573 
	C302.129150,222.102875 300.605225,222.206192 299.081299,222.309494 
	C298.982056,222.801529 298.882812,223.293579 298.783569,223.785629 
	C300.428131,224.412842 302.072662,225.040070 303.717072,225.667389 
	C304.580536,235.927917 304.580536,235.927917 308.117798,235.125351 
	C308.117798,231.926178 308.117798,228.655731 308.117798,226.087387 
	C309.866943,224.945663 311.082642,224.152145 312.298340,223.358627 
	C312.141022,222.905594 311.983704,222.452576 311.826385,221.999542 
	C309.410126,221.999542 306.993835,221.999542 303.653076,221.999573 
M386.374329,230.176376 
	C387.025330,229.776886 387.676331,229.377396 388.744354,228.722000 
	C388.902466,231.317490 389.029755,233.407227 389.155792,235.476257 
	C393.501251,235.802261 393.718933,235.203384 392.505005,225.654816 
	C389.492188,225.792877 386.430054,225.933197 383.240692,226.079361 
	C383.240692,229.577484 383.240692,232.667038 383.240692,235.756577 
	C383.787048,235.884857 384.333435,236.013123 384.879791,236.141403 
	C385.274567,234.416458 385.669342,232.691513 386.374329,230.176376 
M596.207275,235.562363 
	C599.746948,235.562363 603.286621,235.562363 607.484253,235.562363 
	C606.043457,233.719269 604.983765,232.363708 604.006897,231.114105 
	C605.007629,229.404907 605.880188,227.914688 606.627136,226.638916 
	C603.032104,226.638916 599.614563,226.638916 594.673096,226.638916 
	C600.032288,229.460632 598.413574,232.145859 596.207275,235.562363 
M420.895813,228.514984 
	C421.092072,227.770569 421.288361,227.026154 421.484619,226.281754 
	C421.190033,225.949173 420.895447,225.616608 420.600830,225.284042 
	C418.798889,226.626923 416.996979,227.969788 416.081818,228.651794 
	C414.207520,227.643326 412.478088,226.712799 410.748688,225.782272 
	C410.665161,228.252151 411.148621,229.661835 411.965942,230.839859 
	C413.213593,232.638000 414.691925,234.276062 416.072327,235.982101 
	C417.363739,234.321762 418.703064,232.695297 419.916382,230.979706 
	C420.265533,230.486069 420.251343,229.735504 420.895813,228.514984 
M540.226807,227.567200 
	C541.113098,230.145309 541.999390,232.723404 543.256287,236.379486 
	C544.106323,235.552704 545.705688,234.741486 545.872498,233.700729 
	C546.466431,229.994522 546.572937,226.210236 546.859863,222.508377 
	C542.048889,220.066818 542.497925,225.556900 540.226807,227.567200 
M673.991150,229.969543 
	C673.991150,231.902679 673.991150,233.835831 673.991150,236.070267 
	C676.040955,235.918533 677.452026,235.814087 678.299805,235.751328 
	C678.510071,232.663116 678.929565,229.998749 678.776611,227.367661 
	C678.692139,225.914215 677.648010,224.516556 677.036499,223.093765 
	C676.023010,223.561493 674.718872,223.781036 674.060608,224.552032 
	C672.922546,225.885132 671.314636,227.551147 673.991150,229.969543 
M484.491669,225.858795 
	C484.077515,226.105453 483.272705,226.455429 483.306610,226.583603 
	C484.084503,229.525116 484.953735,232.442444 485.872620,235.592651 
	C486.903839,235.592651 488.388489,235.592651 489.225067,235.592651 
	C489.464752,232.486969 489.928101,229.822388 489.769318,227.195404 
	C489.684204,225.788406 488.528107,224.446167 487.855316,223.074707 
	C486.874817,223.774704 485.894287,224.474701 484.491669,225.858795 
M743.021545,223.893311 
	C743.014832,226.892014 743.108215,229.895218 742.974060,232.888199 
	C742.833130,236.032669 744.208618,236.477585 746.783142,235.574738 
	C746.783142,231.011551 746.783142,226.730896 746.783142,221.716156 
	C745.321838,222.221664 744.229248,222.599594 743.021545,223.893311 
M444.003723,233.270355 
	C444.897766,234.308838 445.791809,235.347321 446.700623,236.402969 
	C448.439880,231.911362 449.708954,228.633926 451.077057,225.100800 
	C448.371765,225.621292 446.358795,226.008575 444.001038,226.462189 
	C444.001038,228.447662 444.001038,230.401337 444.003723,233.270355 
M733.000183,226.672684 
	C733.000183,229.726700 733.000183,232.780716 733.000183,235.834732 
	C733.474976,235.983139 733.949829,236.131546 734.424622,236.279953 
	C734.945740,235.440918 735.854675,234.629349 735.916382,233.757797 
	C736.113037,230.978638 736.153870,228.163849 735.921387,225.390778 
	C735.825989,224.252670 734.878601,223.185959 734.318726,222.086777 
	C733.879333,223.305969 733.439941,224.525162 733.000183,226.672684 
M400.648224,226.175827 
	C400.379700,229.329865 400.111176,232.483902 399.842651,235.637924 
	C400.280640,235.915955 400.718658,236.193970 401.156677,236.471985 
	C402.099030,235.648285 403.971100,234.570709 403.827209,234.043655 
	C403.098267,231.374161 406.543579,227.412720 400.648224,226.175827 
M476.999939,230.545105 
	C476.655029,228.984543 476.310150,227.423981 475.965271,225.863419 
	C475.310211,225.981018 474.655151,226.098618 474.000092,226.216217 
	C474.000092,227.811417 474.000092,229.406631 474.000092,231.001831 
	C474.000092,232.591919 474.000092,234.182007 474.000092,235.772079 
	C474.656952,235.893631 475.313812,236.015182 475.970703,236.136734 
	C476.313782,234.574753 476.656860,233.012756 476.999939,230.545105 
z"/>
<path fill="#E47125" opacity="1.000000" stroke="none" 
	d="
M97.175766,22.016315 
	C98.156181,21.677879 99.135880,21.046505 100.117126,21.044085 
	C121.614525,20.991085 143.112091,21.005938 164.609634,21.021049 
	C165.241150,21.021494 165.872574,21.165594 166.999832,21.303265 
	C166.999832,35.223354 166.999771,49.003593 166.999863,62.783833 
	C166.999908,70.726379 169.760132,73.476898 178.026321,74.047180 
	C179.607407,74.156258 181.541000,74.412712 182.639008,75.371681 
	C187.835037,79.909767 193.896790,81.370560 200.591461,82.275749 
	C204.919662,82.860970 208.962189,85.680740 213.090286,87.590904 
	C217.503723,89.633110 221.764511,90.352394 226.836761,89.359917 
	C232.297226,88.291489 238.119202,89.173378 243.775177,88.972130 
	C249.229187,88.778061 255.191116,89.579247 260.007568,87.645668 
	C268.732635,84.142982 276.347504,85.648537 284.431091,89.002090 
	C290.231049,91.408241 296.389587,92.949974 303.000000,95.073936 
	C303.000000,106.486412 303.087555,118.623283 302.940704,130.757309 
	C302.902252,133.936127 304.241608,136.044754 305.899048,138.669693 
	C312.315063,148.830795 319.446899,158.871155 316.208252,172.255630 
	C315.216888,176.352661 316.238861,180.898026 315.957855,185.213257 
	C315.190369,196.997849 312.646942,198.979340 303.337738,203.159607 
	C297.901184,205.600876 292.297485,208.588470 288.097046,212.690308 
	C275.895752,224.605103 261.782440,233.728378 247.194046,242.159683 
	C242.681137,244.767914 239.747543,247.805511 238.691071,252.739243 
	C237.090042,260.215973 234.295807,267.717316 234.349869,275.191254 
	C234.406296,282.990631 237.213806,290.774719 238.872162,298.554047 
	C239.203552,300.108582 239.776489,301.611603 240.216110,303.065887 
	C233.135849,306.640198 226.855621,303.794800 220.575790,301.806854 
	C210.512573,298.621277 200.489243,295.306427 190.496933,291.905518 
	C189.492065,291.563477 188.463974,290.398285 188.043625,289.370880 
	C184.600266,280.954803 181.313339,272.474884 177.934784,264.031952 
	C177.522446,263.001556 177.066467,261.818054 176.263626,261.140381 
	C166.487442,252.888153 161.110168,241.736435 155.765747,230.522339 
	C153.661728,226.107513 151.474380,221.677490 148.750031,217.642593 
	C147.777954,216.202881 145.176270,215.477051 143.201797,215.166245 
	C133.680008,213.667328 125.395370,210.105057 119.488289,202.101013 
	C119.129326,201.614609 118.328354,200.976242 117.909737,201.085495 
	C113.382408,202.267303 108.647881,203.090332 104.513367,205.118912 
	C102.950912,205.885513 102.349602,209.472610 102.080711,211.860779 
	C101.066147,220.871628 93.211716,224.876694 85.682266,220.269501 
	C81.852386,217.926025 77.794243,215.711853 73.546249,214.360123 
	C68.755547,212.835663 65.180595,210.038803 63.443539,205.705978 
	C59.949535,196.990692 57.141319,188.001892 53.946697,179.163315 
	C53.564911,178.107025 52.730988,176.962982 51.785042,176.399445 
	C37.648804,167.977875 27.254238,155.385941 15.720049,144.076889 
	C14.676575,143.053787 14.365302,141.283920 13.316838,138.993057 
	C41.475864,138.993057 68.719292,138.993057 96.635216,138.623657 
	C97.538155,136.455505 97.967583,134.656952 97.969620,132.857925 
	C98.009369,97.869759 98.012474,62.881512 97.964172,27.893364 
	C97.961464,25.933989 97.450279,23.975315 97.175766,22.016315 
M113.675751,114.998489 
	C111.499565,114.998489 109.323380,114.998489 107.147194,114.998489 
	C107.948715,116.791458 108.795998,117.578995 109.791817,117.888275 
	C117.985344,120.432922 117.997551,120.405983 117.998932,128.506577 
	C118.001701,144.828339 117.844673,161.152084 118.052872,177.471191 
	C118.198875,188.914993 122.166420,198.632858 132.408920,204.878464 
	C141.431656,210.380295 151.560623,210.777069 161.519104,209.793015 
	C172.286896,208.728973 181.698990,203.967758 185.751190,193.211365 
	C188.173523,186.781326 189.547226,179.653015 189.816116,172.776932 
	C190.407898,157.644165 189.989441,142.472260 190.005219,127.316368 
	C190.011292,121.483276 191.680359,119.445534 197.265869,117.956154 
	C198.601227,117.600082 199.816452,116.793472 201.086914,116.194077 
	C200.934128,115.935272 200.781326,115.676460 200.628540,115.417656 
	C190.832581,115.417656 181.036621,115.417656 171.240662,115.417656 
	C172.930283,117.040718 174.824982,117.589020 176.744492,118.029099 
	C180.101395,118.798721 183.061600,120.162651 183.850861,123.863091 
	C184.461273,126.724976 184.926682,129.678085 184.949875,132.594666 
	C185.061096,146.583862 185.278748,160.582718 184.863281,174.560455 
	C184.696289,180.178589 183.659729,185.970032 181.878693,191.301697 
	C177.478622,204.473618 155.794434,208.983994 145.747849,199.360641 
	C140.202026,194.048462 139.401962,187.083527 139.190002,180.425735 
	C138.639114,163.122223 138.847794,145.787445 139.079865,128.469513 
	C139.176804,121.235611 141.193512,119.253662 148.180237,117.442009 
	C149.752319,117.034370 151.350189,116.726212 152.936188,116.372253 
	C152.874161,115.914330 152.812134,115.456413 152.750107,114.998489 
	C140.046173,114.998489 127.342247,114.998489 113.675751,114.998489 
M236.999298,144.500000 
	C236.999237,159.659073 237.051727,174.818390 236.982056,189.977142 
	C236.928802,201.564240 235.245331,203.433823 223.985062,205.150848 
	C223.654022,205.201324 223.397858,205.742844 222.659897,206.535263 
	C239.426071,206.535263 255.594925,206.535263 271.763763,206.535263 
	C270.880646,205.402878 269.897369,205.168594 268.903381,204.996429 
	C259.532776,203.373383 258.000153,201.554214 258.000061,192.020050 
	C257.999847,169.198181 258.000000,146.376312 258.000000,123.554443 
	C258.000000,121.774681 258.000000,119.994926 258.000000,118.214760 
	C274.789978,118.370422 282.059845,124.714569 285.024689,138.882767 
	C285.268951,140.049881 285.983276,141.118637 286.479187,142.233109 
	C286.854919,142.081528 287.230621,141.929947 287.606323,141.778366 
	C287.606323,132.909775 287.606323,124.041176 287.606323,115.265472 
	C260.285339,115.265472 233.360504,115.265472 206.246368,115.265472 
	C206.246368,124.282692 206.246368,133.032211 206.246368,143.241669 
	C210.010635,136.096054 212.295532,129.487961 216.464249,124.433609 
	C221.414230,118.431984 229.185654,118.096069 236.999298,118.090950 
	C236.999298,126.895592 236.999298,135.197800 236.999298,144.500000 
z"/>
<path fill="#E47125" opacity="1.000000" stroke="none" 
	d="
M452.666992,184.998535 
	C445.047394,184.998428 437.889313,184.998428 430.434509,184.998428 
	C429.200531,188.581650 427.944092,192.062653 426.802917,195.581039 
	C424.850189,201.601471 425.952057,203.142624 432.181519,204.102203 
	C433.346619,204.281677 434.311981,205.757919 435.369507,206.635742 
	C435.075378,207.029388 434.781281,207.423050 434.487152,207.816711 
	C426.526917,207.816711 418.566681,207.816711 408.983765,207.816711 
	C410.409454,206.028229 411.175049,204.927734 412.081726,203.959274 
	C414.022461,201.886353 416.825653,200.226852 417.889984,197.792252 
	C424.145386,183.483276 430.047577,169.018661 435.977051,154.568848 
	C439.807587,145.233978 443.362152,135.783463 447.350037,126.518074 
	C447.969299,125.079346 450.248688,124.355141 452.036011,123.108177 
	C459.666199,141.191132 466.764801,158.297745 474.107910,175.298782 
	C477.843201,183.946869 482.061615,192.385208 485.976746,200.957123 
	C487.976471,205.335281 491.847321,204.247498 495.042389,203.783585 
	C498.532013,203.276901 500.028320,200.505356 500.020172,196.895569 
	C499.975342,177.062653 499.917450,157.229034 500.055084,137.396973 
	C500.090668,132.266693 496.427856,131.442398 492.924744,129.996460 
	C491.662720,129.475540 490.665192,128.313782 489.546967,127.444473 
	C489.820343,127.031723 490.093689,126.618973 490.367035,126.206223 
	C504.328125,126.206223 518.289185,126.206223 534.112549,126.206223 
	C532.367920,128.027740 531.562683,129.660019 530.458191,129.896896 
	C521.340454,131.852356 520.051392,133.266159 520.016663,143.055466 
	C519.956848,159.888306 519.997925,176.721527 520.000916,193.554581 
	C520.002319,201.541992 522.867676,204.905472 530.707031,203.775146 
	C536.821350,202.893585 543.512146,201.247726 548.366272,197.748856 
	C553.068970,194.359161 556.040894,188.344528 559.198181,183.134430 
	C560.650452,180.737778 561.546997,179.023636 564.993591,180.613342 
	C563.921509,186.840515 563.042297,193.253860 561.676270,199.561752 
	C559.841309,208.034943 559.679871,207.999969 550.783630,207.999969 
	C518.460388,207.999969 486.137085,207.999985 453.635712,207.999985 
	C452.531494,205.404907 452.613770,204.072983 455.964691,203.936264 
	C462.031158,203.688690 463.027985,202.009476 461.043152,196.103882 
	C460.111725,193.332443 458.923401,190.647049 458.000366,187.873123 
	C457.182434,185.414917 455.565552,184.578491 452.666992,184.998535 
M448.266724,179.000015 
	C450.126892,179.000015 451.987061,179.000015 454.281158,179.000015 
	C450.503204,169.813431 447.092529,161.520050 443.269470,152.223846 
	C439.616180,161.642456 436.331177,170.111511 432.883484,179.000015 
	C438.069641,179.000015 442.698090,179.000015 448.266724,179.000015 
z"/>
<path fill="#E47125" opacity="1.000000" stroke="none" 
	d="
M339.166168,127.001984 
	C339.099213,122.250359 337.246429,119.322632 332.013519,118.797554 
	C330.125305,118.608093 326.564209,118.231407 328.596161,114.008080 
	C345.969330,114.008080 363.536377,112.878372 380.891602,114.312553 
	C399.825500,115.877190 414.571533,125.428589 420.125427,144.724823 
	C426.265930,166.059265 421.531494,186.997437 402.501404,199.895233 
	C394.652618,205.214813 385.839905,208.067825 376.192017,208.018341 
	C360.698700,207.938889 345.204773,207.979416 329.711121,207.960144 
	C329.388031,207.959747 329.065063,207.848862 328.571014,207.758072 
	C326.571838,203.273285 330.647217,203.509918 332.746063,203.123276 
	C337.076416,202.325500 339.049042,200.020248 339.262085,194.989166 
	C339.660065,193.072922 339.966797,191.926697 339.968536,190.780014 
	C339.998322,170.977448 340.007904,151.174774 339.955444,131.372299 
	C339.951599,129.914841 339.441132,128.458725 339.166168,127.001984 
M382.165649,199.961731 
	C387.316803,196.574341 392.237854,192.875076 393.951569,186.579025 
	C398.305664,170.582230 398.961609,154.482910 393.933258,138.529907 
	C390.733459,128.378265 384.299652,121.268181 373.314484,119.120674 
	C368.276855,118.135849 363.057068,120.661400 363.043945,124.593781 
	C362.963928,148.587082 362.963867,172.580963 363.061676,196.574142 
	C363.072479,199.224289 363.964325,201.264709 367.343414,202.214096 
	C372.556854,203.678879 376.849274,201.598038 382.165649,199.961731 
z"/>
<path fill="#E47125" opacity="1.000000" stroke="none" 
	d="
M747.023315,174.999451 
	C741.507996,171.186523 736.466125,167.293915 731.187988,163.753601 
	C725.066833,159.647812 724.769470,145.496719 727.212463,139.265625 
	C732.050476,126.925545 744.817993,121.847397 757.003113,124.911827 
	C760.154724,125.704430 763.392090,126.170799 766.519592,127.040504 
	C769.541016,127.880722 772.413208,129.424988 774.206116,125.017403 
	C774.548889,124.174805 776.945923,124.167862 778.760376,123.676483 
	C778.760376,133.051758 778.760376,141.819489 778.760376,150.512741 
	C775.675964,151.877258 774.470520,150.626663 773.276245,147.871796 
	C769.789917,139.829254 765.883362,132.100052 756.216797,129.599304 
	C749.964050,127.981728 743.545166,130.112930 740.908630,135.280457 
	C738.200806,140.587708 739.922424,146.299210 746.080017,149.964966 
	C753.358765,154.298218 760.989502,158.036499 768.418335,162.122330 
	C781.266235,169.188614 784.021423,179.661758 781.522034,189.567657 
	C778.263489,202.482040 769.253540,209.733734 755.438171,209.817413 
	C748.680603,209.858322 741.862061,208.214844 735.173035,206.838318 
	C732.654663,206.320053 730.990967,205.520432 729.618530,208.560287 
	C729.179443,209.532791 726.990784,209.715363 725.180664,210.424652 
	C725.180664,199.663376 725.180664,189.696228 725.180664,179.735168 
	C729.031067,179.032822 728.819763,179.096649 730.046082,183.156738 
	C732.913513,192.649765 736.853210,201.223053 747.669739,204.300232 
	C757.086060,206.979050 765.090027,202.560837 766.924744,193.200104 
	C767.684631,189.323135 764.176636,183.980240 758.721375,180.969864 
	C754.995422,178.913757 751.172058,177.034073 747.023315,174.999451 
z"/>
<path fill="#E47125" opacity="1.000000" stroke="none" 
	d="
M685.956909,186.855438 
	C684.536316,185.966095 683.222839,185.095016 681.890564,185.065170 
	C675.400330,184.919769 668.902710,185.101379 662.412720,184.951141 
	C659.649292,184.887177 658.193420,185.645248 657.643127,188.588013 
	C657.112976,191.422867 655.722778,194.085190 654.981750,196.894852 
	C653.639465,201.983978 654.948486,203.770370 660.147034,203.963608 
	C662.663513,204.057114 665.084351,203.873138 663.492004,207.797852 
	C655.243774,207.797852 646.960083,207.797852 637.905701,207.797852 
	C638.309387,206.429199 638.452393,204.357422 639.030212,204.228058 
	C645.629211,202.750748 647.326721,197.006546 649.369263,192.024994 
	C658.126221,170.667892 666.512207,149.158875 675.163757,127.757950 
	C675.756714,126.291183 677.418640,125.256561 678.583435,124.020981 
	C679.743103,125.118248 681.399536,125.998917 681.986877,127.345757 
	C689.074524,143.599136 695.991760,159.926743 702.980713,176.223312 
	C706.059692,183.402939 709.077698,190.613174 712.370850,197.694427 
	C713.779297,200.722977 715.234558,204.007935 719.564331,204.173691 
	C720.176636,204.197128 720.713806,206.184799 721.562622,207.785446 
	C707.727478,207.785446 694.776733,207.785446 681.544006,207.785446 
	C680.554932,205.431137 680.584839,203.825745 683.959229,203.993393 
	C690.475220,204.317154 690.911194,201.830368 689.348145,195.898438 
	C688.567444,192.935944 687.172485,190.135284 685.956909,186.855438 
M668.671692,179.000000 
	C673.225647,179.000000 677.779602,179.000000 682.744141,179.000000 
	C679.021179,170.002274 675.559448,161.635803 671.773132,152.484940 
	C669.678162,157.382263 667.813416,161.420898 666.216492,165.562790 
	C664.540161,169.910446 663.120605,174.357086 661.505493,179.000000 
	C663.752502,179.000000 665.744934,179.000000 668.671692,179.000000 
z"/>
<path fill="#E47125" opacity="1.000000" stroke="none" 
	d="
M604.006592,129.985809 
	C593.999329,132.029449 594.000427,132.029449 594.000916,141.423111 
	C594.001831,159.081207 594.001282,176.739319 594.001465,194.397415 
	C594.001526,202.380981 596.062012,204.757263 603.831238,203.861649 
	C610.212036,203.126114 617.276489,202.828430 622.005493,197.839020 
	C625.963562,193.663025 628.680542,188.328537 632.121948,183.635254 
	C633.326904,181.991882 635.052795,180.730469 636.540833,179.294647 
	C637.093262,179.680298 637.645752,180.065948 638.198242,180.451614 
	C637.050720,187.142746 635.908447,193.834778 634.751343,200.524246 
	C634.529663,201.805710 634.014648,203.082840 634.045105,204.352158 
	C634.114746,207.255295 632.673950,208.035431 630.023193,208.028625 
	C608.700317,207.973877 587.377075,208.034286 566.054932,207.897766 
	C564.892639,207.890320 563.739502,206.439331 562.907288,205.191391 
	C572.682495,202.995483 572.999817,202.608261 572.999695,192.790039 
	C572.999512,175.298523 572.999939,157.807007 572.999878,140.315491 
	C572.999878,132.778564 572.504761,132.222885 565.354187,129.929611 
	C564.239929,129.572235 563.465210,128.155792 562.533508,127.229088 
	C562.832581,126.882736 563.131714,126.536385 563.430786,126.190033 
	C577.385559,126.190033 591.340332,126.190033 606.393188,126.190033 
	C605.602905,127.715790 605.017944,128.845169 604.006592,129.985809 
z"/>
<path fill="#E47125" opacity="1.000000" stroke="none" 
	d="
M709.819092,226.519653 
	C709.680542,235.472855 707.892456,236.658661 696.331787,235.701691 
	C696.331787,231.354889 696.331787,226.974533 696.331787,222.199997 
	C701.167114,222.391937 706.565857,219.960205 709.819092,226.519653 
M700.460999,232.789261 
	C703.676758,233.858749 705.683655,231.690811 705.616333,229.354233 
	C705.566528,227.624924 703.002563,225.968002 700.870422,223.473785 
	C700.277466,225.680832 700.055298,226.137726 700.048706,226.597717 
	C700.022705,228.407974 700.064514,230.219208 700.460999,232.789261 
z"/>
<path fill="#E47125" opacity="1.000000" stroke="none" 
	d="
M367.029205,230.463776 
	C369.287506,234.918869 371.022186,232.966644 371.748993,230.155136 
	C372.350739,227.827408 371.872070,225.220383 371.872070,222.737091 
	C372.283447,222.393036 372.694824,222.048996 373.106232,221.704941 
	C374.069000,222.657394 375.594788,223.472397 375.868378,224.593109 
	C376.329193,226.480484 376.062622,228.564606 375.982208,230.561157 
	C375.781036,235.557068 372.420990,236.031631 368.420349,236.058121 
	C364.263092,236.085663 362.762634,234.153793 362.975067,230.239868 
	C363.109772,227.758514 363.000275,225.263901 363.000275,222.574402 
	C365.669983,221.515778 367.185883,221.771362 367.013214,225.028091 
	C366.925140,226.689728 367.004578,228.360229 367.029205,230.463776 
z"/>
<path fill="#DF8020" opacity="1.000000" stroke="none" 
	d="
M97.102585,22.478952 
	C97.450279,23.975315 97.961464,25.933989 97.964172,27.893364 
	C98.012474,62.881512 98.009369,97.869759 97.969620,132.857925 
	C97.967583,134.656952 97.538155,136.455505 97.096390,138.606674 
	C96.933189,100.286583 96.981293,61.614086 97.102585,22.478952 
z"/>
<path fill="#E47125" opacity="1.000000" stroke="none" 
	d="
M523.031372,229.422913 
	C525.455383,227.712067 527.779785,225.661179 530.288635,225.403168 
	C531.693420,225.258713 534.238647,227.831085 534.786743,229.630997 
	C535.677673,232.556763 535.063171,235.580978 530.862549,236.014938 
	C524.876770,236.633347 523.222351,235.395386 523.031372,229.422913 
z"/>
<path fill="#E47124" opacity="1.000000" stroke="none" 
	d="
M580.451782,234.661011 
	C578.283386,231.479034 578.525940,228.317398 581.244568,226.631836 
	C583.038818,225.519455 586.439514,225.371429 588.233032,226.376297 
	C589.793457,227.250473 590.878479,230.374527 590.804993,232.456055 
	C590.674072,236.163116 586.326904,237.089493 580.451782,234.661011 
z"/>
<path fill="#E47125" opacity="1.000000" stroke="none" 
	d="
M662.079956,236.000183 
	C656.081177,235.878632 656.081177,235.878632 657.408691,226.393311 
	C665.922913,223.672775 667.454834,225.126419 666.756531,235.722885 
	C665.389893,235.812683 663.963196,235.906403 662.079956,236.000183 
z"/>
<path fill="#E47125" opacity="1.000000" stroke="none" 
	d="
M429.031006,226.056763 
	C435.569733,224.005112 437.948608,225.699356 438.077606,231.574097 
	C438.161224,235.381714 436.042908,235.903656 433.141083,236.007629 
	C430.114960,236.116028 427.136993,235.878479 427.104523,231.965225 
	C427.088379,230.017288 428.083405,228.060974 429.031006,226.056763 
z"/>
<path fill="#E47224" opacity="1.000000" stroke="none" 
	d="
M762.739502,226.377762 
	C763.560486,229.633911 764.059631,232.628555 764.720093,236.590652 
	C760.877197,235.894012 757.169312,235.711227 754.021667,234.288696 
	C753.284119,233.955383 753.549622,228.559433 754.987244,227.078125 
	C756.348877,225.675171 759.854736,226.353363 762.739502,226.377762 
z"/>
<path fill="#E47125" opacity="1.000000" stroke="none" 
	d="
M724.024902,226.064514 
	C725.161377,229.157471 725.880981,232.193939 726.956482,236.731918 
	C722.110291,235.868698 718.723572,235.265442 715.336792,234.662170 
	C715.836914,232.016449 715.645142,228.858032 717.087952,226.910889 
	C718.002258,225.676971 721.351074,226.247009 724.024902,226.064514 
z"/>
<path fill="#E47125" opacity="1.000000" stroke="none" 
	d="
M619.417969,225.736954 
	C620.854492,227.060562 622.502319,228.039429 622.859009,229.365540 
	C623.385986,231.324905 622.995178,233.531113 622.995178,236.065109 
	C619.813110,234.272583 613.818237,239.562515 612.348816,232.791824 
	C611.184448,227.426697 613.943848,225.273865 619.417969,225.736954 
z"/>
<path fill="#E47125" opacity="1.000000" stroke="none" 
	d="
M327.027466,235.971924 
	C326.060913,234.815292 325.412781,233.695297 325.030670,232.490921 
	C324.586731,231.091644 324.376038,229.618362 323.118439,228.231461 
	C322.299957,230.797684 321.533600,233.383896 320.571899,235.895294 
	C320.487610,236.115448 319.121918,235.844879 318.186279,235.793106 
	C318.186279,231.218765 318.186279,226.949966 318.186279,222.718079 
	C318.471832,222.494308 318.681122,222.204193 318.943207,222.144028 
	C322.329132,221.367096 322.673584,226.976929 326.329315,225.673843 
	C327.208130,228.596252 328.149597,231.503082 328.885162,234.461105 
	C328.975433,234.824203 327.964203,235.461212 327.027466,235.971924 
z"/>
<path fill="#E47125" opacity="1.000000" stroke="none" 
	d="
M338.296143,235.955994 
	C333.206665,234.361008 334.671387,230.387161 335.508820,227.703400 
	C335.918274,226.391190 339.678619,225.187973 341.666473,225.510727 
	C345.193787,226.083435 346.760406,228.984482 345.931183,232.610870 
	C345.004761,236.662262 341.660828,235.988770 338.296143,235.955994 
z"/>
<path fill="#E47125" opacity="1.000000" stroke="none" 
	d="
M770.232727,229.506409 
	C771.517456,225.044662 774.265198,224.488297 778.076172,225.907883 
	C780.150146,226.680466 781.063293,227.294922 779.107849,229.148804 
	C779.035706,229.217255 779.501160,229.879044 779.742188,230.247284 
	C781.675903,233.201050 780.613892,235.487335 777.068542,235.992279 
	C771.441711,236.793716 770.579224,236.020981 771.306519,230.966660 
	C771.352844,230.644897 770.702698,230.222931 770.232727,229.506409 
z"/>
<path fill="#E57124" opacity="1.000000" stroke="none" 
	d="
M632.703613,225.689392 
	C635.006287,225.704681 636.980469,225.938446 637.812073,226.036926 
	C638.659790,228.386383 639.681885,229.884430 639.581421,231.303009 
	C639.473328,232.830139 638.627380,235.199875 637.544189,235.571243 
	C635.478699,236.279480 633.015930,235.846375 630.718323,235.836975 
	C630.448059,235.835876 630.152527,235.550903 629.913879,235.345139 
	C627.931946,233.636627 629.699097,226.877182 632.703613,225.689392 
z"/>
<path fill="#E57124" opacity="1.000000" stroke="none" 
	d="
M460.417908,235.996094 
	C458.707428,234.971375 456.205933,233.749710 456.336029,232.963730 
	C456.736786,230.543106 457.552338,227.282578 459.320190,226.244247 
	C461.208405,225.135254 464.364441,226.184921 466.967072,226.292267 
	C467.014343,226.852417 467.061646,227.412552 467.108917,227.972702 
	C466.422455,228.458206 465.735992,228.943695 465.506744,229.105850 
	C466.017090,230.694962 466.988007,232.240082 466.788239,233.615097 
	C466.654907,234.532776 464.943848,235.414169 463.770294,235.922485 
	C462.935944,236.283875 461.820587,235.996368 460.417908,235.996094 
z"/>
<path fill="#E27027" opacity="1.000000" stroke="none" 
	d="
M569.974609,235.988037 
	C568.677673,235.131607 567.253845,234.351303 567.116638,233.387802 
	C566.769897,230.952347 567.001648,228.434540 567.001648,226.012970 
	C565.500366,225.134232 564.110352,224.320633 562.720337,223.507019 
	C562.864502,223.127655 563.008606,222.748291 563.152771,222.368927 
	C567.329651,222.368927 571.506531,222.368927 575.683411,222.368927 
	C575.870728,222.679382 576.057983,222.989853 576.245239,223.300308 
	C574.956848,224.123306 573.668396,224.946304 572.717529,225.553696 
	C571.937256,229.115768 571.185425,232.548248 569.974609,235.988037 
z"/>
<path fill="#E57125" opacity="1.000000" stroke="none" 
	d="
M495.521027,226.727844 
	C497.362488,226.911118 499.341248,227.457123 501.320007,228.003128 
	C501.155151,228.426010 500.990295,228.848892 500.825439,229.271790 
	C502.510895,227.995972 504.196350,226.720154 506.973785,224.617767 
	C504.248505,236.148972 501.672607,239.842194 498.650452,239.642471 
	C497.584320,235.170135 496.621338,231.130356 495.521027,226.727844 
z"/>
<path fill="#E47125" opacity="1.000000" stroke="none" 
	d="
M304.115326,221.999557 
	C306.993835,221.999542 309.410126,221.999542 311.826385,221.999542 
	C311.983704,222.452576 312.141022,222.905594 312.298340,223.358627 
	C311.082642,224.152145 309.866943,224.945663 308.117798,226.087387 
	C308.117798,228.655731 308.117798,231.926178 308.117798,235.125351 
	C304.580536,235.927917 304.580536,235.927917 303.717133,225.667328 
	C302.072662,225.040070 300.428131,224.412842 298.783569,223.785629 
	C298.882812,223.293579 298.982056,222.801529 299.081299,222.309494 
	C300.605225,222.206192 302.129150,222.102875 304.115326,221.999557 
z"/>
<path fill="#E47224" opacity="1.000000" stroke="none" 
	d="
M386.219238,230.571472 
	C385.669342,232.691513 385.274567,234.416458 384.879791,236.141403 
	C384.333435,236.013123 383.787048,235.884857 383.240692,235.756577 
	C383.240692,232.667038 383.240692,229.577484 383.240692,226.079361 
	C386.430054,225.933197 389.492188,225.792877 392.505005,225.654816 
	C393.718933,235.203384 393.501251,235.802261 389.155792,235.476257 
	C389.029755,233.407227 388.902466,231.317490 388.744354,228.722000 
	C387.676331,229.377396 387.025330,229.776886 386.219238,230.571472 
z"/>
<path fill="#E47024" opacity="1.000000" stroke="none" 
	d="
M596.153015,235.191681 
	C598.413574,232.145859 600.032288,229.460632 594.673096,226.638916 
	C599.614563,226.638916 603.032104,226.638916 606.627136,226.638916 
	C605.880188,227.914688 605.007629,229.404907 604.006897,231.114105 
	C604.983765,232.363708 606.043457,233.719269 607.484253,235.562363 
	C603.286621,235.562363 599.746948,235.562363 596.153015,235.191681 
z"/>
<path fill="#E57024" opacity="1.000000" stroke="none" 
	d="
M420.649780,228.808853 
	C420.251343,229.735504 420.265533,230.486069 419.916382,230.979706 
	C418.703064,232.695297 417.363739,234.321762 416.072327,235.982101 
	C414.691925,234.276062 413.213593,232.638000 411.965942,230.839859 
	C411.148621,229.661835 410.665161,228.252151 410.748688,225.782272 
	C412.478088,226.712799 414.207520,227.643326 416.081818,228.651794 
	C416.996979,227.969788 418.798889,226.626923 420.600830,225.284042 
	C420.895447,225.616608 421.190033,225.949173 421.484619,226.281754 
	C421.288361,227.026154 421.092072,227.770569 420.649780,228.808853 
z"/>
<path fill="#DF8020" opacity="1.000000" stroke="none" 
	d="
M339.097107,127.466599 
	C339.441132,128.458725 339.951599,129.914841 339.955444,131.372299 
	C340.007904,151.174774 339.998322,170.977448 339.968536,190.780014 
	C339.966797,191.926697 339.660065,193.072922 339.331207,194.593399 
	C339.120758,172.622025 339.074402,150.276627 339.097107,127.466599 
z"/>
<path fill="#E47125" opacity="1.000000" stroke="none" 
	d="
M540.185364,227.160583 
	C542.497925,225.556900 542.048889,220.066818 546.859863,222.508377 
	C546.572937,226.210236 546.466431,229.994522 545.872498,233.700729 
	C545.705688,234.741486 544.106323,235.552704 543.256287,236.379486 
	C541.999390,232.723404 541.113098,230.145309 540.185364,227.160583 
z"/>
<path fill="#E47125" opacity="1.000000" stroke="none" 
	d="
M673.968994,229.545044 
	C671.314636,227.551147 672.922546,225.885132 674.060608,224.552032 
	C674.718872,223.781036 676.023010,223.561493 677.036499,223.093765 
	C677.648010,224.516556 678.692139,225.914215 678.776611,227.367661 
	C678.929565,229.998749 678.510071,232.663116 678.299805,235.751328 
	C677.452026,235.814087 676.040955,235.918533 673.991150,236.070267 
	C673.991150,233.835831 673.991150,231.902679 673.968994,229.545044 
z"/>
<path fill="#E47125" opacity="1.000000" stroke="none" 
	d="
M484.702698,225.516754 
	C485.894287,224.474701 486.874817,223.774704 487.855316,223.074707 
	C488.528107,224.446167 489.684204,225.788406 489.769318,227.195404 
	C489.928101,229.822388 489.464752,232.486969 489.225067,235.592651 
	C488.388489,235.592651 486.903839,235.592651 485.872620,235.592651 
	C484.953735,232.442444 484.084503,229.525116 483.306610,226.583603 
	C483.272705,226.455429 484.077515,226.105453 484.702698,225.516754 
z"/>
<path fill="#E47125" opacity="1.000000" stroke="none" 
	d="
M743.079102,223.435425 
	C744.229248,222.599594 745.321838,222.221664 746.783142,221.716156 
	C746.783142,226.730896 746.783142,231.011551 746.783142,235.574738 
	C744.208618,236.477585 742.833130,236.032669 742.974060,232.888199 
	C743.108215,229.895218 743.014832,226.892014 743.079102,223.435425 
z"/>
<path fill="#E57124" opacity="1.000000" stroke="none" 
	d="
M444.002380,232.812683 
	C444.001038,230.401337 444.001038,228.447662 444.001038,226.462189 
	C446.358795,226.008575 448.371765,225.621292 451.077057,225.100800 
	C449.708954,228.633926 448.439880,231.911362 446.700623,236.402969 
	C445.791809,235.347321 444.897766,234.308838 444.002380,232.812683 
z"/>
<path fill="#E47125" opacity="1.000000" stroke="none" 
	d="
M733.000366,226.208527 
	C733.439941,224.525162 733.879333,223.305969 734.318726,222.086761 
	C734.878601,223.185959 735.825989,224.252670 735.921387,225.390778 
	C736.153870,228.163849 736.113037,230.978638 735.916382,233.757797 
	C735.854675,234.629349 734.945740,235.440918 734.424622,236.279953 
	C733.949829,236.131546 733.474976,235.983139 733.000183,235.834732 
	C733.000183,232.780716 733.000183,229.726700 733.000366,226.208527 
z"/>
<path fill="#E47125" opacity="1.000000" stroke="none" 
	d="
M401.099365,226.105240 
	C406.543579,227.412720 403.098267,231.374161 403.827209,234.043655 
	C403.971100,234.570709 402.099030,235.648285 401.156677,236.471985 
	C400.718658,236.193970 400.280640,235.915955 399.842651,235.637924 
	C400.111176,232.483902 400.379700,229.329865 401.099365,226.105240 
z"/>
<path fill="#E47125" opacity="1.000000" stroke="none" 
	d="
M476.999939,230.997940 
	C476.656860,233.012756 476.313782,234.574753 475.970703,236.136734 
	C475.313812,236.015182 474.656952,235.893631 474.000092,235.772079 
	C474.000092,234.182007 474.000092,232.591919 474.000092,231.001831 
	C474.000092,229.406631 474.000092,227.811417 474.000092,226.216217 
	C474.655151,226.098618 475.310211,225.981018 475.965271,225.863419 
	C476.310150,227.423981 476.655029,228.984543 476.999939,230.997940 
z"/>
<path fill="#000000" opacity="1.000000" stroke="none" 
	d="
M114.157036,114.998489 
	C127.342247,114.998489 140.046173,114.998489 152.750107,114.998489 
	C152.812134,115.456413 152.874161,115.914330 152.936188,116.372253 
	C151.350189,116.726212 149.752319,117.034370 148.180237,117.442009 
	C141.193512,119.253662 139.176804,121.235611 139.079865,128.469513 
	C138.847794,145.787445 138.639114,163.122223 139.190002,180.425735 
	C139.401962,187.083527 140.202026,194.048462 145.747849,199.360641 
	C155.794434,208.983994 177.478622,204.473618 181.878693,191.301697 
	C183.659729,185.970032 184.696289,180.178589 184.863281,174.560455 
	C185.278748,160.582718 185.061096,146.583862 184.949875,132.594666 
	C184.926682,129.678085 184.461273,126.724976 183.850861,123.863091 
	C183.061600,120.162651 180.101395,118.798721 176.744492,118.029099 
	C174.824982,117.589020 172.930283,117.040718 171.240662,115.417656 
	C181.036621,115.417656 190.832581,115.417656 200.628540,115.417656 
	C200.781326,115.676460 200.934128,115.935272 201.086914,116.194077 
	C199.816452,116.793472 198.601227,117.600082 197.265869,117.956154 
	C191.680359,119.445534 190.011292,121.483276 190.005219,127.316368 
	C189.989441,142.472260 190.407898,157.644165 189.816116,172.776932 
	C189.547226,179.653015 188.173523,186.781326 185.751190,193.211365 
	C181.698990,203.967758 172.286896,208.728973 161.519104,209.793015 
	C151.560623,210.777069 141.431656,210.380295 132.408920,204.878464 
	C122.166420,198.632858 118.198875,188.914993 118.052872,177.471191 
	C117.844673,161.152084 118.001701,144.828339 117.998932,128.506577 
	C117.997551,120.405983 117.985344,120.432922 109.791817,117.888275 
	C108.795998,117.578995 107.948715,116.791458 107.147194,114.998489 
	C109.323380,114.998489 111.499565,114.998489 114.157036,114.998489 
z"/>
<path fill="#000000" opacity="1.000000" stroke="none" 
	d="
M236.999298,144.000000 
	C236.999298,135.197800 236.999298,126.895592 236.999298,118.090950 
	C229.185654,118.096069 221.414230,118.431984 216.464249,124.433609 
	C212.295532,129.487961 210.010635,136.096054 206.246368,143.241669 
	C206.246368,133.032211 206.246368,124.282692 206.246368,115.265472 
	C233.360504,115.265472 260.285339,115.265472 287.606323,115.265472 
	C287.606323,124.041176 287.606323,132.909775 287.606323,141.778366 
	C287.230621,141.929947 286.854919,142.081528 286.479187,142.233109 
	C285.983276,141.118637 285.268951,140.049881 285.024689,138.882767 
	C282.059845,124.714569 274.789978,118.370422 258.000000,118.214760 
	C258.000000,119.994926 258.000000,121.774681 258.000000,123.554443 
	C258.000000,146.376312 257.999847,169.198181 258.000061,192.020050 
	C258.000153,201.554214 259.532776,203.373383 268.903381,204.996429 
	C269.897369,205.168594 270.880646,205.402878 271.763763,206.535263 
	C255.594925,206.535263 239.426071,206.535263 222.659897,206.535263 
	C223.397858,205.742844 223.654022,205.201324 223.985062,205.150848 
	C235.245331,203.433823 236.928802,201.564240 236.982056,189.977142 
	C237.051727,174.818390 236.999237,159.659073 236.999298,144.000000 
z"/>
<path fill="#000000" opacity="1.000000" stroke="none" 
	d="
M447.796631,179.000015 
	C442.698090,179.000015 438.069641,179.000015 432.883484,179.000015 
	C436.331177,170.111511 439.616180,161.642456 443.269470,152.223846 
	C447.092529,161.520050 450.503204,169.813431 454.281158,179.000015 
	C451.987061,179.000015 450.126892,179.000015 447.796631,179.000015 
z"/>
<path fill="#000000" opacity="1.000000" stroke="none" 
	d="
M381.789368,200.053452 
	C376.849274,201.598038 372.556854,203.678879 367.343414,202.214096 
	C363.964325,201.264709 363.072479,199.224289 363.061676,196.574142 
	C362.963867,172.580963 362.963928,148.587082 363.043945,124.593781 
	C363.057068,120.661400 368.276855,118.135849 373.314484,119.120674 
	C384.299652,121.268181 390.733459,128.378265 393.933258,138.529907 
	C398.961609,154.482910 398.305664,170.582230 393.951569,186.579025 
	C392.237854,192.875076 387.316803,196.574341 381.789368,200.053452 
z"/>
<path fill="#000000" opacity="1.000000" stroke="none" 
	d="
M668.204468,179.000000 
	C665.744934,179.000000 663.752502,179.000000 661.505493,179.000000 
	C663.120605,174.357086 664.540161,169.910446 666.216492,165.562790 
	C667.813416,161.420898 669.678162,157.382263 671.773132,152.484940 
	C675.559448,161.635803 679.021179,170.002274 682.744141,179.000000 
	C677.779602,179.000000 673.225647,179.000000 668.204468,179.000000 
z"/>
<path fill="#000000" opacity="1.000000" stroke="none" 
	d="
M700.271118,232.409668 
	C700.064514,230.219208 700.022705,228.407974 700.048706,226.597717 
	C700.055298,226.137726 700.277466,225.680832 700.870422,223.473785 
	C703.002563,225.968002 705.566528,227.624924 705.616333,229.354233 
	C705.683655,231.690811 703.676758,233.858749 700.271118,232.409668 
z"/>
</svg>