<?xml version="1.0" standalone="no"?>
<!DOCTYPE svg PUBLIC "-//W3C//DTD SVG 20010904//EN"
 "http://www.w3.org/TR/2001/REC-SVG-20010904/DTD/svg10.dtd">
<svg version="1.0" xmlns="http://www.w3.org/2000/svg"
 width="724.000000pt" height="301.000000pt" viewBox="0 0 724.000000 301.000000"
 preserveAspectRatio="xMidYMid meet">

<g transform="translate(0.000000,301.000000) scale(0.100000,-0.100000)"
fill="#000000" stroke="none">
<path d="M778 2264 l-3 -539 -372 -3 c-236 -1 -373 -6 -373 -12 0 -23 302
-299 342 -312 5 -2 16 -34 24 -71 16 -78 60 -179 97 -223 14 -17 44 -36 67
-43 23 -7 63 -25 89 -42 26 -16 58 -30 70 -31 32 -4 79 56 89 112 7 44 8 44
76 68 l68 23 37 -40 c43 -46 133 -91 197 -99 l44 -5 56 -111 c71 -139 155
-270 187 -291 15 -10 29 -32 36 -58 5 -23 28 -82 50 -132 l40 -89 188 -63
c146 -49 196 -61 223 -57 19 4 36 7 37 8 2 1 -6 25 -17 53 -10 28 -24 80 -31
117 -10 58 -8 79 10 171 30 147 45 182 92 205 84 43 269 173 349 245 61 55
109 88 168 115 107 50 110 58 114 256 l3 149 -38 77 c-22 42 -47 84 -58 94
-17 16 -19 33 -19 205 0 209 7 190 -73 204 -21 3 -71 19 -112 36 -84 33 -110
35 -180 13 -36 -12 -99 -17 -230 -19 l-180 -3 -58 30 c-32 16 -84 34 -115 39
-57 11 -125 40 -137 59 -3 5 -18 10 -33 10 -15 0 -46 9 -69 20 l-43 19 0 221
0 220 -117 0 c-65 0 -202 3 -305 7 l-188 6 -2 -539z m497 -324 c0 -9 -15 -17
-44 -22 -79 -13 -76 -2 -76 -331 0 -292 0 -292 25 -341 37 -74 66 -91 153 -91
120 0 186 54 207 168 7 33 10 159 8 301 -3 275 -5 280 -80 292 -28 5 -38 11
-38 25 0 18 10 19 140 19 131 0 140 -1 140 -19 0 -13 -10 -21 -34 -25 -61 -12
-61 -12 -66 -325 l-5 -287 -33 -67 c-55 -112 -127 -150 -282 -150 -52 0 -114
5 -137 11 -70 21 -135 71 -168 132 l-30 55 -5 298 -5 299 -24 19 c-13 10 -34
19 -47 19 -17 0 -24 6 -24 20 0 20 5 20 213 18 179 -3 212 -5 212 -18z m1225
-110 c0 -122 -1 -130 -20 -130 -14 0 -22 11 -31 42 -29 109 -78 155 -174 165
l-56 6 3 -361 c3 -407 0 -391 80 -401 30 -4 44 -11 46 -23 3 -17 -13 -18 -228
-18 -215 0 -231 1 -228 18 2 11 16 19 43 22 22 3 45 9 52 13 27 17 33 90 33
415 l0 332 -32 0 c-101 0 -167 -51 -194 -149 -13 -46 -22 -61 -36 -61 -17 0
-18 11 -18 130 l0 130 380 0 380 0 0 -130z"/>
<path d="M2850 1941 c0 -5 16 -12 35 -15 19 -4 44 -17 55 -28 19 -21 20 -36
20 -359 0 -186 -3 -345 -6 -354 -8 -19 -55 -45 -84 -45 -11 0 -20 -4 -20 -10
0 -6 90 -10 250 -10 227 0 256 2 312 21 111 37 198 114 247 218 24 51 26 67
26 176 0 101 -4 129 -23 177 -28 70 -94 145 -159 181 -92 50 -145 57 -410 57
-135 0 -243 -4 -243 -9z m484 -46 c45 -22 87 -76 118 -154 20 -49 22 -74 23
-211 0 -121 -4 -168 -18 -212 -18 -61 -63 -115 -117 -143 -37 -19 -110 -30
-144 -21 -43 11 -47 54 -44 412 3 312 4 326 23 341 26 19 106 13 159 -12z"/>
<path d="M3929 1833 c-34 -91 -242 -601 -255 -627 -23 -44 -44 -66 -66 -66
-10 0 -18 -4 -18 -10 0 -6 43 -10 110 -10 67 0 110 4 110 10 0 6 -13 10 -28
10 -16 0 -36 6 -47 14 -16 11 -17 18 -7 57 6 25 18 61 27 82 l15 37 123 0 123
0 28 -72 c34 -89 27 -118 -29 -118 -19 0 -35 -4 -35 -10 0 -7 167 -10 480 -10
450 0 480 1 480 18 1 9 9 61 19 115 14 76 15 97 6 97 -7 0 -23 -21 -36 -46
-50 -104 -117 -150 -233 -161 -51 -5 -71 -2 -91 11 l-25 16 0 303 c0 231 3
307 13 321 7 9 32 20 55 23 95 13 31 23 -143 23 -117 0 -185 -4 -185 -10 0 -5
9 -10 20 -10 12 0 32 -11 45 -25 l25 -24 0 -296 c0 -282 -1 -296 -20 -315 -27
-27 -87 -27 -116 1 -12 11 -85 170 -166 360 -81 192 -149 339 -156 339 -7 0
-17 -12 -23 -27z m18 -337 c28 -69 48 -127 45 -130 -3 -3 -50 -6 -104 -6 -75
0 -98 3 -98 13 0 21 91 247 99 247 4 0 30 -56 58 -124z"/>
<path d="M5989 1833 c-32 -86 -244 -603 -256 -628 -22 -43 -44 -65 -65 -65
-10 0 -18 -4 -18 -10 0 -6 43 -10 110 -10 67 0 110 4 110 10 0 6 -13 10 -28
10 -16 0 -36 6 -47 14 -16 11 -17 18 -7 57 6 25 18 61 27 82 l15 37 123 0 123
0 13 -32 c49 -123 46 -158 -14 -158 -19 0 -35 -4 -35 -10 0 -6 63 -10 170 -10
156 0 207 8 145 24 -29 7 -46 41 -211 433 -67 160 -125 283 -132 283 -7 0 -17
-12 -23 -27z m18 -338 c28 -68 48 -126 45 -130 -3 -3 -50 -5 -104 -5 -80 0
-98 3 -98 15 0 21 91 245 99 245 4 0 30 -56 58 -125z"/>
<path d="M6577 1845 c-52 -18 -85 -50 -113 -110 -28 -60 -30 -116 -5 -170 25
-56 68 -91 205 -165 124 -67 146 -90 146 -150 0 -72 -53 -120 -131 -120 -92 0
-169 66 -204 175 -10 32 -23 55 -31 55 -11 0 -14 -25 -14 -130 0 -110 2 -130
15 -130 9 0 18 7 21 15 8 19 42 19 112 -1 73 -21 183 -14 241 15 51 27 95 86
111 151 10 40 9 58 -4 102 -20 71 -65 111 -201 182 -135 71 -167 99 -169 153
-2 92 89 140 187 99 42 -17 102 -86 123 -143 9 -23 23 -43 30 -43 11 0 14 25
14 115 0 122 -7 137 -43 94 -12 -13 -24 -18 -35 -14 -90 35 -192 43 -255 20z"/>
<path d="M4980 1830 c0 -5 9 -10 20 -10 12 0 32 -11 45 -25 l25 -24 0 -296 c0
-282 -1 -296 -20 -315 -11 -11 -31 -20 -45 -20 -14 0 -25 -4 -25 -10 0 -6 109
-10 308 -10 l309 0 19 115 c23 131 13 151 -31 63 -51 -102 -113 -144 -229
-155 -51 -5 -71 -2 -91 11 l-25 16 0 303 c0 231 3 307 13 321 7 9 32 20 55 23
95 13 31 23 -143 23 -117 0 -185 -4 -185 -10z"/>
<path d="M2618 963 c19 -4 22 -11 22 -54 0 -27 5 -49 10 -49 6 0 10 22 10 49
0 43 3 50 23 54 12 2 -3 4 -33 4 -30 0 -45 -2 -32 -4z"/>
<path d="M2760 921 c0 -56 17 -79 22 -29 2 25 8 33 23 33 15 0 21 -9 26 -35 4
-27 7 -31 13 -17 5 9 5 28 2 42 -5 20 -13 25 -36 25 -20 0 -30 5 -30 15 0 8
-4 15 -10 15 -5 0 -10 -22 -10 -49z"/>
<path d="M3172 923 c3 -42 6 -49 31 -57 42 -15 61 2 65 58 2 26 -1 46 -7 46
-5 0 -11 -19 -13 -42 -3 -38 -6 -43 -28 -43 -22 0 -25 5 -28 43 -2 23 -8 42
-13 42 -6 0 -9 -20 -7 -47z"/>
<path d="M4268 953 c-2 -10 -1 -34 2 -53 4 -25 11 -35 25 -37 11 -2 14 0 8 3
-7 3 -13 18 -13 34 0 16 6 31 13 33 10 4 10 6 0 6 -7 1 -13 8 -13 16 0 21 -17
19 -22 -2z"/>
<path d="M4784 958 c-10 -16 -6 -80 6 -92 7 -7 10 4 10 27 0 23 5 37 13 37 8
0 7 4 -3 10 -13 9 -13 11 0 20 13 8 13 10 -2 10 -9 0 -20 -5 -24 -12z"/>
<path d="M4998 960 c18 -8 22 -17 22 -55 0 -25 5 -45 10 -45 6 0 10 22 10 49
0 43 3 50 23 54 12 2 -3 5 -33 5 -42 1 -50 -1 -32 -8z"/>
<path d="M5972 949 c-7 -11 -8 -19 -2 -19 5 0 10 -16 10 -35 0 -26 4 -35 17
-35 13 0 14 3 5 12 -14 14 -16 55 -3 60 5 2 4 11 -3 20 -11 15 -13 15 -24 -3z"/>
<path d="M6180 914 l0 -57 41 6 c46 6 59 19 59 58 0 35 -18 49 -62 49 l-38 0
0 -56z m75 6 c0 -31 -3 -35 -27 -38 -27 -3 -28 -1 -28 38 0 39 1 41 28 38 24
-3 27 -7 27 -38z"/>
<path d="M6513 915 c0 -33 2 -45 4 -27 2 18 2 45 0 60 -2 15 -4 0 -4 -33z"/>
<path d="M6600 915 c0 -30 5 -55 10 -55 6 0 10 25 10 55 0 30 -4 55 -10 55 -5
0 -10 -25 -10 -55z"/>
<path d="M2927 934 c-4 -4 -7 -20 -7 -35 0 -22 6 -30 24 -35 14 -3 33 -1 43 5
16 10 14 11 -11 9 -16 -2 -31 2 -33 10 -3 8 6 12 27 12 25 0 31 4 28 18 -3 17
-57 30 -71 16z m53 -14 c0 -5 -9 -10 -20 -10 -11 0 -20 5 -20 10 0 6 9 10 20
10 11 0 20 -4 20 -10z"/>
<path d="M3350 900 c0 -22 5 -40 10 -40 6 0 10 18 10 40 0 22 -4 40 -10 40 -5
0 -10 -18 -10 -40z"/>
<path d="M3393 933 c12 -3 17 -15 17 -39 0 -19 5 -34 10 -34 6 0 10 18 10 40
0 37 -2 40 -27 39 -17 -1 -21 -3 -10 -6z"/>
<path d="M3510 900 c0 -22 5 -40 10 -40 6 0 10 18 10 40 0 22 -4 40 -10 40 -5
0 -10 -18 -10 -40z"/>
<path d="M3600 936 c0 -15 32 -76 40 -76 5 0 17 16 25 36 18 43 18 44 6 44 -5
0 -12 -11 -15 -25 -4 -14 -10 -25 -15 -25 -5 0 -12 11 -15 25 -4 14 -11 25
-16 25 -6 0 -10 -2 -10 -4z"/>
<path d="M3754 926 c-16 -42 19 -77 58 -58 23 11 22 11 -6 9 -16 -1 -31 4 -33
11 -3 8 7 12 32 12 33 0 35 2 25 20 -13 24 -68 28 -76 6z m61 -6 c4 -6 -5 -10
-19 -10 -14 0 -26 5 -26 10 0 6 9 10 19 10 11 0 23 -4 26 -10z"/>
<path d="M3900 899 c0 -22 5 -39 10 -39 6 0 10 13 10 30 0 17 7 33 17 38 13 8
11 10 -10 10 -25 0 -27 -4 -27 -39z"/>
<path d="M4020 924 c0 -8 13 -20 30 -25 35 -13 29 -33 -7 -24 -16 4 -22 2 -18
-5 10 -15 51 -12 66 6 10 13 10 17 -2 25 -8 5 -22 9 -31 9 -10 0 -18 5 -18 11
0 7 10 9 25 5 14 -4 25 -2 25 4 0 5 -16 10 -35 10 -25 0 -35 -4 -35 -16z"/>
<path d="M4170 900 c0 -22 5 -40 10 -40 6 0 10 18 10 40 0 22 -4 40 -10 40 -5
0 -10 -18 -10 -40z"/>
<path d="M4370 936 c0 -2 7 -20 15 -41 12 -28 13 -40 4 -51 -9 -11 -8 -14 4
-14 13 0 22 16 54 98 3 6 0 12 -6 12 -6 0 -13 -11 -17 -25 -3 -14 -10 -25 -14
-25 -4 0 -11 11 -14 25 -4 14 -11 25 -16 25 -6 0 -10 -2 -10 -4z"/>
<path d="M4627 933 c-12 -12 -7 -50 8 -63 35 -29 93 21 65 55 -13 15 -61 20
-73 8z m60 -19 c3 -8 -2 -23 -11 -32 -16 -16 -18 -16 -31 1 -7 11 -11 25 -8
33 7 19 42 18 50 -2z"/>
<path d="M5131 926 c-29 -34 32 -89 62 -56 10 10 8 12 -5 7 -21 -7 -48 1 -48
14 0 5 16 9 36 9 28 0 35 3 32 18 -4 22 -60 29 -77 8z m59 -6 c0 -5 -12 -10
-26 -10 -14 0 -23 4 -19 10 3 6 15 10 26 10 10 0 19 -4 19 -10z"/>
<path d="M5290 919 c9 -16 8 -25 -6 -40 -9 -10 -12 -19 -7 -19 6 0 16 7 24 16
12 14 14 14 26 -2 17 -24 28 -11 12 14 -10 17 -10 23 0 36 15 18 1 22 -16 5
-8 -8 -13 -8 -17 0 -13 21 -27 12 -16 -10z"/>
<path d="M5430 931 c0 -4 11 -6 25 -3 14 2 25 0 25 -6 0 -5 -14 -12 -31 -16
-22 -4 -30 -11 -27 -23 2 -10 12 -19 23 -20 11 -2 14 0 8 3 -21 9 -15 34 7 34
14 0 20 -6 18 -16 -2 -10 3 -19 10 -21 8 -3 12 8 12 36 0 40 -1 41 -35 41 -19
0 -35 -4 -35 -9z"/>
<path d="M5574 929 c-8 -13 5 -26 30 -31 11 -1 21 -9 24 -17 3 -10 -3 -12 -29
-7 -27 6 -31 5 -16 -4 10 -6 28 -10 40 -8 29 4 30 41 2 46 -11 2 -24 9 -30 14
-7 7 0 9 23 4 21 -3 31 -2 27 4 -8 13 -62 13 -71 -1z"/>
<path d="M5825 931 c-4 -7 5 -9 27 -5 23 5 30 3 23 -4 -5 -5 -19 -12 -30 -14
-12 -2 -20 -11 -20 -23 0 -12 8 -21 20 -22 11 -2 14 0 8 3 -21 9 -15 34 7 34
14 0 20 -6 18 -16 -2 -10 3 -19 10 -22 10 -3 13 6 10 34 -3 36 -6 39 -35 42
-17 2 -34 -2 -38 -7z"/>
<path d="M6355 930 c-4 -6 6 -7 25 -4 17 4 30 2 30 -3 0 -6 -14 -13 -31 -17
-22 -4 -30 -11 -27 -23 2 -10 12 -19 23 -20 11 -2 14 0 8 3 -21 9 -15 34 7 34
14 0 20 -6 18 -16 -2 -10 3 -19 10 -21 8 -3 12 8 12 36 0 40 -1 41 -34 41 -19
0 -38 -4 -41 -10z"/>
<path d="M6700 930 c0 -6 11 -8 25 -4 15 4 25 2 25 -5 0 -6 -8 -11 -19 -11
-22 0 -45 -25 -36 -40 3 -5 22 -9 41 -7 32 2 34 4 34 40 0 36 -1 37 -35 37
-19 0 -35 -5 -35 -10z m50 -39 c0 -14 -18 -23 -30 -16 -6 4 -8 11 -5 16 8 12
35 12 35 0z"/>
<path d="M6850 921 c0 -13 10 -20 31 -25 18 -3 28 -10 24 -17 -4 -6 -18 -8
-34 -4 -19 5 -23 4 -15 -5 7 -6 22 -10 35 -8 32 4 33 42 2 46 -13 2 -23 8 -23
14 0 6 10 8 25 4 14 -4 25 -2 25 4 0 5 -16 10 -35 10 -28 0 -35 -4 -35 -19z"/>
</g>
</svg>
