<svg version="1.1" id="Layer_1" xmlns="http://www.w3.org/2000/svg" xmlns:xlink="http://www.w3.org/1999/xlink" x="0px" y="0px"
	 width="100%" viewBox="0 0 724 301" enable-background="new 0 0 724 301" xml:space="preserve">
<path fill="#FFFFFE" opacity="1.000000" stroke="none" 
	d="
M449.000000,302.000000 
	C299.369690,302.000000 150.239380,302.000000 1.054533,302.000000 
	C1.054533,201.727509 1.054533,101.454964 1.054533,1.091213 
	C242.213669,1.091213 483.427399,1.091213 724.820557,1.091213 
	C724.820557,101.333076 724.820557,201.666504 724.820557,302.000000 
	C633.121582,302.000000 541.310791,302.000000 449.000000,302.000000 
M158.896851,261.664642 
	C159.753830,265.047119 161.516083,267.174042 165.400116,267.224274 
	C166.969727,267.244568 168.516357,268.285217 170.090866,268.809265 
	C178.763214,271.695648 187.368668,274.821869 196.156021,277.302887 
	C199.235214,278.172272 202.766159,277.441650 207.195755,277.441650 
	C198.233459,261.251221 200.183136,245.997864 205.033295,230.670883 
	C206.216492,226.931854 208.168900,224.253998 211.747757,221.959152 
	C222.646133,214.970978 233.410141,207.685471 243.609924,199.725677 
	C250.701126,194.191803 257.120728,187.898514 265.879089,184.912109 
	C271.219269,183.091232 273.745850,178.927032 274.244171,173.556656 
	C274.610229,169.611359 273.983887,165.511765 274.768158,161.679108 
	C277.162262,149.979111 273.451080,139.724655 266.846954,130.713135 
	C263.761963,126.503517 263.031067,122.613914 263.071686,117.929298 
	C263.156464,108.153114 263.097351,98.375679 263.097351,89.780975 
	C255.196503,86.994888 248.426193,84.367989 241.495926,82.269272 
	C238.253052,81.287224 234.356049,80.195084 231.353745,81.111877 
	C222.121262,83.931129 212.960846,84.882195 203.356842,83.898560 
	C198.459152,83.396935 193.083725,85.650757 188.491364,84.464149 
	C178.130524,81.787056 168.103592,77.797966 157.981766,74.226624 
	C154.648972,73.050705 151.549057,71.092003 148.154724,70.239479 
	C141.577118,68.587456 140.060577,67.019569 140.060379,60.216007 
	C140.060104,51.049538 140.060303,41.883064 140.060303,32.716595 
	C140.060303,29.297684 140.060303,25.878773 140.060303,22.386963 
	C119.069008,22.386963 98.854492,22.386963 78.088272,22.386963 
	C78.088272,58.160217 78.088272,93.547340 78.088272,129.396759 
	C52.830444,129.396759 28.124178,129.396759 2.834927,129.396759 
	C3.688421,131.156174 3.973662,132.617310 4.856159,133.429382 
	C14.527367,142.328705 24.092859,151.363541 34.149361,159.811234 
	C37.255135,162.420166 39.066128,164.861618 40.219501,168.786041 
	C42.309803,175.898438 45.072540,182.906448 48.440983,189.505585 
	C49.854839,192.275467 53.333561,194.212051 56.220455,195.951859 
	C59.603104,197.990448 63.465401,199.216629 66.939369,201.123581 
	C74.443954,205.243073 80.826332,203.280380 81.423042,194.920761 
	C82.015739,186.617203 87.628761,186.018585 92.867607,184.371826 
	C94.495369,183.860153 97.426689,184.976578 98.709221,186.338409 
	C103.315216,191.229187 108.582550,195.438019 115.163437,196.018646 
	C123.164894,196.724579 126.627213,201.446030 129.183350,207.915649 
	C129.731201,209.302246 130.487305,210.610168 131.191650,211.930756 
	C136.341904,221.587067 140.715775,231.767380 149.605179,238.890594 
	C150.305328,239.451630 150.589249,240.589890 150.951584,241.505402 
	C153.516113,247.985184 156.050568,254.476852 158.896851,261.664642 
M286.103790,189.709045 
	C286.547058,190.094254 286.995361,190.821671 287.432892,190.815262 
	C303.734344,190.577179 320.150696,191.380035 336.305847,189.691727 
	C356.147400,187.618164 370.075714,170.361359 370.731750,149.859619 
	C371.432709,127.954727 359.819550,111.791870 338.864685,107.957062 
	C328.016693,105.971825 316.683594,106.553612 305.562866,106.175018 
	C299.146301,105.956581 292.716278,106.135376 286.292297,106.135376 
	C286.111847,106.571945 285.931366,107.008514 285.750885,107.445084 
	C286.662262,108.187508 287.521637,109.492668 288.493347,109.582520 
	C295.678986,110.246887 296.829285,114.598251 296.792969,120.830750 
	C296.691010,138.317139 296.758270,155.804489 296.757874,173.291473 
	C296.757599,184.294022 296.755432,184.290237 286.589020,188.063293 
	C286.357880,188.149063 286.259094,188.591385 286.103790,189.709045 
M437.795044,117.332863 
	C435.905182,117.552155 434.015320,117.771439 432.125458,117.990730 
	C432.660583,119.539635 433.128387,119.991203 433.681396,120.154846 
	C441.243195,122.392303 441.698425,122.953392 441.746216,130.837540 
	C441.780518,136.499619 441.757355,142.162094 441.752472,147.824387 
	C441.743286,158.482697 441.767395,169.141251 441.695709,179.799164 
	C441.670380,183.565216 440.536377,186.707809 436.291962,187.686325 
	C432.013702,188.672653 428.746704,187.544693 426.815369,183.383148 
	C425.556458,180.670578 424.162292,178.017242 422.990204,175.268494 
	C415.102570,156.770676 407.289246,138.241043 399.339722,119.769974 
	C398.716370,118.321632 397.240631,117.240135 396.161041,115.988129 
	C395.123566,117.315277 393.718781,118.491974 393.104248,119.992363 
	C385.042145,139.676437 377.113434,159.415115 369.094299,179.116913 
	C367.517853,182.989975 365.825134,186.832352 361.135162,188.064545 
	C360.576324,188.211365 360.299652,189.432175 359.629059,190.622070 
	C367.453094,190.622070 374.640686,190.622070 381.828278,190.622070 
	C381.967987,190.195862 382.107697,189.769653 382.247406,189.343445 
	C381.102631,188.868820 379.998047,188.194305 378.806030,187.954575 
	C373.963806,186.980682 372.970062,185.516495 374.098145,180.666931 
	C376.685547,169.543716 376.763092,169.481796 388.102081,169.481781 
	C389.434387,169.481781 390.766693,169.481781 392.098999,169.481781 
	C403.491760,169.481781 403.491760,169.481781 406.627960,180.362015 
	C406.674072,180.522003 406.733093,180.678543 406.773712,180.839813 
	C407.986816,185.655014 406.973083,187.105118 402.072479,187.960770 
	C400.898682,188.165695 399.816956,188.897903 398.692871,189.387619 
	C398.841309,189.786804 398.989746,190.186005 399.138184,190.585205 
	C430.994171,190.585205 462.850128,190.585205 494.801147,190.585205 
	C496.264771,182.321259 497.673492,174.367264 499.082214,166.413269 
	C498.510956,166.133224 497.939697,165.853195 497.368408,165.573151 
	C496.267151,167.237854 494.947662,168.798874 494.099670,170.583893 
	C488.102173,183.209076 479.533234,188.323303 465.829712,187.310226 
	C459.970856,186.877090 459.027466,185.897705 459.018890,179.920792 
	C458.996155,164.099701 459.083313,148.278122 458.983887,132.457626 
	C458.924408,122.990387 459.689819,120.639435 468.912872,120.053123 
	C469.297516,120.028664 469.653778,119.557632 470.050812,119.275047 
	C469.880890,118.691422 469.753387,117.820679 469.608551,117.817780 
	C459.314850,117.612007 449.019775,117.475388 437.795044,117.332863 
M644.033264,188.081009 
	C644.133972,189.470825 644.234741,190.860641 644.349060,192.438522 
	C645.516907,192.277740 646.555359,192.405106 646.737610,192.068695 
	C649.010864,187.872314 652.172119,189.445038 655.696350,190.052017 
	C662.009766,191.139374 668.526550,192.224442 674.852600,191.785675 
	C684.583374,191.110718 690.959351,185.121002 693.978638,175.920044 
	C697.495605,165.202301 692.713745,155.326920 681.335388,149.149719 
	C674.619995,145.503998 667.835815,141.979279 661.203796,138.188004 
	C656.991211,135.779785 656.275269,131.632629 657.068909,127.286484 
	C657.828064,123.129501 660.636108,120.603958 664.696289,119.615219 
	C671.127625,118.049080 676.770203,119.923424 680.915588,124.801445 
	C683.765076,128.154480 685.572754,132.384033 687.929199,136.170059 
	C688.693665,137.398270 689.721497,138.462463 690.628906,139.601669 
	C691.074829,139.356094 691.520752,139.110519 691.966675,138.864944 
	C691.966675,135.066299 691.966675,131.267670 691.966675,127.469032 
	C691.966675,123.688492 691.966675,119.907951 691.966675,115.926125 
	C690.647827,115.995247 689.322327,115.749031 689.114197,116.123642 
	C686.585205,120.675430 683.086853,118.596214 679.593933,117.850967 
	C675.397705,116.955673 671.117859,115.998779 666.860596,115.931252 
	C655.979248,115.758667 649.033691,120.901680 645.827698,130.837585 
	C642.801514,140.216431 645.685242,148.609222 654.310303,154.809296 
	C657.132019,156.837677 660.239197,158.483185 663.280518,160.188507 
	C667.772461,162.707123 672.475220,164.882523 676.807129,167.644897 
	C681.859436,170.866653 683.261169,176.311615 680.950562,181.605118 
	C678.488342,187.245773 672.879517,189.927231 665.951965,188.567993 
	C655.307251,186.479401 650.914856,178.571198 648.057922,169.203262 
	C647.611633,167.740021 646.502869,166.478836 645.700500,165.124222 
	C645.144775,165.354736 644.589050,165.585251 644.033325,165.815765 
	C644.033325,172.936050 644.033325,180.056351 644.033264,188.081009 
M563.717651,166.169403 
	C562.399292,167.865295 560.750000,169.397339 559.816223,171.283600 
	C553.676819,183.685669 543.577087,189.100266 530.083008,187.171326 
	C527.017029,186.733047 525.025208,185.490356 525.024048,182.191132 
	C525.017700,163.882721 525.013306,145.574173 525.095093,127.266045 
	C525.112366,123.397812 527.141785,121.134407 531.140198,120.660461 
	C532.855347,120.457153 534.518860,119.817047 537.249390,119.102196 
	C531.326538,116.364250 500.485626,116.888481 497.982086,119.388794 
	C498.995178,119.754990 499.844574,120.253410 500.738617,120.353622 
	C505.936890,120.936279 507.648804,124.094208 507.626495,128.954666 
	C507.549500,145.765427 507.554871,162.576920 507.619873,179.387787 
	C507.639709,184.526703 505.653656,187.619751 500.206970,188.048370 
	C499.416351,188.110596 498.706879,189.203156 497.030151,190.585236 
	C519.260620,190.585236 539.977173,190.585236 561.062805,190.585236 
	C562.230408,182.312073 563.359253,174.313721 563.717651,166.169403 
M618.002563,149.447754 
	C613.846802,139.651505 609.738403,129.834579 605.485535,120.080650 
	C604.826050,118.568069 603.505249,117.343796 602.490234,115.986214 
	C601.322693,117.364700 599.707825,118.559746 599.055725,120.149635 
	C591.295349,139.069153 583.720886,158.064835 575.993958,176.998199 
	C574.065063,181.724625 572.510193,186.914124 566.462524,188.301941 
	C566.187012,188.365158 566.215271,189.751892 566.102722,190.518005 
	C573.527466,190.518005 580.714172,190.518005 587.900879,190.518005 
	C588.013733,190.077591 588.126648,189.637161 588.239563,189.196747 
	C587.024963,188.764404 585.841431,188.126480 584.590088,187.937241 
	C580.376709,187.300049 579.027954,185.130341 579.986816,180.940094 
	C582.544067,169.764603 582.784119,169.482178 594.311035,169.482178 
	C595.810547,169.482178 597.310059,169.482178 598.809570,169.482178 
	C608.663025,169.482193 608.663025,169.482193 611.986938,178.740585 
	C614.485229,185.698944 613.677673,187.000824 606.295898,188.061768 
	C605.761597,188.138550 605.282715,188.600479 604.689087,188.933228 
	C607.160278,191.334564 634.956360,191.841095 640.845154,189.326019 
	C633.854126,187.382950 631.845703,181.996323 629.617859,176.773315 
	C625.834412,167.903259 622.040588,159.037674 618.002563,149.447754 
M317.815552,210.863327 
	C317.707703,213.687363 318.649780,216.132751 321.769379,215.943222 
	C323.929443,215.811966 327.258545,214.897858 327.859131,213.430573 
	C328.992615,210.661224 329.583862,207.074707 326.666016,204.328461 
	C325.852020,206.227280 326.020325,208.170273 325.532471,209.931549 
	C325.131287,211.380127 323.951416,212.613022 323.116638,213.941498 
	C322.342651,212.581604 321.298309,211.302170 320.863586,209.841309 
	C320.329529,208.046707 320.304535,206.100586 320.059479,204.219971 
	C319.305542,204.301620 318.551575,204.383255 317.797638,204.464905 
	C317.797638,206.329605 317.797638,208.194290 317.815552,210.863327 
M619.760132,215.987701 
	C620.759338,216.004501 621.759583,216.059067 622.757568,216.031677 
	C627.614380,215.898422 630.128174,213.705933 629.837036,209.678802 
	C629.505615,205.094284 626.419250,204.008286 622.470581,204.224991 
	C621.200867,204.294693 619.937134,204.473602 618.063171,204.664368 
	C618.367920,208.558167 618.647583,212.131638 619.760132,215.987701 
M468.238556,207.093414 
	C464.998138,206.791748 462.299072,207.821594 462.238312,211.344803 
	C462.212097,212.865341 464.016602,215.601654 465.169006,215.700958 
	C467.281891,215.882980 470.408508,215.163300 471.516998,213.650497 
	C473.280884,211.243317 472.051453,208.573135 468.238556,207.093414 
M635.754089,214.283905 
	C638.465515,215.008011 641.176941,215.732117 644.280029,216.560822 
	C644.280029,213.866257 644.583069,212.152328 644.183716,210.621689 
	C643.866638,209.406616 642.828979,207.673370 641.863525,207.492447 
	C640.252869,207.190659 637.880127,207.389633 636.874207,208.409470 
	C635.824646,209.473495 636.011780,211.757278 635.754089,214.283905 
M384.129730,213.026077 
	C385.667877,210.215637 384.667633,207.850601 381.838959,207.545837 
	C379.867432,207.333435 377.182709,208.565720 375.820374,210.064850 
	C375.142975,210.810242 376.160309,214.491379 377.404633,215.283493 
	C379.671051,216.726273 382.763580,217.345551 384.129730,213.026077 
M292.766815,209.353195 
	C291.333160,212.838165 292.283264,215.163010 296.065643,216.082336 
	C299.744110,216.976379 301.142487,214.663239 301.529083,211.715698 
	C301.682159,210.548706 300.683044,208.210251 300.030060,208.143188 
	C297.791321,207.913284 295.473480,208.453568 292.766815,209.353195 
M678.802734,211.777771 
	C679.104065,208.270950 677.227295,206.942383 674.008118,207.114090 
	C670.320129,207.310760 669.747620,210.064255 670.176453,212.780563 
	C670.371582,214.016708 672.501343,216.097519 673.173096,215.892563 
	C675.183777,215.279099 679.563904,217.999542 678.802734,211.777771 
M542.942627,214.324249 
	C545.669617,215.053909 548.396606,215.783585 551.456177,216.602234 
	C551.456177,214.044220 551.443909,212.594162 551.458557,211.144379 
	C551.501343,206.893646 548.400757,206.289413 545.792969,207.540131 
	C544.228577,208.290436 543.796570,211.401749 542.942627,214.324249 
M515.894043,215.951706 
	C518.377930,215.991684 521.657410,217.230118 521.720642,212.999985 
	C521.747009,211.235611 521.077881,208.236237 520.092102,207.945694 
	C518.250000,207.402771 515.254272,207.721207 513.988831,208.959259 
	C511.861176,211.040939 512.378662,213.806061 515.894043,215.951706 
M587.605103,215.780975 
	C588.691833,215.780975 589.778625,215.780975 591.185242,215.780975 
	C590.308716,212.276917 593.152039,207.615326 586.995850,207.095840 
	C582.772339,206.739426 582.950928,209.940903 582.478271,212.587921 
	C581.817383,216.288757 584.270203,216.181778 587.605103,215.780975 
M280.679047,209.687393 
	C281.486542,210.633347 282.455017,211.488083 283.057098,212.550461 
	C283.682556,213.654114 283.953644,214.958603 284.696899,217.081055 
	C289.240112,207.804596 281.425171,207.580093 277.597198,203.783890 
	C277.597198,208.365524 277.597198,212.154877 277.597198,215.944244 
	C278.106293,215.998322 278.615387,216.052399 279.124481,216.106476 
	C279.451385,214.217880 279.778259,212.329285 280.679047,209.687393 
M562.424622,216.157089 
	C567.447266,216.178299 566.777649,213.080627 565.498169,210.091232 
	C564.977295,208.874359 563.442322,207.233368 562.440491,207.281403 
	C560.933899,207.353607 559.490295,208.741058 558.019958,209.569336 
	C559.481812,211.621246 556.178955,216.281982 562.424622,216.157089 
M408.661407,207.414825 
	C404.518036,206.840057 401.291870,206.632980 403.132507,212.852264 
	C403.431793,213.863525 403.096771,215.805161 404.430725,215.833176 
	C406.549438,215.877670 408.687897,214.982437 410.818024,214.484726 
	C410.262024,213.075546 409.705994,211.666382 409.149994,210.257202 
	C409.380096,210.206589 409.610168,210.155960 409.840271,210.105347 
	C409.658783,209.313934 409.477295,208.522522 408.661407,207.414825 
M691.809204,207.601822 
	C689.713196,208.008560 686.921631,207.760544 685.733887,209.022293 
	C684.723389,210.095779 684.855713,213.379364 685.805481,214.801514 
	C686.551697,215.918823 689.336426,216.021515 691.177979,215.916229 
	C692.118469,215.862457 693.871216,214.027847 693.703247,213.577377 
	C693.202576,212.234329 691.933411,211.177780 691.485596,210.637833 
	C691.822083,209.757919 692.162598,208.867432 691.809204,207.601822 
M443.487457,215.913834 
	C444.526489,213.173874 445.565521,210.433914 446.604553,207.693954 
	C446.089935,207.448761 445.575287,207.203568 445.060669,206.958374 
	C444.067627,208.479889 443.074615,210.001404 442.180084,211.372025 
	C440.814758,209.766830 439.657745,208.406525 438.500732,207.046234 
	C438.255859,207.271500 438.010986,207.496780 437.766113,207.722046 
	C438.595062,211.378479 439.424011,215.034927 440.388275,219.288223 
	C441.006897,218.688263 442.095795,217.632187 443.487457,215.913834 
M265.617615,215.966019 
	C266.378113,213.190613 267.138611,210.415222 268.066345,207.029587 
	C268.560699,206.780701 269.819092,206.147125 271.077484,205.513550 
	C270.984192,205.280762 270.890900,205.047974 270.797607,204.815186 
	C267.292908,204.815186 263.788208,204.815186 261.652679,204.815186 
	C262.526794,207.365265 263.375214,209.634689 264.069702,211.950272 
	C264.436646,213.173737 264.535522,214.477631 265.617615,215.966019 
M505.146667,207.942734 
	C506.441071,207.092285 507.735504,206.241837 509.882996,204.830933 
	C505.256348,204.830933 501.748657,204.830933 498.240936,204.830933 
	C502.432617,205.909561 502.085663,208.933182 502.123108,211.944290 
	C502.140747,213.362366 502.870605,214.771576 503.277710,216.184814 
	C503.887512,216.026474 504.497284,215.868134 505.107086,215.709778 
	C505.107086,213.416061 505.107086,211.122345 505.146667,207.942734 
M536.740723,215.444458 
	C535.967102,214.182129 535.193481,212.919815 534.430908,211.675598 
	C535.115112,210.298920 535.785217,208.950516 536.226562,208.062347 
	C533.471252,208.062347 530.938232,208.062347 528.336731,208.062347 
	C528.969177,209.145035 529.694824,210.387436 530.368958,211.541534 
	C529.558228,213.023254 528.844360,214.327988 528.294067,215.333725 
	C531.151672,215.539536 533.662415,215.720367 536.740723,215.444458 
M336.690247,211.481918 
	C337.893341,210.594528 339.096436,209.707123 340.923096,208.359787 
	C341.470551,211.538498 341.858368,213.790405 342.246216,216.042313 
	C342.888550,216.007874 343.530884,215.973434 344.173218,215.938995 
	C344.020355,213.376099 344.794708,209.475006 343.491669,208.572128 
	C341.656158,207.300323 338.281189,208.250336 335.803162,208.250336 
	C335.803162,211.107300 335.803162,213.092667 335.803162,215.078049 
	C336.013611,215.068268 336.224060,215.058487 336.434479,215.048706 
	C336.498993,214.115829 336.563477,213.182953 336.690247,211.481918 
M366.764801,208.545944 
	C366.342438,209.513092 365.920105,210.480240 365.474152,211.501434 
	C364.002197,209.770554 362.816742,208.376572 361.631317,206.982605 
	C361.215698,207.246521 360.800079,207.510437 360.384460,207.774368 
	C361.255432,210.017120 361.967102,212.344040 363.083344,214.457245 
	C363.476715,215.201981 365.642334,215.880722 365.678802,215.818314 
	C367.066650,213.443054 368.323151,210.988266 369.478333,208.489182 
	C369.528198,208.381348 368.482025,207.702362 367.887909,207.407211 
	C367.741302,207.334381 367.364929,207.724014 366.764801,208.545944 
M427.694702,211.478867 
	C428.033081,215.896835 428.033081,215.896835 431.303894,215.406189 
	C430.905762,211.822083 430.519562,208.345657 430.133392,204.869217 
	C429.314606,204.929153 428.495850,204.989105 427.677063,205.049042 
	C427.677063,206.929184 427.677063,208.809326 427.694702,211.478867 
M482.624542,207.378159 
	C482.684601,206.383926 482.744629,205.389694 482.810486,204.299759 
	C477.676086,205.563431 477.099518,208.170700 480.483582,217.341904 
	C481.517609,213.462601 482.235748,210.768372 482.624542,207.378159 
M600.938965,212.885757 
	C600.906311,210.254211 600.873657,207.622665 600.841064,204.991104 
	C600.226807,205.000000 599.612610,205.008881 598.998352,205.017761 
	C595.719177,208.088928 598.480103,211.724243 598.591125,215.078003 
	C598.601807,215.400192 600.546570,215.658371 601.593506,215.946259 
	C601.435303,215.167389 601.277100,214.388535 600.938965,212.885757 
M663.736328,211.373795 
	C663.532776,208.991928 663.329285,206.610077 663.125793,204.228210 
	C662.529785,204.299057 661.933777,204.369919 661.337769,204.440765 
	C661.337769,208.255707 661.337769,212.070663 661.337769,215.885605 
	C661.787720,215.970993 662.237671,216.056396 662.687622,216.141800 
	C663.036926,214.849289 663.386230,213.556778 663.736328,211.373795 
M651.066162,206.102173 
	C651.066162,209.373810 651.066162,212.645447 651.066162,216.914902 
	C654.074341,214.043564 654.873352,206.155426 653.179871,204.618042 
	C652.924561,204.386307 651.876770,205.027695 651.066162,206.102173 
M390.848114,211.512360 
	C390.968994,213.000641 391.089905,214.488922 391.210785,215.977203 
	C391.565979,216.024994 391.921173,216.072800 392.276398,216.120590 
	C393.653687,213.291504 395.031006,210.462433 396.710510,207.012634 
	C394.382965,208.271591 390.396912,205.351425 390.848114,211.512360 
M351.600739,205.927231 
	C351.936676,209.278259 349.824524,213.033539 352.999390,216.652802 
	C354.955048,210.425354 354.520782,207.499496 351.600739,205.927231 
z"/>
<path fill="#C75D15" opacity="1.000000" stroke="none" 
	d="
M158.745728,261.314697 
	C156.050568,254.476852 153.516113,247.985184 150.951584,241.505402 
	C150.589249,240.589890 150.305328,239.451630 149.605179,238.890594 
	C140.715775,231.767380 136.341904,221.587067 131.191650,211.930756 
	C130.487305,210.610168 129.731201,209.302246 129.183350,207.915649 
	C126.627213,201.446030 123.164894,196.724579 115.163437,196.018646 
	C108.582550,195.438019 103.315216,191.229187 98.709221,186.338409 
	C97.426689,184.976578 94.495369,183.860153 92.867607,184.371826 
	C87.628761,186.018585 82.015739,186.617203 81.423042,194.920761 
	C80.826332,203.280380 74.443954,205.243073 66.939369,201.123581 
	C63.465401,199.216629 59.603104,197.990448 56.220455,195.951859 
	C53.333561,194.212051 49.854839,192.275467 48.440983,189.505585 
	C45.072540,182.906448 42.309803,175.898438 40.219501,168.786041 
	C39.066128,164.861618 37.255135,162.420166 34.149361,159.811234 
	C24.092859,151.363541 14.527367,142.328705 4.856159,133.429382 
	C3.973662,132.617310 3.688421,131.156174 2.834927,129.396759 
	C28.124178,129.396759 52.830444,129.396759 78.088272,129.396759 
	C78.088272,93.547340 78.088272,58.160217 78.088272,22.386963 
	C98.854492,22.386963 119.069008,22.386963 140.060303,22.386963 
	C140.060303,25.878773 140.060303,29.297684 140.060303,32.716595 
	C140.060303,41.883064 140.060104,51.049538 140.060379,60.216007 
	C140.060577,67.019569 141.577118,68.587456 148.154724,70.239479 
	C151.549057,71.092003 154.648972,73.050705 157.981766,74.226624 
	C168.103592,77.797966 178.130524,81.787056 188.491364,84.464149 
	C193.083725,85.650757 198.459152,83.396935 203.356842,83.898560 
	C212.960846,84.882195 222.121262,83.931129 231.353745,81.111877 
	C234.356049,80.195084 238.253052,81.287224 241.495926,82.269272 
	C248.426193,84.367989 255.196503,86.994888 263.097351,89.780975 
	C263.097351,98.375679 263.156464,108.153114 263.071686,117.929298 
	C263.031067,122.613914 263.761963,126.503517 266.846954,130.713135 
	C273.451080,139.724655 277.162262,149.979111 274.768158,161.679108 
	C273.983887,165.511765 274.610229,169.611359 274.244171,173.556656 
	C273.745850,178.927032 271.219269,183.091232 265.879089,184.912109 
	C257.120728,187.898514 250.701126,194.191803 243.609924,199.725677 
	C233.410141,207.685471 222.646133,214.970978 211.747757,221.959152 
	C208.168900,224.253998 206.216492,226.931854 205.033295,230.670883 
	C200.183136,245.997864 198.233459,261.251221 207.195755,277.441650 
	C202.766159,277.441650 199.235214,278.172272 196.156021,277.302887 
	C187.368668,274.821869 178.763214,271.695648 170.090866,268.809265 
	C168.516357,268.285217 166.969727,267.244568 165.400116,267.224274 
	C161.516083,267.174042 159.753830,265.047119 158.745728,261.314697 
M156.060715,163.306030 
	C155.322464,167.375427 155.139542,171.648987 153.733734,175.472977 
	C150.515381,184.227493 141.681412,188.379272 130.651901,186.963379 
	C122.950630,185.974762 117.371613,180.782898 116.959785,171.600815 
	C116.147614,153.492645 116.269585,135.337601 116.260559,117.201813 
	C116.258240,112.539162 119.202461,110.115799 123.968521,109.720146 
	C125.465469,109.595879 126.876137,108.432297 128.326309,107.744423 
	C128.103256,107.271172 127.880211,106.797920 127.657166,106.324669 
	C113.880394,106.324669 100.103615,106.324669 84.985909,106.324669 
	C86.484276,107.982079 87.115494,109.319069 88.095291,109.662964 
	C95.871597,112.392365 96.082565,112.548973 96.108147,120.824524 
	C96.152924,135.314545 95.933891,149.809052 96.224739,164.293655 
	C96.553444,180.663376 105.385262,190.604050 121.283928,192.751862 
	C125.542854,193.327225 129.936127,193.285950 134.243134,193.059616 
	C149.682922,192.248245 159.697464,183.536163 160.892197,168.022415 
	C162.065567,152.786041 161.727264,137.422943 161.767380,122.114693 
	C161.783340,116.030235 161.949493,110.576187 169.790421,109.690338 
	C170.406647,109.620728 170.885986,108.339699 171.428940,107.621681 
	C170.709229,107.123825 169.994736,106.201912 169.269028,106.192978 
	C160.982452,106.090981 152.694183,106.128120 144.406357,106.128120 
	C144.199081,106.572044 143.991821,107.015961 143.784561,107.459885 
	C144.807739,108.231308 145.724716,109.409088 146.871201,109.708710 
	C154.764114,111.771469 156.057327,113.211655 156.092331,121.377487 
	C156.150848,135.034592 156.093613,148.692184 156.060715,163.306030 
M207.500000,106.120338 
	C196.903809,106.120338 186.307617,106.120338 175.166946,106.120338 
	C175.166946,113.911278 175.085266,121.045624 175.249725,128.174301 
	C175.276230,129.322754 176.399506,130.445892 177.015778,131.580734 
	C177.755493,130.535095 178.885971,129.587036 179.175217,128.428894 
	C182.486160,115.171738 188.970596,110.205246 202.688171,110.655258 
	C202.790298,111.120712 202.987747,111.601089 202.987900,112.081528 
	C202.994629,133.908752 203.061859,155.736450 202.930756,177.562927 
	C202.888489,184.600937 201.243927,186.060715 193.843536,187.538208 
	C192.794006,187.747757 191.897263,188.722519 190.929794,189.343079 
	C191.925766,189.867523 192.918121,190.840408 193.918243,190.848419 
	C206.747284,190.951309 219.577728,190.953217 232.406647,190.843262 
	C233.387177,190.834869 234.358810,189.788361 235.334579,189.224380 
	C234.483688,188.663544 233.699600,187.787506 232.771530,187.590775 
	C223.783203,185.685410 222.982208,184.785873 222.966125,175.275909 
	C222.932587,155.448013 222.954376,135.620010 222.953445,115.792046 
	C222.953369,114.007629 222.953415,112.223213 222.953415,110.421463 
	C237.952316,110.989464 242.726364,114.731613 246.492447,128.451462 
	C246.624634,128.933044 246.592148,129.543991 246.883789,129.879745 
	C247.449265,130.530716 248.221420,131.501450 248.851349,131.460907 
	C249.520935,131.417801 250.665375,130.364731 250.675507,129.737686 
	C250.801239,121.967323 250.757614,114.194206 250.757614,106.120369 
	C236.124557,106.120369 222.312271,106.120369 207.500000,106.120338 
z"/>
<path fill="#C85F17" opacity="1.000000" stroke="none" 
	d="
M286.101196,189.288223 
	C286.259094,188.591385 286.357880,188.149063 286.589020,188.063293 
	C296.755432,184.290237 296.757599,184.294022 296.757874,173.291473 
	C296.758270,155.804489 296.691010,138.317139 296.792969,120.830750 
	C296.829285,114.598251 295.678986,110.246887 288.493347,109.582520 
	C287.521637,109.492668 286.662262,108.187508 285.750885,107.445084 
	C285.931366,107.008514 286.111847,106.571945 286.292297,106.135376 
	C292.716278,106.135376 299.146301,105.956581 305.562866,106.175018 
	C316.683594,106.553612 328.016693,105.971825 338.864685,107.957062 
	C359.819550,111.791870 371.432709,127.954727 370.731750,149.859619 
	C370.075714,170.361359 356.147400,187.618164 336.305847,189.691727 
	C320.150696,191.380035 303.734344,190.577179 287.432892,190.815262 
	C286.995361,190.821671 286.547058,190.094254 286.101196,189.288223 
M347.953766,163.280624 
	C348.148865,161.794922 348.406616,160.314377 348.529144,158.822723 
	C349.505737,146.935211 349.328247,135.172134 344.317017,124.018852 
	C340.498993,115.521301 334.067719,110.645233 324.585510,110.330307 
	C318.814148,110.138641 316.948059,111.884369 316.934479,117.529831 
	C316.885559,137.857788 316.878326,158.186035 316.934265,178.513947 
	C316.953583,185.535492 319.272400,187.519455 326.164490,186.616287 
	C336.179657,185.303833 345.271820,180.070984 347.953766,163.280624 
z"/>
<path fill="#C86019" opacity="1.000000" stroke="none" 
	d="
M438.259918,117.332962 
	C449.019775,117.475388 459.314850,117.612007 469.608551,117.817780 
	C469.753387,117.820679 469.880890,118.691422 470.050812,119.275047 
	C469.653778,119.557632 469.297516,120.028664 468.912872,120.053123 
	C459.689819,120.639435 458.924408,122.990387 458.983887,132.457626 
	C459.083313,148.278122 458.996155,164.099701 459.018890,179.920792 
	C459.027466,185.897705 459.970856,186.877090 465.829712,187.310226 
	C479.533234,188.323303 488.102173,183.209076 494.099670,170.583893 
	C494.947662,168.798874 496.267151,167.237854 497.368408,165.573151 
	C497.939697,165.853195 498.510956,166.133224 499.082214,166.413269 
	C497.673492,174.367264 496.264771,182.321259 494.801147,190.585205 
	C462.850128,190.585205 430.994171,190.585205 399.138184,190.585205 
	C398.989746,190.186005 398.841309,189.786804 398.692871,189.387619 
	C399.816956,188.897903 400.898682,188.165695 402.072479,187.960770 
	C406.973083,187.105118 407.986816,185.655014 406.773712,180.839813 
	C406.733093,180.678543 406.674072,180.522003 406.627960,180.362015 
	C403.491760,169.481781 403.491760,169.481781 392.098999,169.481781 
	C390.766693,169.481781 389.434387,169.481781 388.102081,169.481781 
	C376.763092,169.481796 376.685547,169.543716 374.098145,180.666931 
	C372.970062,185.516495 373.963806,186.980682 378.806030,187.954575 
	C379.998047,188.194305 381.102631,188.868820 382.247406,189.343445 
	C382.107697,189.769653 381.967987,190.195862 381.828278,190.622070 
	C374.640686,190.622070 367.453094,190.622070 359.629059,190.622070 
	C360.299652,189.432175 360.576324,188.211365 361.135162,188.064545 
	C365.825134,186.832352 367.517853,182.989975 369.094299,179.116913 
	C377.113434,159.415115 385.042145,139.676437 393.104248,119.992363 
	C393.718781,118.491974 395.123566,117.315277 396.161072,115.988136 
	C397.240631,117.240135 398.716370,118.321632 399.339722,119.769974 
	C407.289246,138.241043 415.102570,156.770676 422.990204,175.268494 
	C424.162292,178.017242 425.556458,180.670578 426.815369,183.383148 
	C428.746704,187.544693 432.013702,188.672653 436.291962,187.686325 
	C440.536377,186.707809 441.670380,183.565216 441.695709,179.799164 
	C441.767395,169.141251 441.743286,158.482697 441.752472,147.824387 
	C441.757355,142.162094 441.780518,136.499619 441.746216,130.837540 
	C441.698425,122.953392 441.243195,122.392303 433.681396,120.154846 
	C433.128387,119.991203 432.660583,119.539635 432.125458,117.990730 
	C434.015320,117.771439 435.905182,117.552155 438.259918,117.332962 
M385.875488,149.363220 
	C383.893799,154.420364 381.912109,159.477509 379.851471,164.736160 
	C386.832428,164.736160 393.319885,164.736160 400.368530,164.736160 
	C396.875122,156.303223 393.594757,148.384430 389.859985,139.368851 
	C388.217590,143.410156 387.158051,146.017242 385.875488,149.363220 
z"/>
<path fill="#C85F18" opacity="1.000000" stroke="none" 
	d="
M644.033325,187.628815 
	C644.033325,180.056351 644.033325,172.936050 644.033325,165.815765 
	C644.589050,165.585251 645.144775,165.354736 645.700500,165.124222 
	C646.502869,166.478836 647.611633,167.740021 648.057922,169.203262 
	C650.914856,178.571198 655.307251,186.479401 665.951965,188.567993 
	C672.879517,189.927231 678.488342,187.245773 680.950562,181.605118 
	C683.261169,176.311615 681.859436,170.866653 676.807129,167.644897 
	C672.475220,164.882523 667.772461,162.707123 663.280518,160.188507 
	C660.239197,158.483185 657.132019,156.837677 654.310303,154.809296 
	C645.685242,148.609222 642.801514,140.216431 645.827698,130.837585 
	C649.033691,120.901680 655.979248,115.758667 666.860596,115.931252 
	C671.117859,115.998779 675.397705,116.955673 679.593933,117.850967 
	C683.086853,118.596214 686.585205,120.675430 689.114197,116.123642 
	C689.322327,115.749031 690.647827,115.995247 691.966675,115.926125 
	C691.966675,119.907951 691.966675,123.688492 691.966675,127.469032 
	C691.966675,131.267670 691.966675,135.066299 691.966675,138.864944 
	C691.520752,139.110519 691.074829,139.356094 690.628906,139.601669 
	C689.721497,138.462463 688.693665,137.398270 687.929199,136.170059 
	C685.572754,132.384033 683.765076,128.154480 680.915588,124.801445 
	C676.770203,119.923424 671.127625,118.049080 664.696289,119.615219 
	C660.636108,120.603958 657.828064,123.129501 657.068909,127.286484 
	C656.275269,131.632629 656.991211,135.779785 661.203796,138.188004 
	C667.835815,141.979279 674.619995,145.503998 681.335388,149.149719 
	C692.713745,155.326920 697.495605,165.202301 693.978638,175.920044 
	C690.959351,185.121002 684.583374,191.110718 674.852600,191.785675 
	C668.526550,192.224442 662.009766,191.139374 655.696350,190.052017 
	C652.172119,189.445038 649.010864,187.872314 646.737610,192.068695 
	C646.555359,192.405106 645.516907,192.277740 644.349060,192.438522 
	C644.234741,190.860641 644.133972,189.470825 644.033325,187.628815 
z"/>
<path fill="#C8601A" opacity="1.000000" stroke="none" 
	d="
M564.102905,166.242401 
	C563.359253,174.313721 562.230408,182.312073 561.062805,190.585236 
	C539.977173,190.585236 519.260620,190.585236 497.030151,190.585236 
	C498.706879,189.203156 499.416351,188.110596 500.206970,188.048370 
	C505.653656,187.619751 507.639709,184.526703 507.619873,179.387787 
	C507.554871,162.576920 507.549500,145.765427 507.626495,128.954666 
	C507.648804,124.094208 505.936890,120.936279 500.738617,120.353622 
	C499.844574,120.253410 498.995178,119.754990 497.982086,119.388794 
	C500.485626,116.888481 531.326538,116.364250 537.249390,119.102196 
	C534.518860,119.817047 532.855347,120.457153 531.140198,120.660461 
	C527.141785,121.134407 525.112366,123.397812 525.095093,127.266045 
	C525.013306,145.574173 525.017700,163.882721 525.024048,182.191132 
	C525.025208,185.490356 527.017029,186.733047 530.083008,187.171326 
	C543.577087,189.100266 553.676819,183.685669 559.816223,171.283600 
	C560.750000,169.397339 562.399292,167.865295 564.102905,166.242401 
z"/>
<path fill="#C86019" opacity="1.000000" stroke="none" 
	d="
M618.126831,149.808990 
	C622.040588,159.037674 625.834412,167.903259 629.617859,176.773315 
	C631.845703,181.996323 633.854126,187.382950 640.845154,189.326019 
	C634.956360,191.841095 607.160278,191.334564 604.689087,188.933228 
	C605.282715,188.600479 605.761597,188.138550 606.295898,188.061768 
	C613.677673,187.000824 614.485229,185.698944 611.986938,178.740585 
	C608.663025,169.482193 608.663025,169.482193 598.809570,169.482178 
	C597.310059,169.482178 595.810547,169.482178 594.311035,169.482178 
	C582.784119,169.482178 582.544067,169.764603 579.986816,180.940094 
	C579.027954,185.130341 580.376709,187.300049 584.590088,187.937241 
	C585.841431,188.126480 587.024963,188.764404 588.239563,189.196747 
	C588.126648,189.637161 588.013733,190.077591 587.900879,190.518005 
	C580.714172,190.518005 573.527466,190.518005 566.102722,190.518005 
	C566.215271,189.751892 566.187012,188.365158 566.462524,188.301941 
	C572.510193,186.914124 574.065063,181.724625 575.993958,176.998199 
	C583.720886,158.064835 591.295349,139.069153 599.055725,120.149635 
	C599.707825,118.559746 601.322693,117.364700 602.490234,115.986206 
	C603.505249,117.343796 604.826050,118.568069 605.485535,120.080650 
	C609.738403,129.834579 613.846802,139.651505 618.126831,149.808990 
M598.407166,165.093079 
	C600.850281,165.093079 603.293396,165.093079 606.457886,165.093079 
	C603.232422,157.253403 600.286316,150.066650 597.310059,142.892441 
	C596.951599,142.028397 596.429993,141.232056 595.632446,139.751816 
	C593.808655,144.398895 592.253174,148.365768 590.695068,152.331619 
	C589.087402,156.423401 587.477295,160.514145 585.676453,165.093109 
	C590.141174,165.093109 593.795288,165.093109 598.407166,165.093079 
z"/>
<path fill="#CB6929" opacity="1.000000" stroke="none" 
	d="
M317.806580,210.461151 
	C317.797638,208.194290 317.797638,206.329605 317.797638,204.464905 
	C318.551575,204.383255 319.305542,204.301620 320.059479,204.219971 
	C320.304535,206.100586 320.329529,208.046707 320.863586,209.841309 
	C321.298309,211.302170 322.342651,212.581604 323.116638,213.941498 
	C323.951416,212.613022 325.131287,211.380127 325.532471,209.931549 
	C326.020325,208.170273 325.852020,206.227280 326.666016,204.328461 
	C329.583862,207.074707 328.992615,210.661224 327.859131,213.430573 
	C327.258545,214.897858 323.929443,215.811966 321.769379,215.943222 
	C318.649780,216.132751 317.707703,213.687363 317.806580,210.461151 
z"/>
<path fill="#CF743A" opacity="1.000000" stroke="none" 
	d="
M619.343689,215.846405 
	C618.647583,212.131638 618.367920,208.558167 618.063171,204.664368 
	C619.937134,204.473602 621.200867,204.294693 622.470581,204.224991 
	C626.419250,204.008286 629.505615,205.094284 629.837036,209.678802 
	C630.128174,213.705933 627.614380,215.898422 622.757568,216.031677 
	C621.759583,216.059067 620.759338,216.004501 619.343689,215.846405 
M621.742981,206.666443 
	C621.491882,208.894699 621.240784,211.122955 620.989624,213.351212 
	C621.449036,213.725601 621.908447,214.099991 622.367859,214.474396 
	C623.836426,213.271576 626.120300,212.327881 626.602173,210.811523 
	C627.575500,207.749023 625.639221,206.218689 621.742981,206.666443 
z"/>
<path fill="#CE7136" opacity="1.000000" stroke="none" 
	d="
M468.632690,207.185699 
	C472.051453,208.573135 473.280884,211.243317 471.516998,213.650497 
	C470.408508,215.163300 467.281891,215.882980 465.169006,215.700958 
	C464.016602,215.601654 462.212097,212.865341 462.238312,211.344803 
	C462.299072,207.821594 464.998138,206.791748 468.632690,207.185699 
z"/>
<path fill="#CB6929" opacity="1.000000" stroke="none" 
	d="
M635.706177,213.895844 
	C636.011780,211.757278 635.824646,209.473495 636.874207,208.409470 
	C637.880127,207.389633 640.252869,207.190659 641.863525,207.492447 
	C642.828979,207.673370 643.866638,209.406616 644.183716,210.621689 
	C644.583069,212.152328 644.280029,213.866257 644.280029,216.560822 
	C641.176941,215.732117 638.465515,215.008011 635.706177,213.895844 
z"/>
<path fill="#CD6D30" opacity="1.000000" stroke="none" 
	d="
M384.241089,213.362305 
	C382.763580,217.345551 379.671051,216.726273 377.404633,215.283493 
	C376.160309,214.491379 375.142975,210.810242 375.820374,210.064850 
	C377.182709,208.565720 379.867432,207.333435 381.838959,207.545837 
	C384.667633,207.850601 385.667877,210.215637 384.241089,213.362305 
z"/>
<path fill="#CD6D30" opacity="1.000000" stroke="none" 
	d="
M292.976318,209.026703 
	C295.473480,208.453568 297.791321,207.913284 300.030060,208.143188 
	C300.683044,208.210251 301.682159,210.548706 301.529083,211.715698 
	C301.142487,214.663239 299.744110,216.976379 296.065643,216.082336 
	C292.283264,215.163010 291.333160,212.838165 292.976318,209.026703 
z"/>
<path fill="#CC6B2C" opacity="1.000000" stroke="none" 
	d="
M678.803406,212.207565 
	C679.563904,217.999542 675.183777,215.279099 673.173096,215.892563 
	C672.501343,216.097519 670.371582,214.016708 670.176453,212.780563 
	C669.747620,210.064255 670.320129,207.310760 674.008118,207.114090 
	C677.227295,206.942383 679.104065,208.270950 678.803406,212.207565 
z"/>
<path fill="#CB6929" opacity="1.000000" stroke="none" 
	d="
M542.899109,213.888092 
	C543.796570,211.401749 544.228577,208.290436 545.792969,207.540131 
	C548.400757,206.289413 551.501343,206.893646 551.458557,211.144379 
	C551.443909,212.594162 551.456177,214.044220 551.456177,216.602234 
	C548.396606,215.783585 545.669617,215.053909 542.899109,213.888092 
z"/>
<path fill="#CD6D30" opacity="1.000000" stroke="none" 
	d="
M515.512207,215.800873 
	C512.378662,213.806061 511.861176,211.040939 513.988831,208.959259 
	C515.254272,207.721207 518.250000,207.402771 520.092102,207.945694 
	C521.077881,208.236237 521.747009,211.235611 521.720642,212.999985 
	C521.657410,217.230118 518.377930,215.991684 515.512207,215.800873 
z"/>
<path fill="#CB6929" opacity="1.000000" stroke="none" 
	d="
M587.178284,215.887039 
	C584.270203,216.181778 581.817383,216.288757 582.478271,212.587921 
	C582.950928,209.940903 582.772339,206.739426 586.995850,207.095840 
	C593.152039,207.615326 590.308716,212.276917 591.185242,215.780975 
	C589.778625,215.780975 588.691833,215.780975 587.178284,215.887039 
z"/>
<path fill="#CE7136" opacity="1.000000" stroke="none" 
	d="
M280.392090,210.064041 
	C279.778259,212.329285 279.451385,214.217880 279.124481,216.106476 
	C278.615387,216.052399 278.106293,215.998322 277.597198,215.944244 
	C277.597198,212.154877 277.597198,208.365524 277.597198,203.783890 
	C281.425171,207.580093 289.240112,207.804596 284.696899,217.081055 
	C283.953644,214.958603 283.682556,213.654114 283.057098,212.550461 
	C282.455017,211.488083 281.486542,210.633347 280.392090,210.064041 
z"/>
<path fill="#CD6D30" opacity="1.000000" stroke="none" 
	d="
M562.024536,216.154907 
	C556.178955,216.281982 559.481812,211.621246 558.019958,209.569336 
	C559.490295,208.741058 560.933899,207.353607 562.440491,207.281403 
	C563.442322,207.233368 564.977295,208.874359 565.498169,210.091232 
	C566.777649,213.080627 567.447266,216.178299 562.024536,216.154907 
z"/>
<path fill="#CF743A" opacity="1.000000" stroke="none" 
	d="
M408.978607,207.572968 
	C409.477295,208.522522 409.658783,209.313934 409.840271,210.105347 
	C409.610168,210.155960 409.380096,210.206589 409.149994,210.257202 
	C409.705994,211.666382 410.262024,213.075546 410.818024,214.484711 
	C408.687897,214.982437 406.549438,215.877670 404.430725,215.833176 
	C403.096771,215.805161 403.431793,213.863525 403.132507,212.852264 
	C401.291870,206.632980 404.518036,206.840057 408.978607,207.572968 
z"/>
<path fill="#CF743A" opacity="1.000000" stroke="none" 
	d="
M692.156128,207.789383 
	C692.162598,208.867432 691.822083,209.757919 691.485596,210.637833 
	C691.933411,211.177780 693.202576,212.234329 693.703247,213.577377 
	C693.871216,214.027847 692.118469,215.862457 691.177979,215.916229 
	C689.336426,216.021515 686.551697,215.918823 685.805481,214.801514 
	C684.855713,213.379364 684.723389,210.095779 685.733887,209.022293 
	C686.921631,207.760544 689.713196,208.008560 692.156128,207.789383 
z"/>
<path fill="#CD6D30" opacity="1.000000" stroke="none" 
	d="
M443.336090,216.244965 
	C442.095795,217.632187 441.006897,218.688263 440.388275,219.288223 
	C439.424011,215.034927 438.595062,211.378479 437.766113,207.722046 
	C438.010986,207.496780 438.255859,207.271500 438.500732,207.046234 
	C439.657745,208.406525 440.814758,209.766830 442.180084,211.372025 
	C443.074615,210.001404 444.067627,208.479889 445.060669,206.958374 
	C445.575287,207.203568 446.089935,207.448761 446.604553,207.693954 
	C445.565521,210.433914 444.526489,213.173874 443.336090,216.244965 
z"/>
<path fill="#CF743A" opacity="1.000000" stroke="none" 
	d="
M265.186523,215.855621 
	C264.535522,214.477631 264.436646,213.173737 264.069702,211.950272 
	C263.375214,209.634689 262.526794,207.365265 261.652679,204.815186 
	C263.788208,204.815186 267.292908,204.815186 270.797607,204.815186 
	C270.890900,205.047974 270.984192,205.280762 271.077484,205.513550 
	C269.819092,206.147125 268.560699,206.780701 268.066345,207.029587 
	C267.138611,210.415222 266.378113,213.190613 265.186523,215.855621 
z"/>
<path fill="#CE7136" opacity="1.000000" stroke="none" 
	d="
M505.126892,208.385681 
	C505.107086,211.122345 505.107086,213.416061 505.107086,215.709778 
	C504.497284,215.868134 503.887512,216.026474 503.277710,216.184814 
	C502.870605,214.771576 502.140747,213.362366 502.123108,211.944290 
	C502.085663,208.933182 502.432617,205.909561 498.240936,204.830933 
	C501.748657,204.830933 505.256348,204.830933 509.882996,204.830933 
	C507.735504,206.241837 506.441071,207.092285 505.126892,208.385681 
z"/>
<path fill="#CF743A" opacity="1.000000" stroke="none" 
	d="
M536.456909,215.672821 
	C533.662415,215.720367 531.151672,215.539536 528.294067,215.333725 
	C528.844360,214.327988 529.558228,213.023254 530.368958,211.541534 
	C529.694824,210.387436 528.969177,209.145035 528.336731,208.062347 
	C530.938232,208.062347 533.471252,208.062347 536.226562,208.062347 
	C535.785217,208.950516 535.115112,210.298920 534.430908,211.675598 
	C535.193481,212.919815 535.967102,214.182129 536.456909,215.672821 
z"/>
<path fill="#CC6B2C" opacity="1.000000" stroke="none" 
	d="
M336.659119,211.865997 
	C336.563477,213.182953 336.498993,214.115829 336.434479,215.048706 
	C336.224060,215.058487 336.013611,215.068268 335.803162,215.078049 
	C335.803162,213.092667 335.803162,211.107300 335.803162,208.250336 
	C338.281189,208.250336 341.656158,207.300323 343.491669,208.572128 
	C344.794708,209.475006 344.020355,213.376099 344.173218,215.938995 
	C343.530884,215.973434 342.888550,216.007874 342.246216,216.042313 
	C341.858368,213.790405 341.470551,211.538498 340.923096,208.359787 
	C339.096436,209.707123 337.893341,210.594528 336.659119,211.865997 
z"/>
<path fill="#CF743A" opacity="1.000000" stroke="none" 
	d="
M366.929504,208.223495 
	C367.364929,207.724014 367.741302,207.334381 367.887909,207.407211 
	C368.482025,207.702362 369.528198,208.381348 369.478333,208.489182 
	C368.323151,210.988266 367.066650,213.443054 365.678802,215.818314 
	C365.642334,215.880722 363.476715,215.201981 363.083344,214.457245 
	C361.967102,212.344040 361.255432,210.017120 360.384460,207.774368 
	C360.800079,207.510437 361.215698,207.246521 361.631317,206.982605 
	C362.816742,208.376572 364.002197,209.770554 365.474152,211.501434 
	C365.920105,210.480240 366.342438,209.513092 366.929504,208.223495 
z"/>
<path fill="#CB6929" opacity="1.000000" stroke="none" 
	d="
M427.685883,211.084167 
	C427.677063,208.809326 427.677063,206.929184 427.677063,205.049042 
	C428.495850,204.989105 429.314606,204.929153 430.133392,204.869217 
	C430.519562,208.345657 430.905762,211.822083 431.303894,215.406189 
	C428.033081,215.896835 428.033081,215.896835 427.685883,211.084167 
z"/>
<path fill="#CF743A" opacity="1.000000" stroke="none" 
	d="
M482.789215,207.726151 
	C482.235748,210.768372 481.517609,213.462601 480.483582,217.341904 
	C477.099518,208.170700 477.676086,205.563431 482.810486,204.299759 
	C482.744629,205.389694 482.684601,206.383926 482.789215,207.726151 
z"/>
<path fill="#CE7136" opacity="1.000000" stroke="none" 
	d="
M601.028931,213.247711 
	C601.277100,214.388535 601.435303,215.167389 601.593506,215.946259 
	C600.546570,215.658371 598.601807,215.400192 598.591125,215.078003 
	C598.480103,211.724243 595.719177,208.088928 598.998352,205.017761 
	C599.612610,205.008881 600.226807,205.000000 600.841064,204.991104 
	C600.873657,207.622665 600.906311,210.254211 601.028931,213.247711 
z"/>
<path fill="#D0773F" opacity="1.000000" stroke="none" 
	d="
M663.735962,211.819031 
	C663.386230,213.556778 663.036926,214.849289 662.687622,216.141800 
	C662.237671,216.056396 661.787720,215.970993 661.337769,215.885605 
	C661.337769,212.070663 661.337769,208.255707 661.337769,204.440765 
	C661.933777,204.369919 662.529785,204.299057 663.125793,204.228210 
	C663.329285,206.610077 663.532776,208.991928 663.735962,211.819031 
z"/>
<path fill="#CF743A" opacity="1.000000" stroke="none" 
	d="
M651.130859,205.683685 
	C651.876770,205.027695 652.924561,204.386307 653.179871,204.618042 
	C654.873352,206.155426 654.074341,214.043564 651.066162,216.914902 
	C651.066162,212.645447 651.066162,209.373810 651.130859,205.683685 
z"/>
<path fill="#D0773F" opacity="1.000000" stroke="none" 
	d="
M390.848389,211.070129 
	C390.396912,205.351425 394.382965,208.271591 396.710510,207.012634 
	C395.031006,210.462433 393.653687,213.291504 392.276398,216.120590 
	C391.921173,216.072800 391.565979,216.024994 391.210785,215.977203 
	C391.089905,214.488922 390.968994,213.000641 390.848389,211.070129 
z"/>
<path fill="#D0773F" opacity="1.000000" stroke="none" 
	d="
M351.635864,205.603851 
	C354.520782,207.499496 354.955048,210.425354 352.999390,216.652802 
	C349.824524,213.033539 351.936676,209.278259 351.635864,205.603851 
z"/>
<path fill="#FDFAF8" opacity="1.000000" stroke="none" 
	d="
M156.072906,162.827805 
	C156.093613,148.692184 156.150848,135.034592 156.092331,121.377487 
	C156.057327,113.211655 154.764114,111.771469 146.871201,109.708710 
	C145.724716,109.409088 144.807739,108.231308 143.784561,107.459885 
	C143.991821,107.015961 144.199081,106.572044 144.406357,106.128120 
	C152.694183,106.128120 160.982452,106.090981 169.269028,106.192978 
	C169.994736,106.201912 170.709229,107.123825 171.428940,107.621681 
	C170.885986,108.339699 170.406647,109.620728 169.790421,109.690338 
	C161.949493,110.576187 161.783340,116.030235 161.767380,122.114693 
	C161.727264,137.422943 162.065567,152.786041 160.892197,168.022415 
	C159.697464,183.536163 149.682922,192.248245 134.243134,193.059616 
	C129.936127,193.285950 125.542854,193.327225 121.283928,192.751862 
	C105.385262,190.604050 96.553444,180.663376 96.224739,164.293655 
	C95.933891,149.809052 96.152924,135.314545 96.108147,120.824524 
	C96.082565,112.548973 95.871597,112.392365 88.095291,109.662964 
	C87.115494,109.319069 86.484276,107.982079 84.985909,106.324669 
	C100.103615,106.324669 113.880394,106.324669 127.657166,106.324669 
	C127.880211,106.797920 128.103256,107.271172 128.326309,107.744423 
	C126.876137,108.432297 125.465469,109.595879 123.968521,109.720146 
	C119.202461,110.115799 116.258240,112.539162 116.260559,117.201813 
	C116.269585,135.337601 116.147614,153.492645 116.959785,171.600815 
	C117.371613,180.782898 122.950630,185.974762 130.651901,186.963379 
	C141.681412,188.379272 150.515381,184.227493 153.733734,175.472977 
	C155.139542,171.648987 155.322464,167.375427 156.072906,162.827805 
z"/>
<path fill="#FDFAF9" opacity="1.000000" stroke="none" 
	d="
M208.000000,106.120354 
	C222.312271,106.120369 236.124557,106.120369 250.757614,106.120369 
	C250.757614,114.194206 250.801239,121.967323 250.675507,129.737686 
	C250.665375,130.364731 249.520935,131.417801 248.851349,131.460907 
	C248.221420,131.501450 247.449265,130.530716 246.883789,129.879745 
	C246.592148,129.543991 246.624634,128.933044 246.492447,128.451462 
	C242.726364,114.731613 237.952316,110.989464 222.953415,110.421463 
	C222.953415,112.223213 222.953369,114.007629 222.953445,115.792046 
	C222.954376,135.620010 222.932587,155.448013 222.966125,175.275909 
	C222.982208,184.785873 223.783203,185.685410 232.771530,187.590775 
	C233.699600,187.787506 234.483688,188.663544 235.334579,189.224380 
	C234.358810,189.788361 233.387177,190.834869 232.406647,190.843262 
	C219.577728,190.953217 206.747284,190.951309 193.918243,190.848419 
	C192.918121,190.840408 191.925766,189.867523 190.929810,189.343079 
	C191.897263,188.722519 192.794006,187.747757 193.843536,187.538208 
	C201.243927,186.060715 202.888489,184.600937 202.930756,177.562927 
	C203.061859,155.736450 202.994629,133.908752 202.987900,112.081528 
	C202.987747,111.601089 202.790298,111.120712 202.688171,110.655258 
	C188.970596,110.205246 182.486160,115.171738 179.175217,128.428894 
	C178.885971,129.587036 177.755493,130.535095 177.015778,131.580734 
	C176.399506,130.445892 175.276230,129.322754 175.249725,128.174301 
	C175.085266,121.045624 175.166946,113.911278 175.166946,106.120338 
	C186.307617,106.120338 196.903809,106.120338 208.000000,106.120354 
z"/>
<path fill="#FEFEFD" opacity="1.000000" stroke="none" 
	d="
M347.906250,163.709686 
	C345.271820,180.070984 336.179657,185.303833 326.164490,186.616287 
	C319.272400,187.519455 316.953583,185.535492 316.934265,178.513947 
	C316.878326,158.186035 316.885559,137.857788 316.934479,117.529831 
	C316.948059,111.884369 318.814148,110.138641 324.585510,110.330307 
	C334.067719,110.645233 340.498993,115.521301 344.317017,124.018852 
	C349.328247,135.172134 349.505737,146.935211 348.529144,158.822723 
	C348.406616,160.314377 348.148865,161.794922 347.906250,163.709686 
z"/>
<path fill="#FDFBF9" opacity="1.000000" stroke="none" 
	d="
M385.987000,148.993774 
	C387.158051,146.017242 388.217590,143.410156 389.859985,139.368851 
	C393.594757,148.384430 396.875122,156.303223 400.368530,164.736160 
	C393.319885,164.736160 386.832428,164.736160 379.851471,164.736160 
	C381.912109,159.477509 383.893799,154.420364 385.987000,148.993774 
z"/>
<path fill="#FDFBF9" opacity="1.000000" stroke="none" 
	d="
M597.928223,165.093094 
	C593.795288,165.093109 590.141174,165.093109 585.676453,165.093109 
	C587.477295,160.514145 589.087402,156.423401 590.695068,152.331619 
	C592.253174,148.365768 593.808655,144.398895 595.632446,139.751816 
	C596.429993,141.232056 596.951599,142.028397 597.310059,142.892441 
	C600.286316,150.066650 603.232422,157.253403 606.457886,165.093079 
	C603.293396,165.093079 600.850281,165.093079 597.928223,165.093094 
z"/>
<path fill="#F9EEE9" opacity="1.000000" stroke="none" 
	d="
M622.111755,206.517761 
	C625.639221,206.218689 627.575500,207.749023 626.602173,210.811523 
	C626.120300,212.327881 623.836426,213.271576 622.367859,214.474396 
	C621.908447,214.099991 621.449036,213.725601 620.989624,213.351212 
	C621.240784,211.122955 621.491882,208.894699 622.111755,206.517761 
z"/>
</svg>